<?xml version="1.0" standalone="no"?>
<!DOCTYPE svg PUBLIC "-//W3C//DTD SVG 20010904//EN"
 "http://www.w3.org/TR/2001/REC-SVG-20010904/DTD/svg10.dtd">
<svg version="1.0" xmlns="http://www.w3.org/2000/svg"
 width="201.000000pt" height="251.000000pt" viewBox="0 0 201.000000 251.000000"
 preserveAspectRatio="xMidYMid meet">

<g transform="translate(0.000000,251.000000) scale(0.100000,-0.100000)"
fill="#000000" stroke="none">
<path d="M0 1255 l0 -1255 1005 0 1005 0 0 1255 0 1255 -468 0 -469 0 -12 -22
-11 -23 6 23 5 22 -530 0 -531 0 0 -1255z m900 876 c0 -9 5 -22 11 -28 8 -8 8
-16 0 -30 -9 -16 -10 -15 -11 11 0 23 -3 26 -14 17 -10 -8 -16 -9 -21 -1 -10
16 -25 1 -25 -26 0 -13 -5 -24 -10 -24 -6 0 -10 8 -8 18 2 13 -3 16 -24 14
-21 -3 -28 1 -28 13 0 9 5 13 10 10 6 -3 10 -1 10 5 0 6 4 9 8 6 5 -3 19 4 30
15 12 11 22 17 22 14 0 -3 8 -2 17 4 21 12 33 5 33 -18z m122 6 c4 -6 4 -15 2
-19 -10 -16 49 -7 63 10 14 16 14 16 10 -4 -4 -18 0 -20 22 -16 22 5 24 3 14
-10 -7 -8 -31 -23 -52 -33 -22 -9 -41 -26 -44 -36 -5 -20 -37 -27 -37 -8 0 8
-4 8 -15 -1 -8 -6 -22 -10 -32 -7 -15 3 -14 6 7 15 14 6 21 11 16 11 -5 1 1
10 13 20 14 12 18 22 11 26 -6 3 -7 11 -4 17 4 7 2 8 -5 4 -6 -4 -9 -12 -6
-17 3 -5 -1 -6 -9 -3 -9 3 -16 1 -16 -6 0 -6 -5 -8 -12 -4 -8 5 -6 11 5 19 10
7 17 24 17 39 0 24 3 26 23 20 12 -4 25 -11 29 -17z m198 -48 c0 -5 -6 -9 -13
-9 -7 0 -13 9 -13 19 0 15 3 17 13 9 7 -6 13 -14 13 -19z m-465 0 c-4 -6 -13
-8 -21 -5 -8 3 -14 1 -14 -4 0 -6 -4 -10 -10 -10 -5 0 -10 7 -10 15 0 10 10
15 31 15 19 0 28 -4 24 -11z m15 -19 c0 -5 -4 -10 -10 -10 -5 0 -10 5 -10 10
0 6 5 10 10 10 6 0 10 -4 10 -10z m-70 -20 c0 -10 9 -24 20 -30 25 -13 26 -2
3 16 -10 7 -15 16 -11 20 8 7 48 -32 48 -47 0 -4 -12 -6 -27 -4 -22 2 -24 1
-12 -9 24 -17 30 -63 9 -69 -10 -3 -24 -1 -31 4 -11 7 -10 9 4 9 22 0 22 6 -8
63 -24 45 -26 67 -4 67 5 0 9 -9 9 -20z m536 -26 c-4 -12 21 -34 38 -34 14 0
4 19 -11 23 -12 3 -9 5 8 6 15 0 37 -8 50 -19 15 -12 19 -19 10 -20 -11 0 -11
-3 -1 -15 7 -8 16 -13 20 -10 9 6 44 -24 57 -50 8 -14 8 -23 -1 -31 -14 -12
-32 -8 -56 15 -9 9 -25 22 -36 29 -17 11 -17 12 6 7 19 -5 22 -4 10 4 -8 6
-22 8 -31 6 -9 -3 -36 6 -61 20 -31 17 -62 26 -97 26 -28 1 -51 6 -51 10 0 8
41 12 110 11 15 -1 18 1 8 4 -10 3 -15 11 -11 20 3 8 0 14 -6 14 -6 0 -11 4
-11 9 0 6 12 6 31 -1 19 -6 28 -15 25 -24z m-289 11 c-11 -7 -19 -28 -20 -47
-2 -39 -14 -42 -34 -10 -14 19 -14 22 -1 22 8 0 20 11 26 25 6 14 20 25 29 25
17 -1 17 -1 0 -15z m180 9 c-3 -3 -12 -4 -19 -1 -8 3 -5 6 6 6 11 1 17 -2 13
-5z m-485 -41 c5 -23 -1 -53 -11 -53 -4 0 -8 16 -9 35 -1 36 12 48 20 18z
m-32 -41 c0 -2 -9 -2 -20 1 -26 7 -48 -28 -24 -37 9 -3 21 -3 26 1 6 3 8 1 5
-4 -4 -6 -21 -9 -39 -7 -18 1 -40 3 -48 4 -9 0 -3 7 13 16 27 15 36 34 16 34
-5 0 -7 5 -4 10 4 6 11 8 16 5 5 -3 6 2 2 11 -5 13 0 12 25 -6 18 -13 32 -26
32 -28z m465 39 c3 -5 2 -12 -3 -15 -5 -3 -9 1 -9 9 0 17 3 19 12 6z m-255
-22 c0 -6 -4 -7 -10 -4 -5 3 -10 11 -10 16 0 6 5 7 10 4 6 -3 10 -11 10 -16z
m160 2 c0 -17 -15 -19 -28 -5 -11 12 -9 14 8 14 11 0 20 -4 20 -9z m40 5 c0
-11 -19 -15 -25 -6 -3 5 1 10 9 10 9 0 16 -2 16 -4z m46 -23 c-6 -6 -36 9 -36
18 0 5 9 4 20 -3 10 -7 18 -14 16 -15z m-271 -50 c-11 -3 -23 -10 -27 -17 -5
-7 -8 -7 -8 0 0 16 11 24 34 23 20 -1 20 -1 1 -6z m418 -17 c4 -10 0 -12 -15
-8 -15 4 -17 7 -6 13 17 11 15 11 21 -5z m-798 -28 c-2 -18 -4 -35 -4 -37 -1
-3 -6 0 -12 6 -13 13 -4 63 10 63 5 0 8 -15 6 -32z m130 22 c-3 -5 -13 -10
-21 -10 -8 0 -12 5 -9 10 3 6 13 10 21 10 8 0 12 -4 9 -10z m315 -3 c0 -16
-37 -57 -51 -57 -5 0 -1 10 11 22 11 12 20 28 20 35 0 7 5 13 10 13 6 0 10 -6
10 -13z m-200 -7 c0 -5 -5 -9 -12 -7 -6 1 -16 -7 -22 -19 -10 -19 -12 -19 -29
-4 -16 16 -16 17 5 28 29 14 58 15 58 2z m32 -22 c-15 -15 -26 -4 -18 18 5 13
9 15 18 6 9 -9 9 -15 0 -24z m118 24 c0 -4 -9 -13 -20 -20 -17 -10 -20 -10
-20 2 0 8 8 17 18 19 9 3 18 5 20 6 1 0 2 -2 2 -7z m-104 -76 c-7 -30 -16 -46
-29 -50 -12 -3 -16 -9 -11 -17 4 -8 3 -10 -4 -5 -21 13 -13 53 13 70 14 9 25
22 25 28 0 9 -3 9 -12 0 -7 -7 -17 -12 -22 -12 -6 0 0 9 14 19 13 11 27 18 30
16 4 -2 2 -24 -4 -49z m444 42 c0 -6 -3 -8 -7 -5 -3 4 -12 2 -20 -4 -13 -11
-19 2 -6 14 11 11 33 8 33 -5z m-550 -18 c0 -5 -7 -7 -15 -4 -8 4 -15 8 -15
10 0 2 7 4 15 4 8 0 15 -4 15 -10z m628 1 c6 -1 12 -5 12 -10 0 -4 -12 -6 -27
-4 -27 4 -27 4 -9 -11 18 -15 19 -16 2 -16 -15 0 -17 -5 -12 -27 5 -20 4 -24
-3 -13 -9 12 -15 12 -48 -3 -21 -9 -30 -11 -20 -4 10 6 30 22 44 33 l26 22
-23 12 c-26 14 -13 28 23 24 12 -1 28 -3 35 -3z m-161 -7 c-3 -3 -12 -4 -19
-1 -8 3 -5 6 6 6 11 1 17 -2 13 -5z m-687 -14 c0 -5 -4 -10 -10 -10 -5 0 -10
5 -10 10 0 6 5 10 10 10 6 0 10 -4 10 -10z m226 -21 c21 -20 23 -69 2 -69 -6
0 -8 9 -5 21 5 17 2 20 -13 16 -14 -4 -17 -1 -13 12 4 9 2 13 -2 8 -9 -8 -45
20 -45 36 0 14 52 -2 76 -24z m198 12 c4 -5 -3 -7 -14 -4 -23 6 -26 13 -6 13
8 0 17 -4 20 -9z m-324 -41 c-8 -5 -10 -10 -4 -10 6 0 11 -7 11 -15 0 -8 -6
-15 -14 -15 -7 0 -13 -7 -13 -15 0 -9 -9 -15 -25 -15 -18 0 -23 4 -19 15 4 8
13 15 20 15 8 0 19 11 24 25 5 14 15 25 22 25 9 0 8 -3 -2 -10z m427 -23 c-2
-7 -14 -14 -28 -18 -23 -7 -23 -7 -1 -8 12 -1 22 -5 22 -10 0 -13 -27 -21 -45
-14 -9 3 -22 -2 -30 -13 -12 -15 -14 -16 -15 -3 0 8 5 20 12 27 7 7 8 12 3 12
-6 0 -3 5 5 10 10 6 11 10 3 10 -28 0 -11 19 20 22 40 4 59 -1 54 -15z m-100
-9 c-3 -8 -6 -5 -6 6 -1 11 2 17 5 13 3 -3 4 -12 1 -19z m-252 -50 c-4 -60
-12 -55 -12 7 0 31 4 50 8 44 4 -7 6 -30 4 -51z m675 22 c0 -5 -5 -10 -11 -10
-5 0 -7 5 -4 10 3 6 8 10 11 10 2 0 4 -4 4 -10z m-630 -30 c0 -5 -2 -10 -4
-10 -3 0 -8 5 -11 10 -3 6 -1 10 4 10 6 0 11 -4 11 -10z m727 -41 c24 -22 47
-39 53 -39 14 0 43 -47 38 -61 -2 -7 -27 11 -55 40 -50 51 -54 53 -97 49 -25
-2 -46 0 -46 4 0 5 7 8 15 8 8 0 15 9 15 21 0 11 -4 17 -10 14 -5 -3 -10 -1
-10 5 0 20 55 -3 97 -41z m-122 1 c3 -5 1 -10 -4 -10 -6 0 -11 5 -11 10 0 6 2
10 4 10 3 0 8 -4 11 -10z m-215 -49 c0 -12 -39 -25 -47 -17 -4 3 1 6 10 6 10
0 17 5 17 10 0 6 5 10 10 10 6 0 10 -4 10 -9z m150 0 c0 -6 -5 -13 -10 -16 -6
-4 -8 -11 -5 -16 4 -5 2 -9 -4 -9 -15 0 -22 16 -15 34 7 17 34 22 34 7z m-565
-32 c11 -17 -1 -21 -15 -4 -8 9 -8 15 -2 15 6 0 14 -5 17 -11z m200 1 c3 -5 1
-10 -4 -10 -6 0 -11 5 -11 10 0 6 2 10 4 10 3 0 8 -4 11 -10z m-178 -22 c-3
-8 -6 -5 -6 6 -1 11 2 17 5 13 3 -3 4 -12 1 -19z m76 5 c-3 -7 2 -13 11 -13 9
0 16 -4 16 -10 0 -16 -37 -11 -44 6 -9 24 -7 31 8 31 8 0 12 -6 9 -14z m217
13 c0 -2 -7 -7 -16 -10 -8 -3 -12 -2 -9 4 6 10 25 14 25 6z m90 -15 c0 -6 -11
-23 -25 -38 l-26 -28 23 37 c25 40 28 43 28 29z m-520 -19 c0 -5 -11 -19 -25
-32 -29 -27 -32 -40 -9 -40 10 0 14 6 10 15 -3 8 -1 15 4 15 9 0 14 -14 25
-67 4 -18 4 -33 0 -33 -11 0 -34 27 -29 33 4 3 3 11 -1 17 -5 8 -11 7 -23 -2
-14 -11 -15 -10 -9 6 6 16 5 17 -8 6 -8 -7 -15 -11 -15 -8 0 11 41 83 52 90
17 10 28 10 28 0z m120 -2 c12 -8 11 -10 -5 -10 -12 0 -27 -6 -34 -12 -11 -10
-10 -8 0 10 16 25 18 26 39 12z m164 1 c3 -5 -1 -14 -8 -20 -12 -10 -13 -8 -9
8 6 23 9 25 17 12z m96 -1 c0 -5 -4 -10 -9 -10 -6 0 -13 5 -16 10 -3 6 1 10 9
10 9 0 16 -4 16 -10z m30 -30 c0 -5 -4 -10 -10 -10 -5 0 -10 5 -10 10 0 6 5
10 10 10 6 0 10 -4 10 -10z m560 -30 c9 -16 8 -18 -5 -14 -8 4 -15 12 -15 20
0 20 7 17 20 -6z m-788 -17 c-17 -26 -48 -32 -38 -7 3 9 6 19 6 22 0 4 11 7
24 7 22 0 22 -1 8 -22z m-284 4 c-2 -3 7 -14 19 -22 13 -9 28 -25 34 -37 11
-20 9 -21 -24 -15 -23 3 -38 1 -41 -6 -3 -9 -8 -8 -15 3 -6 8 -8 22 -5 30 4 8
7 21 7 28 0 6 4 12 9 12 5 0 6 5 2 11 -4 7 -2 10 5 8 7 -3 11 -8 9 -12z m392
9 c0 -3 -4 -8 -10 -11 -5 -3 -10 -1 -10 4 0 6 5 11 10 11 6 0 10 -2 10 -4z
m-50 -16 c0 -5 -4 -10 -10 -10 -5 0 -10 5 -10 10 0 6 5 10 10 10 6 0 10 -4 10
-10z m187 -8 c2 -22 -30 -44 -52 -36 -14 6 -13 9 5 21 11 8 25 11 30 8 6 -4
10 -3 9 2 -2 11 0 23 4 23 1 0 3 -8 4 -18z m-380 -28 c-3 -3 -12 -4 -19 -1 -8
3 -5 6 6 6 11 1 17 -2 13 -5z m104 -27 c-10 -9 -11 -8 -5 6 3 10 9 15 12 12 3
-3 0 -11 -7 -18z m-163 -22 c-3 -3 -9 2 -12 12 -6 14 -5 15 5 6 7 -7 10 -15 7
-18z m272 -119 c0 -3 -4 -8 -10 -11 -5 -3 -10 -1 -10 4 0 6 5 11 10 11 6 0 10
-2 10 -4z m110 -20 c0 -11 -19 -15 -25 -6 -3 5 1 10 9 10 9 0 16 -2 16 -4z
m-260 -36 c0 -5 -4 -10 -10 -10 -5 0 -10 5 -10 10 0 6 5 10 10 10 6 0 10 -4
10 -10z m220 0 c0 -5 -5 -10 -11 -10 -5 0 -7 5 -4 10 3 6 8 10 11 10 2 0 4 -4
4 -10z m-346 -21 c-3 -5 -11 -6 -17 -3 -9 5 -9 3 0 -6 10 -11 15 -11 27 -1 8
7 20 10 25 7 5 -4 12 -2 16 4 4 6 11 8 16 4 6 -3 4 -16 -7 -31 -11 -18 -15
-38 -11 -64 3 -22 2 -39 -3 -39 -4 0 -5 -12 -3 -27 4 -21 2 -24 -6 -13 -9 13
-11 12 -16 -1 -3 -9 -16 -15 -28 -14 -23 2 -27 20 -4 20 17 0 36 18 30 28 -3
5 -10 4 -16 -2 -15 -15 -44 -14 -50 2 -3 9 -10 9 -28 -2 -22 -13 -23 -13 -11
2 15 18 7 41 -10 31 -7 -4 -8 -2 -4 5 4 6 11 9 16 6 15 -9 61 45 58 69 -3 25
10 49 23 40 5 -3 7 -10 3 -15z m196 -16 c-1 -27 -1 -27 -15 -9 -8 11 -15 16
-15 12 0 -4 -5 -4 -11 0 -8 4 -7 9 2 15 25 16 39 9 39 -18z m-53 -27 c0 -6 2
-15 3 -21 7 -28 -3 -53 -25 -65 -22 -12 -26 -11 -44 11 -21 25 -19 58 5 72 7
4 11 14 8 22 -5 11 -1 12 23 3 17 -6 30 -16 30 -22z m-203 18 c18 -7 12 -24
-10 -24 -8 0 -14 7 -14 15 0 17 2 18 24 9z m301 -28 c1 -30 -11 -43 -37 -43
-22 0 -23 20 -2 53 21 31 39 26 39 -10z m-69 -13 c-10 -10 -19 5 -10 18 6 11
8 11 12 0 2 -7 1 -15 -2 -18z m861 20 c-9 -8 24 -32 46 -33 14 0 27 -20 12
-20 -11 0 -61 26 -67 34 -7 10 -1 26 9 26 4 0 3 -3 0 -7z m-932 -113 c7 0 13
-11 13 -25 0 -27 -25 -35 -34 -10 -4 8 -10 12 -15 9 -5 -3 -7 -10 -4 -15 4 -5
-1 -9 -10 -9 -10 0 -14 5 -11 13 3 6 9 20 12 30 4 11 13 16 21 13 8 -3 20 -6
28 -6z m-155 -32 c0 -26 -9 -19 -15 11 -2 12 0 19 6 16 5 -4 9 -16 9 -27z
m1110 -100 c0 -13 -32 -6 -37 9 -3 7 3 9 16 6 12 -3 21 -10 21 -15z m45 2 c3
-5 1 -10 -4 -10 -6 0 -11 5 -11 10 0 6 2 10 4 10 3 0 8 -4 11 -10z m-1170 -39
c-3 -6 -13 -11 -21 -11 -23 0 -16 -20 9 -21 12 -1 25 -1 30 0 4 0 7 -4 7 -10
0 -6 -9 -8 -22 -3 -13 3 -20 3 -17 0 7 -7 -40 -66 -52 -66 -3 0 -4 11 -1 25 2
15 0 25 -7 25 -20 0 -12 17 12 25 l22 8 -23 4 c-21 4 -21 5 -5 21 12 12 18 13
21 4 3 -9 9 -8 25 3 22 15 33 13 22 -4z m35 -7 c0 -8 -4 -12 -10 -9 -5 3 -10
10 -10 16 0 5 5 9 10 9 6 0 10 -7 10 -16z m534 1 c-4 -8 -11 -12 -16 -9 -6 4
-5 10 3 15 19 12 19 11 13 -6z m-490 -12 c-7 -24 -43 -71 -44 -56 0 6 5 15 11
18 5 4 14 18 19 31 11 28 20 32 14 7z m364 -96 c-12 -28 -35 -76 -50 -106 -16
-29 -28 -59 -28 -67 0 -8 -5 -14 -11 -14 -5 0 -8 -4 -5 -8 2 -4 -4 -13 -14
-20 -13 -8 -21 -8 -26 -1 -4 7 -14 4 -27 -8 -11 -10 -17 -13 -14 -7 4 7 -1 15
-11 19 -16 6 -16 7 2 21 11 8 17 14 13 14 -4 0 10 26 30 58 20 32 28 50 18 42
-17 -14 -18 -13 -12 4 6 16 5 17 -8 6 -21 -17 -29 -7 -16 18 6 12 11 26 11 32
0 18 -43 -17 -46 -37 -6 -38 -10 -51 -26 -67 -10 -9 -14 -24 -11 -33 5 -12 3
-14 -8 -8 -11 7 -12 6 -2 -6 10 -13 10 -16 0 -16 -6 0 -20 -4 -30 -8 -15 -6
-16 -4 -7 21 10 26 10 27 -7 13 -37 -32 -44 -32 -32 -2 6 15 19 48 29 73 45
117 52 128 87 132 37 4 37 4 22 -23 -5 -11 -14 -17 -20 -14 -5 4 -9 -3 -9 -14
0 -14 5 -19 15 -15 8 4 15 9 15 13 0 4 6 15 13 26 11 14 16 15 22 5 5 -9 4
-11 -3 -6 -20 12 -13 -6 10 -25 23 -21 33 -24 23 -10 -7 13 33 54 73 75 17 9
32 22 32 28 0 7 7 2 16 -10 14 -21 14 -26 -8 -75z m122 76 c-1 -22 -13 -52
-20 -48 -4 3 -10 -2 -13 -10 -4 -10 -1 -12 10 -8 13 5 15 2 9 -13 -4 -10 -10
-31 -13 -46 -3 -18 -14 -28 -30 -33 -34 -8 -38 -2 -25 44 7 21 12 52 12 69 0
32 14 50 25 32 9 -15 25 -12 25 5 0 8 5 15 10 15 6 0 10 -3 10 -7z m-656 -100
c-3 -54 -3 -55 -13 -48 -5 3 -12 1 -16 -5 -9 -15 -25 -12 -25 5 0 8 5 15 10
15 6 0 10 5 10 10 0 9 29 60 34 60 1 0 1 -17 0 -37z m208 -7 c6 4 3 -7 -7 -24
-10 -17 -23 -30 -29 -29 -6 1 -10 -7 -9 -18 1 -10 -3 -27 -8 -37 -10 -19 -39
-25 -39 -7 0 5 5 7 12 3 8 -5 9 0 6 14 -4 12 -2 22 4 22 5 0 6 5 3 10 -3 6 -2
10 3 10 5 0 17 16 28 35 10 20 20 31 22 25 2 -5 8 -7 14 -4z m473 -23 c-7 -17
-8 -17 -15 2 -9 24 -2 41 12 27 6 -6 7 -19 3 -29z m-18 -45 c-3 -8 -6 -5 -6 6
-1 11 2 17 5 13 3 -3 4 -12 1 -19z m-307 -7 c-5 -11 -15 -23 -21 -27 -8 -5 -8
-1 0 13 6 11 7 23 4 27 -3 3 1 6 11 6 13 0 15 -4 6 -19z m348 -36 c-6 -14 -13
-23 -16 -20 -3 3 -11 0 -19 -6 -7 -6 -13 -8 -13 -3 0 8 48 54 56 54 2 0 -2
-11 -8 -25z m-101 9 c-3 -3 -12 -4 -19 -1 -8 3 -5 6 6 6 11 1 17 -2 13 -5z
m-197 -178 c0 -8 -4 -17 -9 -21 -12 -7 -24 12 -16 25 9 15 25 12 25 -4z m725
-6 c3 -5 1 -10 -4 -10 -6 0 -11 5 -11 10 0 6 2 10 4 10 3 0 8 -4 11 -10z
m-371 -28 c2 -4 -4 -9 -15 -9 -10 -1 -19 2 -19 8 0 11 27 12 34 1z m111 -22
c3 -5 2 -10 -4 -10 -5 0 -13 5 -16 10 -3 6 -2 10 4 10 5 0 13 -4 16 -10z m150
-30 c3 -5 2 -10 -4 -10 -5 0 -13 5 -16 10 -3 6 -2 10 4 10 5 0 13 -4 16 -10z
m-45 -20 c0 -5 -4 -10 -10 -10 -5 0 -10 5 -10 10 0 6 5 10 10 10 6 0 10 -4 10
-10z m-504 -12 c5 -7 2 -9 -8 -5 -11 4 -18 -2 -23 -16 -4 -14 -8 -17 -12 -9
-5 13 13 42 28 42 4 0 11 -5 15 -12z m104 -3 c7 -9 8 -15 2 -15 -5 0 -12 7
-16 15 -3 8 -4 15 -2 15 2 0 9 -7 16 -15z m-35 -14 c-3 -6 -11 -11 -17 -11 -6
0 -6 6 2 15 14 17 26 13 15 -4z m397 -10 c11 -1 15 -6 11 -16 -4 -13 2 -15 38
-9 24 4 46 7 49 8 3 0 6 -2 8 -6 1 -5 -1 -8 -5 -7 -4 0 -10 -8 -14 -18 -5 -14
-18 -18 -72 -18 -37 -1 -67 3 -67 8 0 4 -5 5 -11 2 -6 -4 -21 3 -35 16 -13 12
-24 17 -24 11 0 -7 -5 -12 -11 -12 -5 0 -7 5 -4 10 3 6 -1 13 -11 17 -32 12
36 30 86 22 25 -4 53 -8 62 -8z m288 -2 c10 -6 -1 -8 -33 -9 -30 0 -46 -4 -42
-10 3 -5 -1 -10 -10 -10 -8 0 -18 7 -21 15 -5 11 -10 13 -19 5 -10 -8 -15 -8
-20 1 -4 6 -1 15 6 20 16 11 116 2 139 -12z m-443 -33 c0 -8 -11 -13 -26 -13
-14 0 -27 -6 -29 -12 -2 -6 -11 -11 -19 -11 -13 0 -13 3 -3 15 11 13 8 15 -21
16 l-34 2 35 7 c60 13 97 11 97 -4z m468 -57 c100 -13 143 -33 58 -27 -28 1
-49 0 -46 -4 2 -5 -12 -8 -31 -8 -22 0 -35 5 -33 12 1 6 -17 16 -40 22 -49 13
-72 32 -28 23 17 -4 71 -11 120 -18z"/>
<path d="M1033 2085 c-6 -7 -10 -15 -7 -18 7 -7 44 4 44 13 0 14 -25 18 -37 5z"/>
<path d="M1350 1924 c0 -17 18 -36 30 -32 7 2 4 10 -9 22 -12 11 -21 15 -21
10z"/>
<path d="M586 654 c-9 -24 -7 -28 9 -14 17 14 20 30 6 30 -5 0 -12 -7 -15 -16z"/>
<path d="M555 591 c-3 -5 -1 -12 5 -16 5 -3 10 1 10 9 0 18 -6 21 -15 7z"/>
</g>
</svg>
