<?xml version="1.0" standalone="no"?>
<!DOCTYPE svg PUBLIC "-//W3C//DTD SVG 20010904//EN"
 "http://www.w3.org/TR/2001/REC-SVG-20010904/DTD/svg10.dtd">
<svg version="1.0" xmlns="http://www.w3.org/2000/svg"
 width="700.000000pt" height="450.000000pt" viewBox="0 0 700.000000 450.000000"
 preserveAspectRatio="xMidYMid meet">
<metadata>
Created by potrace 1.16, written by Peter Selinger 2001-2019
</metadata>
<g transform="translate(0.000000,450.000000) scale(0.100000,-0.100000)"
fill="#000000" stroke="none">
<path d="M3830 4287 c0 -78 -20 -166 -87 -385 -14 -45 -31 -89 -39 -96 -12
-12 -11 -18 5 -38 14 -16 23 -20 30 -13 29 29 130 512 116 556 -11 34 -25 20
-25 -24z"/>
<path d="M3920 4268 c0 -110 -103 -465 -146 -505 l-23 -22 48 -29 c63 -39 79
-31 64 32 -6 29 -7 49 -1 52 5 3 7 12 4 20 -3 7 -1 16 4 19 6 4 10 17 10 30 0
13 5 27 11 31 6 3 9 15 6 25 -3 12 0 19 10 19 9 0 13 8 12 23 -2 12 2 32 9 44
7 12 12 31 12 42 0 12 5 21 11 21 6 0 9 9 6 19 -3 11 2 29 10 41 8 11 12 27 9
35 -3 8 -1 17 3 20 5 3 12 33 16 66 8 68 2 79 -47 79 -28 0 -28 -1 -28 -62z"/>
<path d="M3467 4263 c-2 -5 0 -91 5 -193 9 -172 7 -335 -3 -370 -2 -9 4 -16
17 -18 18 -3 23 3 28 41 7 43 -4 220 -25 402 -5 49 -7 102 -4 117 6 25 -7 40
-18 21z"/>
<path d="M3550 4214 c0 -54 6 -147 29 -424 5 -52 4 -99 0 -104 -17 -19 -9 -32
27 -45 33 -12 39 -11 63 8 14 12 36 26 49 31 28 12 28 22 -4 59 -14 17 -30 43
-35 58 -7 23 -8 21 -5 -17 2 -25 7 -53 11 -62 5 -13 2 -18 -9 -18 -13 0 -15
19 -13 148 1 147 -17 390 -31 403 -4 4 -24 11 -44 14 l-38 7 0 -58z"/>
<path d="M3116 4043 c7 -55 36 -153 45 -153 9 0 0 40 -12 56 -5 6 -12 39 -15
73 -4 33 -10 61 -15 61 -4 0 -6 -17 -3 -37z"/>
<path d="M3195 4070 c-5 -8 12 -100 30 -165 9 -33 20 -75 25 -93 4 -18 13 -39
20 -47 6 -8 9 -19 6 -24 -4 -5 -2 -12 3 -15 5 -3 12 -22 15 -41 9 -49 66 -103
66 -63 0 6 7 20 16 29 13 14 21 16 36 8 30 -16 50 7 23 27 -11 8 -28 21 -37
29 -21 17 -64 151 -87 270 l-18 90 -47 0 c-26 0 -49 -2 -51 -5z"/>
<path d="M3171 3842 c0 -18 -5 -31 -9 -28 -5 3 -9 -1 -9 -9 0 -8 4 -15 8 -15
12 0 22 44 16 67 -3 10 -5 3 -6 -15z"/>
<path d="M3146 3847 c3 -10 9 -15 12 -12 3 3 0 11 -7 18 -10 9 -11 8 -5 -6z"/>
<path d="M3179 3771 c-15 -5 -13 -17 14 -108 27 -88 33 -99 44 -85 11 15 12
14 13 -10 0 -28 13 -37 25 -18 9 14 -25 61 -39 53 -8 -4 -8 -3 0 6 7 7 9 22 6
33 -4 15 -7 17 -14 6 -7 -9 -8 -3 -4 18 4 26 -12 96 -25 108 -2 2 -11 1 -20
-3z"/>
<path d="M3775 3607 c-22 -5 -48 -13 -57 -18 -10 -5 -23 -9 -30 -9 -19 0 -169
-67 -189 -84 -9 -7 -27 -17 -39 -21 -12 -4 -30 -13 -39 -20 -9 -8 -27 -22 -40
-32 -26 -21 -47 -70 -92 -223 -6 -19 -19 -53 -29 -75 -9 -22 -25 -76 -35 -120
-10 -44 -27 -114 -37 -155 -11 -41 -22 -92 -25 -113 -4 -32 -9 -38 -26 -35
-12 2 -31 18 -42 36 -15 24 -26 31 -43 28 -13 -2 -26 3 -31 12 -5 9 -16 17
-25 18 -14 2 -16 -10 -16 -82 0 -83 -1 -84 -36 -121 l-36 -38 5 -87 c5 -91 -1
-108 -38 -108 -12 0 -25 -4 -30 -9 -6 -5 -19 -12 -30 -15 -11 -3 -2 -3 20 -1
33 3 37 2 24 -8 -9 -7 -24 -28 -34 -47 -10 -19 -35 -53 -56 -75 -21 -22 -55
-59 -76 -83 -47 -55 -129 -99 -155 -83 -14 9 -18 8 -19 -1 -1 -15 -19 48 -22
77 -2 15 5 21 26 23 28 3 33 11 18 28 -15 15 -18 206 -4 211 12 4 16 -2 29
-45 8 -26 34 15 34 53 0 32 3 37 20 32 15 -4 24 3 36 28 16 35 43 53 53 36 12
-18 32 5 36 41 4 25 0 39 -13 50 -40 34 -142 43 -142 12 0 -7 -6 -17 -13 -21
-8 -4 -16 -16 -20 -25 -3 -10 -13 -18 -20 -18 -8 0 -21 -15 -28 -32 -7 -18
-21 -39 -31 -46 -19 -14 -25 -67 -8 -77 6 -3 7 -17 4 -30 -4 -16 1 -37 15 -61
16 -26 20 -45 16 -65 -7 -31 -20 -38 -28 -15 -3 7 -15 16 -26 19 -27 7 -28
-21 -2 -54 11 -14 22 -50 26 -82 7 -51 5 -61 -13 -80 -14 -14 -22 -38 -23 -67
-1 -27 -9 -52 -20 -62 -15 -14 -15 -22 -6 -43 l12 -25 3 25 c2 14 8 23 13 19
5 -3 6 -10 3 -16 -4 -7 0 -7 13 0 16 9 19 7 21 -13 1 -13 -3 -27 -8 -30 -17
-11 -12 -35 6 -28 13 5 15 2 9 -18 -10 -35 -34 -57 -43 -42 -6 9 -11 7 -20 -7
-10 -16 -10 -20 0 -20 7 0 22 -3 33 -6 16 -4 23 1 32 23 11 28 11 28 7 -7 -4
-33 -3 -32 11 9 8 25 20 48 26 52 6 4 8 12 5 18 -4 6 -12 9 -17 6 -5 -4 -9 -2
-9 3 0 6 7 13 16 16 10 4 13 2 8 -6 -5 -7 -3 -8 5 -4 7 5 10 14 7 21 -3 9 22
63 39 83 1 1 9 0 18 -4 13 -4 14 -11 6 -32 l-9 -27 20 25 c11 14 31 48 45 75
16 34 54 77 115 133 91 82 116 97 106 65 -15 -51 -17 -74 -9 -104 13 -50 5
-76 -26 -89 -15 -6 -48 -31 -72 -56 l-44 -45 0 -157 c0 -132 3 -164 18 -199
15 -33 17 -51 10 -93 -4 -30 -13 -55 -20 -57 -7 -3 -23 17 -37 44 -13 27 -35
54 -48 61 -42 23 -46 39 -33 147 7 55 16 121 20 148 6 38 5 47 -8 47 -24 0
-35 -22 -67 -129 -27 -89 -38 -187 -21 -176 3 1 7 -27 9 -64 3 -68 5 -73 84
-188 34 -50 37 -68 7 -53 -20 11 -20 11 -3 -16 15 -21 15 -26 4 -22 -8 2 -23
20 -32 38 -19 36 -48 46 -60 20 -5 -11 -7 -8 -7 8 -1 19 3 22 19 17 25 -8 25
-1 -1 42 -12 18 -25 63 -29 99 -5 38 -15 73 -25 84 -10 11 -18 32 -18 47 0 15
-2 22 -4 15 -3 -6 -9 -10 -14 -6 -12 7 -12 44 1 44 17 0 11 46 -8 71 -13 15
-21 19 -26 11 -4 -7 -5 -12 -2 -12 3 0 1 -11 -4 -24 -6 -18 -5 -28 6 -36 10
-9 14 -36 14 -104 0 -105 12 -137 31 -91 l13 30 5 -35 4 -35 8 30 c7 24 8 22
4 -14 -2 -28 0 -40 5 -31 6 10 8 4 8 -18 -1 -18 -5 -32 -10 -32 -6 0 -6 -24
-2 -57 6 -51 5 -56 -9 -42 -8 9 -17 24 -20 35 -3 13 -5 9 -6 -11 -1 -42 9 -76
22 -68 6 3 7 1 3 -5 -4 -7 2 -33 13 -58 12 -26 21 -53 21 -60 0 -8 11 -31 24
-52 13 -20 42 -68 64 -107 58 -100 98 -143 262 -280 172 -143 310 -241 418
-296 42 -22 68 -38 57 -34 -16 5 -18 4 -7 -7 9 -9 46 -13 125 -13 112 0 112 0
186 40 92 50 214 163 285 264 90 127 206 319 203 333 -2 7 -2 9 1 5 2 -5 15
10 29 32 13 23 21 46 17 53 -5 7 -3 8 6 3 10 -6 12 -4 7 9 -4 10 -3 15 3 11
10 -6 14 7 11 34 -2 8 3 10 11 6 10 -6 11 -5 1 6 -7 7 -13 28 -13 46 0 37 -18
44 -38 13 -10 -16 -16 -18 -36 -9 -21 10 -23 15 -15 43 5 17 9 46 9 63 0 26 4
33 20 33 11 0 20 5 20 10 0 6 11 10 25 10 18 0 25 -5 25 -20 0 -11 5 -20 10
-20 12 0 13 -27 1 -32 -5 -1 -2 -10 7 -18 14 -13 15 -12 9 3 -3 9 -2 17 3 17
5 0 12 17 15 38 3 20 12 57 20 82 38 121 82 445 70 516 -4 22 -16 68 -27 104
-10 36 -22 76 -26 90 -5 17 -19 29 -41 36 -18 6 -41 20 -50 32 -13 18 -22 21
-55 15 -31 -5 -38 -3 -34 8 2 8 14 19 26 25 25 12 17 26 -26 43 -32 13 -77 59
-68 69 3 2 35 -12 71 -32 62 -34 118 -46 129 -28 3 5 2 22 -3 38 -6 23 -14 30
-42 34 -19 3 -51 14 -71 24 l-37 19 20 34 21 33 -21 0 c-11 0 -23 -4 -26 -10
-11 -17 -38 -12 -31 6 8 21 -24 74 -41 67 -7 -3 -13 -16 -13 -30 0 -40 -25
-21 -27 21 -2 30 2 39 20 46 21 8 21 9 -5 9 -24 1 -28 5 -28 29 0 27 20 70 20
45 0 -7 6 -13 13 -13 19 0 49 -35 40 -46 -5 -5 -4 -6 1 -1 5 4 17 0 26 -8 10
-9 24 -15 31 -13 8 2 15 -10 19 -32 5 -30 7 -32 13 -14 10 27 -19 103 -46 125
-30 24 -27 102 5 133 46 45 92 44 63 -1 -18 -27 -28 -140 -13 -149 4 -3 8 2 8
10 0 9 4 16 9 16 5 0 16 3 25 6 10 4 16 1 16 -9 0 -14 3 -14 28 -1 15 7 37 14
50 14 35 0 62 34 59 76 -2 34 -5 38 -44 52 -24 7 -43 19 -43 27 0 18 55 38 89
32 37 -8 60 10 77 58 14 41 11 55 -11 55 -8 0 -26 5 -40 10 -26 10 -26 11 -8
28 10 9 13 13 6 8 -16 -11 -43 10 -42 33 0 10 2 11 6 4 9 -23 61 -15 88 15 35
36 62 81 70 115 6 22 4 27 -12 27 -10 0 -24 -4 -31 -10 -9 -7 -9 -7 -2 2 19
22 10 25 -33 11 -41 -14 -45 -13 -122 23 -91 41 -172 48 -239 20 -21 -9 -47
-16 -57 -16 -11 0 -19 -3 -19 -8 0 -10 -73 -32 -105 -32 -41 0 -89 -25 -104
-53 -11 -20 -22 -27 -43 -27 l-29 0 20 -26 c26 -33 26 -41 0 -49 -15 -5 -20
-13 -17 -30 3 -15 1 -22 -7 -19 -26 10 -49 -61 -46 -144 1 -23 -6 -58 -14 -78
-8 -20 -15 -45 -15 -54 0 -24 -47 -80 -67 -80 -26 0 -9 -32 27 -51 19 -11 48
-19 65 -19 16 0 46 -10 65 -23 l35 -22 -48 -3 c-34 -2 -60 3 -87 17 -30 16
-50 19 -95 14 -36 -4 -54 -10 -52 -17 3 -7 -14 -20 -38 -29 -36 -15 -41 -21
-37 -43 2 -13 -2 -32 -9 -42 -24 -30 -39 -61 -39 -83 0 -12 -8 -23 -19 -26
-11 -3 -17 -11 -15 -18 4 -8 -8 -17 -33 -25 -21 -6 -44 -13 -50 -15 -10 -3
-10 -11 -3 -31 9 -22 8 -25 -5 -20 -12 4 -14 0 -9 -19 8 -32 -6 -32 -36 0 -13
14 -30 25 -38 25 -9 0 -12 -3 -9 -7 9 -9 -49 -43 -73 -43 -10 0 -28 -13 -40
-30 -14 -20 -28 -29 -43 -27 -20 2 -22 -2 -22 -50 1 -44 5 -55 28 -73 15 -12
27 -31 27 -42 0 -17 -4 -19 -25 -14 -26 7 -26 6 -9 -19 14 -22 15 -25 1 -25
-9 0 -17 -11 -19 -27 -2 -16 -10 -27 -21 -29 -15 -2 -17 2 -12 28 14 64 -15
16 -39 -66 -28 -91 -33 -155 -14 -189 6 -12 12 -52 13 -89 2 -76 7 -84 85
-120 30 -14 65 -35 77 -47 l22 -21 16 29 c8 17 15 39 15 50 0 11 5 23 11 27
18 10 5 170 -14 192 -15 16 -14 19 13 31 34 14 50 8 50 -19 0 -11 9 -39 19
-62 25 -55 58 -277 43 -287 -6 -3 -14 -31 -18 -61 -4 -30 -9 -49 -11 -42 -7
19 -25 14 -62 -18 -45 -40 -101 -43 -101 -6 0 14 7 31 15 40 13 13 10 18 -32
43 -64 38 -137 116 -179 190 -29 52 -34 69 -28 98 6 31 24 50 24 25 0 -5 9
-10 20 -10 24 0 26 22 4 41 -13 11 -15 27 -9 100 7 88 -1 132 -16 93 -4 -10
-8 -36 -8 -56 -1 -20 -6 -49 -12 -65 l-12 -28 -8 30 c-5 16 -6 39 -3 52 4 14
2 23 -5 23 -6 0 -11 15 -11 34 0 39 26 106 41 106 5 0 8 4 5 9 -3 5 2 8 11 7
21 -1 24 34 6 49 -24 19 21 126 46 110 6 -3 11 -28 11 -54 0 -43 12 -71 32
-71 13 0 9 20 -8 37 -12 12 -14 27 -9 62 10 70 11 138 3 228 -7 80 -7 82 22
118 17 21 30 45 30 54 0 9 8 28 17 41 10 14 18 29 18 35 1 19 40 95 48 95 19
0 83 36 108 60 14 14 44 36 67 50 40 23 59 49 27 36 -8 -3 -15 -4 -15 -2 0 7
84 45 89 41 9 -10 -29 -74 -54 -91 -24 -16 -33 -34 -17 -34 5 0 18 9 30 20 15
14 29 18 49 14 19 -4 49 4 94 25 60 27 68 35 82 73 9 24 28 75 42 113 14 39
35 106 46 150 11 44 24 85 29 90 4 6 13 26 19 46 6 20 41 70 76 110 36 41 68
85 71 98 4 13 2 48 -3 77 -5 30 -6 54 -2 54 4 0 11 -20 14 -44 8 -50 35 -73
32 -28 -3 44 25 32 41 -17 11 -32 12 -45 3 -51 -9 -5 -8 -10 3 -19 12 -10 38
-11 103 -5 49 4 126 8 173 9 77 1 85 3 86 21 0 10 -4 25 -9 31 -5 7 -7 29 -5
48 3 23 1 32 -6 25 -23 -23 -27 0 -10 58 9 30 -4 28 -16 -3 -11 -30 -26 -32
-33 -5 -3 11 -2 18 3 15 12 -7 10 66 -2 91 -7 14 -16 20 -29 17 -12 -3 -19 0
-19 8 0 8 -5 21 -10 29 -8 13 -11 12 -25 -5 -16 -20 -16 -20 -14 0 3 39 -1 44
-53 71 -43 22 -67 28 -128 29 -41 0 -93 -3 -115 -8z m81 -245 c-11 -10 -15 4
-8 28 l7 25 3 -23 c2 -13 1 -26 -2 -30z m427 -340 c20 -2 37 -7 37 -13 0 -5
11 -9 25 -9 18 0 25 -5 25 -20 0 -32 -29 -40 -64 -19 -17 10 -43 19 -57 19
-28 0 -39 16 -39 54 0 33 12 39 24 13 8 -16 22 -23 49 -25z m136 -52 c-18 -22
-35 -38 -37 -35 -5 5 57 75 65 75 2 0 -11 -18 -28 -40z m-359 -40 c0 -5 -4
-10 -10 -10 -5 0 -10 5 -10 10 0 6 5 10 10 10 6 0 10 -4 10 -10z m-60 -55 c0
-8 -7 -15 -15 -15 -8 0 -15 -4 -15 -9 0 -5 -6 -16 -13 -23 -39 -40 -63 -85
-60 -113 1 -16 5 -115 7 -220 4 -180 3 -182 -4 -45 -7 145 -13 180 -32 180 -6
0 -9 23 -6 59 3 44 11 68 31 94 15 20 27 40 27 45 0 16 44 51 78 61 1 1 2 -6
2 -14z m313 -52 c-7 -2 -21 -2 -30 0 -10 3 -4 5 12 5 17 0 24 -2 18 -5z m-270
-176 c-3 -4 -11 -3 -19 4 -7 6 -11 15 -8 20 3 5 11 3 18 -4 8 -6 12 -16 9 -20z
m15 -80 c18 -12 14 -41 -8 -55 -17 -10 -21 -10 -25 3 -3 8 -7 22 -10 31 -9 30
12 40 43 21z m289 -3 c-3 -3 -12 -4 -19 -1 -8 3 -5 6 6 6 11 1 17 -2 13 -5z
m-1152 -39 c-39 -24 -90 -38 -55 -15 13 8 12 10 -3 10 -10 0 -15 5 -12 10 3 6
18 8 33 5 15 -2 34 0 42 5 8 5 20 10 25 10 6 -1 -8 -12 -30 -25z m-214 -241
c-12 -15 -21 -34 -21 -44 0 -9 -10 -22 -22 -27 -13 -6 -61 -46 -108 -88 -82
-75 -217 -172 -226 -162 -3 2 27 23 65 46 38 23 103 74 145 112 41 39 87 80
101 91 14 11 33 34 42 51 14 28 30 46 41 47 2 0 -6 -12 -17 -26z m939 -25 c0
-25 74 -119 111 -142 25 -16 35 -18 49 -9 14 9 19 8 24 -3 3 -8 16 -15 28 -15
22 -1 22 -1 4 -15 -10 -7 -15 -18 -11 -24 3 -6 1 -19 -4 -28 -9 -16 -10 -15
-11 7 -1 22 -2 23 -11 7 -7 -12 -17 -15 -35 -11 -13 3 -24 2 -24 -2 -1 -5 -15
-25 -32 -44 -24 -28 -28 -30 -19 -10 l12 25 -20 -24 c-22 -25 -28 -47 -10 -36
6 4 0 -13 -12 -36 -27 -55 -51 -151 -39 -163 5 -5 25 17 47 51 21 34 43 69 50
79 21 34 15 -25 -8 -76 -26 -57 -54 -87 -89 -95 -15 -3 -46 -22 -68 -41 -22
-18 -47 -34 -56 -34 -8 0 -32 -14 -51 -32 -20 -17 -53 -34 -73 -37 -36 -6 -37
-6 -35 -53 1 -26 7 -56 13 -67 17 -33 12 -85 -10 -99 -23 -14 -74 -121 -83
-175 l-6 -37 25 29 c13 16 24 34 24 41 0 6 4 9 8 6 5 -3 15 10 22 29 8 19 17
35 22 35 4 0 8 7 8 15 0 8 14 27 30 42 40 35 104 155 120 224 15 63 46 119 66
119 18 0 18 -15 0 -33 -17 -17 -23 -48 -13 -64 6 -10 -55 -147 -104 -237 -6
-10 -17 -42 -24 -71 -15 -54 -132 -261 -121 -212 4 15 2 27 -4 27 -14 0 -38
-40 -44 -75 -5 -29 -60 -94 -71 -83 -3 3 8 27 24 54 17 26 29 50 26 52 -3 3
-6 3 -8 1 -2 -2 -18 -23 -35 -45 -34 -44 -39 -60 -21 -66 14 -5 0 -38 -17 -38
-8 0 -14 5 -14 10 0 26 -53 6 -106 -40 -32 -28 -62 -49 -68 -47 -27 9 -14 45
33 94 64 67 75 112 38 151 -13 15 -27 38 -30 52 -4 14 -14 54 -22 90 -10 39
-19 131 -22 229 -6 162 -5 163 15 152 20 -11 82 -102 82 -121 0 -6 4 -10 8
-10 4 0 16 -14 25 -30 14 -23 20 -65 26 -168 4 -75 9 -121 10 -101 0 20 13 63
27 94 25 54 26 65 21 154 -7 106 9 221 30 221 7 0 13 -6 13 -14 0 -16 32 -17
108 -4 61 11 60 -1 19 133 -31 103 -43 164 -28 149 12 -11 64 -157 76 -211 8
-39 12 -40 62 -11 50 29 67 53 74 108 15 102 50 198 81 220 4 3 -10 39 -32 80
-22 41 -39 85 -40 98 0 27 24 39 44 23 16 -14 76 -130 76 -149 0 -24 21 -12
35 21 13 30 12 33 -8 49 -12 10 -17 18 -12 18 6 0 -1 6 -15 13 -14 7 -25 18
-25 26 0 7 -9 19 -20 27 -11 9 -20 27 -20 42 0 23 -5 27 -38 33 -42 7 -52 13
-42 28 8 15 48 14 63 -1 9 -9 12 -8 12 8 0 16 2 17 10 4 5 -8 10 -22 10 -31z
m-293 -236 c-3 -10 -5 -4 -5 12 0 17 2 24 5 18 2 -7 2 -21 0 -30z m-514 -185
c9 -57 17 -128 16 -158 l-1 -55 -9 39 c-11 45 -48 116 -62 116 -5 0 -19 8 -30
18 -18 14 -21 24 -17 62 4 39 9 47 40 62 19 9 37 17 40 18 3 0 13 -46 23 -102z
m-528 52 c-3 -5 -16 -15 -28 -21 -22 -12 -22 -12 -3 10 19 21 43 30 31 11z
m226 -157 c7 -7 6 -14 -2 -19 -8 -4 -9 -3 -5 4 4 7 2 12 -3 12 -6 0 -10 17
-10 38 2 34 2 34 6 7 3 -16 9 -35 14 -42z m-199 -105 c-3 -56 -9 -91 -20 -108
-10 -14 -20 -32 -24 -40 -11 -24 -9 66 2 95 5 14 12 39 15 55 5 30 22 80 27
80 2 0 2 -37 0 -82z m178 52 c-6 -11 -13 -20 -16 -20 -2 0 0 9 6 20 6 11 13
20 16 20 2 0 0 -9 -6 -20z m265 -70 c9 -28 15 -56 12 -63 -6 -18 -47 67 -47
98 0 38 16 22 35 -35z m93 -15 c-3 -3 -9 2 -12 12 -6 14 -5 15 5 6 7 -7 10
-15 7 -18z m-206 -47 c-15 -15 -26 -4 -18 18 5 13 9 15 18 6 9 -9 9 -15 0 -24z
m798 -46 c0 -42 -21 -79 -38 -68 -6 3 -8 16 -5 29 3 12 7 34 10 50 8 42 33 34
33 -11z m-840 -5 c0 -18 4 -37 9 -42 10 -11 53 -125 47 -125 -4 0 -38 53 -63
99 -15 27 -17 101 -3 101 6 0 10 -15 10 -33z m128 -39 c19 -19 14 -30 -8 -18
-11 6 -20 15 -20 20 0 14 14 12 28 -2z m785 -106 c-14 -34 -30 -62 -35 -62
-13 0 -9 18 13 63 45 89 61 88 22 -1z m-736 -418 c-3 -3 -12 -4 -19 -1 -8 3
-5 6 6 6 11 1 17 -2 13 -5z m378 -111 c-9 -20 -26 -51 -39 -68 -13 -17 -31
-48 -40 -68 -34 -82 -50 -19 -17 67 13 34 31 58 57 77 52 37 57 36 39 -8z
m-164 -73 c6 0 5 -8 -1 -20 -18 -34 -60 -19 -46 17 4 9 13 13 22 9 9 -3 20 -6
25 -6z"/>
<path d="M3902 1847 c-17 -20 -12 -40 6 -28 8 5 12 16 10 26 -3 17 -4 17 -16
2z"/>
<path d="M3596 1389 c-8 -41 0 -49 15 -15 9 18 9 30 2 37 -7 7 -12 0 -17 -22z"/>
<path d="M3607 1154 c-25 -31 -48 -67 -50 -78 -5 -20 -5 -20 6 -2 7 10 22 31
35 45 l23 26 -12 -25 -12 -25 24 20 c13 11 34 31 46 45 36 39 28 55 -11 23
-20 -17 -20 -17 -7 0 8 9 11 20 8 23 -3 3 -26 -20 -50 -52z"/>
<path d="M3382 914 c-12 -8 -22 -22 -22 -30 0 -12 4 -12 25 3 44 33 42 59 -3
27z"/>
<path d="M2818 3563 c12 -2 30 -2 40 0 9 3 -1 5 -23 4 -22 0 -30 -2 -17 -4z"/>
<path d="M2750 3558 c0 -4 9 -16 20 -26 17 -16 22 -37 28 -123 9 -141 9 -280
-1 -361 -8 -63 -7 -66 11 -61 19 5 20 13 16 246 -2 155 -7 241 -13 240 -6 -2
-8 4 -5 11 3 8 -8 29 -25 48 -17 18 -31 30 -31 26z"/>
<path d="M2876 3525 c9 -14 13 -25 10 -25 -4 0 1 -12 11 -26 30 -46 28 -388
-3 -468 -4 -9 7 -16 32 -21 l38 -7 -54 -31 c-50 -29 -52 -31 -31 -41 15 -6 25
-6 33 2 8 8 17 7 33 -4 21 -14 23 -13 32 13 6 15 16 60 22 100 17 109 54 207
121 318 17 28 33 58 37 68 3 9 9 17 13 17 4 0 10 9 13 20 13 50 -29 1 -80 -94
l-31 -60 -7 50 c-10 79 -18 110 -23 95 -2 -7 -16 15 -31 50 l-27 64 -62 3 -63
3 17 -26z"/>
<path d="M3174 3362 c-42 -28 -86 -150 -143 -393 -21 -88 -26 -99 -48 -99 -24
0 2 -27 32 -32 21 -5 26 0 35 31 5 20 10 44 10 54 0 22 36 170 52 212 16 43
67 166 80 193 12 24 1 47 -18 34z"/>
<path d="M3840 3203 c0 -6 -7 -13 -16 -15 -14 -3 -14 -5 2 -20 16 -13 21 -14
31 -3 9 10 9 17 -2 31 -8 11 -15 14 -15 7z"/>
<path d="M4255 3180 c-3 -5 -1 -10 4 -10 6 0 11 5 11 10 0 6 -2 10 -4 10 -3 0
-8 -4 -11 -10z"/>
<path d="M2777 2613 c-13 -13 -7 -81 7 -86 30 -12 51 48 27 76 -14 18 -24 21
-34 10z"/>
<path d="M3370 2442 c-52 -4 -66 -10 -52 -24 7 -7 30 -8 66 -4 82 11 69 35
-14 28z"/>
<path d="M3050 2353 c-26 -64 -67 -141 -96 -180 -27 -36 -31 -55 -9 -47 9 4
15 0 15 -7 0 -8 10 1 21 19 12 17 25 32 30 32 5 0 14 20 20 45 10 39 14 44 27
33 13 -11 14 -10 9 13 -4 14 -2 43 4 64 10 37 12 38 25 20 8 -10 17 -16 20
-12 4 4 14 1 22 -6 13 -10 14 -8 7 13 -9 31 -23 46 -53 55 -19 6 -25 0 -42
-42z"/>
<path d="M4064 2378 c-4 -6 -3 -8 3 -5 6 4 16 -6 22 -20 10 -22 14 -24 22 -12
10 16 12 46 3 36 -4 -3 -15 -2 -25 3 -12 7 -20 6 -25 -2z"/>
<path d="M3214 2331 c4 -6 0 -14 -8 -17 -9 -3 -13 -11 -10 -16 4 -6 1 -14 -6
-18 -8 -5 -2 -14 19 -29 26 -19 32 -20 37 -7 7 18 -13 83 -28 92 -7 4 -8 2 -4
-5z"/>
<path d="M3340 2291 c0 -17 15 -19 35 -5 18 13 18 14 -8 14 -15 0 -27 -4 -27
-9z"/>
<path d="M2465 2270 c-3 -5 -1 -10 4 -10 6 0 11 5 11 10 0 6 -2 10 -4 10 -3 0
-8 -4 -11 -10z"/>
<path d="M3117 2250 c-10 -17 -26 -30 -35 -31 -13 0 -12 -2 4 -9 12 -5 25 -13
28 -18 8 -14 41 -4 60 17 15 16 13 20 -12 44 l-28 27 -17 -30z"/>
<path d="M2826 2072 c-3 -5 1 -9 9 -9 8 0 12 4 9 9 -3 4 -7 8 -9 8 -2 0 -6 -4
-9 -8z"/>
<path d="M4260 2051 c8 -5 26 -12 40 -15 24 -7 24 -6 6 8 -11 9 -29 16 -40 16
-17 -1 -18 -2 -6 -9z"/>
<path d="M4350 2032 c0 -5 7 -15 15 -22 8 -7 15 -8 15 -2 0 5 -7 15 -15 22 -8
7 -15 8 -15 2z"/>
<path d="M2958 1996 c-3 -14 -1 -26 4 -26 14 0 22 30 11 41 -7 7 -12 2 -15
-15z"/>
<path d="M2720 1965 c-7 -9 -11 -18 -8 -20 3 -3 11 1 18 10 7 9 11 18 8 20 -3
3 -11 -1 -18 -10z"/>
<path d="M2573 1838 c-20 -26 -26 -41 -15 -34 12 7 36 46 29 46 -3 0 -9 -6
-14 -12z"/>
<path d="M2565 1764 c-15 -25 -25 -47 -23 -49 2 -2 16 18 31 46 35 62 28 65
-8 3z"/>
<path d="M2397 1629 c-11 -19 -14 -36 -9 -46 7 -12 11 -9 21 15 19 46 10 69
-12 31z"/>
<path d="M2815 1650 c3 -5 8 -10 11 -10 2 0 4 5 4 10 0 6 -5 10 -11 10 -5 0
-7 -4 -4 -10z"/>
<path d="M2790 1600 c0 -11 5 -20 10 -20 6 0 10 9 10 20 0 11 -4 20 -10 20 -5
0 -10 -9 -10 -20z"/>
<path d="M2502 1540 c0 -14 2 -19 5 -12 2 6 2 18 0 25 -3 6 -5 1 -5 -13z"/>
<path d="M2401 1504 c0 -11 3 -14 6 -6 3 7 2 16 -1 19 -3 4 -6 -2 -5 -13z"/>
<path d="M2441 1330 c14 -31 19 -36 19 -24 0 6 -7 19 -16 30 -14 18 -14 18 -3
-6z"/>
<path d="M2450 1251 c0 -5 7 -11 14 -14 10 -4 13 -1 9 9 -6 15 -23 19 -23 5z"/>
<path d="M4296 1063 c-6 -14 -5 -15 5 -6 7 7 10 15 7 18 -3 3 -9 -2 -12 -12z"/>
<path d="M4239 1057 c6 -6 11 -19 11 -28 0 -9 7 -20 16 -23 8 -3 13 -2 9 3 -3
5 0 11 6 13 18 6 -1 36 -27 41 -18 3 -22 1 -15 -6z"/>
</g>
</svg>
