<?xml version="1.0" standalone="no"?>
<!DOCTYPE svg PUBLIC "-//W3C//DTD SVG 20010904//EN"
 "http://www.w3.org/TR/2001/REC-SVG-20010904/DTD/svg10.dtd">
<svg version="1.0" xmlns="http://www.w3.org/2000/svg"
 width="266.000000pt" height="189.000000pt" viewBox="0 0 266.000000 189.000000"
 preserveAspectRatio="xMidYMid meet">
<metadata>
Created by potrace 1.16, written by Peter Selinger 2001-2019
</metadata>
<g transform="translate(0.000000,189.000000) scale(0.100000,-0.100000)"
fill="#000000" stroke="none">
<path d="M1974 1715 c63 -29 146 -96 146 -116 0 -16 -77 28 -108 61 -17 19
-32 29 -32 23 0 -7 4 -13 9 -13 5 0 11 -7 15 -15 4 -12 0 -14 -18 -9 -13 3
-43 6 -67 7 -26 1 -59 11 -80 25 -20 12 -40 22 -45 22 -5 0 7 -10 26 -21 l35
-22 -39 -13 c-34 -12 -42 -12 -67 3 -21 12 -25 19 -16 26 8 5 5 6 -8 3 -11 -3
-34 -2 -50 2 -17 5 -41 5 -55 1 -24 -7 -24 -7 -2 -8 28 -1 112 -40 112 -52 0
-12 -37 -11 -60 1 -11 6 -43 15 -71 20 -48 9 -55 8 -109 -21 -50 -27 -62 -39
-85 -86 -30 -65 -44 -64 -22 1 20 59 12 59 -13 1 -19 -44 -40 -60 -40 -29 0 8
-4 13 -9 9 -5 -3 -12 4 -16 15 -7 20 -25 28 -25 10 0 -5 3 -10 8 -10 4 0 12
-10 18 -23 8 -19 7 -23 -8 -23 -10 0 -20 8 -24 18 -3 9 -11 15 -18 12 -8 -3
-28 12 -47 35 -30 38 -105 84 -137 84 -8 0 -24 15 -36 33 -11 19 -28 36 -36
39 -9 4 -7 -2 6 -17 37 -40 38 -48 7 -48 -18 0 -42 13 -67 35 -21 19 -46 35
-55 35 -11 0 -6 -9 17 -28 17 -15 32 -31 32 -35 0 -14 -19 -7 -48 18 -17 14
-39 25 -51 25 -23 0 -26 -1 -119 -48 -35 -18 -68 -29 -74 -26 -7 4 -8 2 -4 -4
3 -6 -21 -42 -54 -81 -66 -76 -96 -102 -66 -56 38 59 51 74 64 75 7 0 10 5 7
10 -4 6 -1 9 6 8 7 -2 13 2 14 7 0 6 4 16 9 24 11 18 -8 8 -44 -23 -13 -12
-19 -14 -12 -5 6 9 8 20 4 24 -4 5 -2 5 4 2 7 -4 18 1 25 9 13 16 64 50 119
82 25 14 25 14 -9 8 -18 -3 -64 -26 -101 -51 -170 -113 -260 -277 -260 -475 0
-310 232 -612 798 -1038 144 -108 190 -130 232 -114 32 13 278 195 396 294
171 145 424 426 424 473 0 10 3 15 7 12 10 -11 75 97 83 138 0 3 8 21 16 40
37 88 43 214 18 335 -16 79 -76 203 -127 266 -41 49 -127 111 -203 145 -88 40
-105 35 -20 -6z m25 -86 c19 -7 36 -22 42 -36 12 -33 11 -46 -3 -36 -13 7 -18
8 -70 11 -15 1 -39 14 -53 30 l-25 27 27 6 c43 10 48 10 82 -2z m-105 -30 l18
-31 -36 5 c-36 5 -66 22 -66 38 0 7 19 13 55 18 6 0 19 -13 29 -30z m-839 -5
c13 -13 14 -19 4 -25 -13 -8 -39 12 -39 30 0 16 16 13 35 -5z m105 -49 c17
-18 20 -24 7 -19 -10 3 -17 1 -17 -5 0 -8 -4 -8 -14 1 -7 7 -11 19 -9 26 3 8
0 10 -10 6 -13 -5 -37 21 -37 41 0 11 55 -23 80 -50z m951 38 c19 -11 29 -26
29 -40 0 -31 -16 -29 -51 6 -47 48 -35 67 22 34z m79 -82 c0 -6 -4 -13 -10
-16 -5 -3 -10 1 -10 9 0 9 5 16 10 16 6 0 10 -4 10 -9z m-901 -148 c5 -21 13
-63 16 -93 4 -30 10 -59 13 -65 4 -5 7 -17 7 -25 1 -8 2 -25 3 -38 1 -13 6
-21 11 -18 5 4 12 0 15 -6 3 -7 4 -1 1 15 -4 20 -1 27 10 27 8 0 16 -8 16 -17
1 -17 2 -17 6 0 3 12 15 17 39 17 20 0 34 5 34 13 0 8 3 8 9 -2 5 -8 16 -11
25 -8 19 7 21 27 4 27 -10 0 -10 2 -1 8 6 4 13 23 16 42 4 34 4 34 5 -7 2 -47
10 -73 23 -73 5 0 9 11 9 25 0 14 5 25 10 25 6 0 10 -11 10 -25 0 -18 5 -25
20 -25 11 0 20 6 20 13 0 8 2 9 8 1 10 -16 112 -17 112 -2 0 9 3 9 12 0 7 -7
22 -12 35 -12 18 0 23 6 24 28 l2 27 4 -28 c5 -35 34 -33 44 3 6 22 7 23 8 4
1 -22 23 -38 35 -27 11 12 6 23 -11 24 -17 1 -17 2 0 6 9 2 18 10 18 16 1 7 3
30 5 52 9 94 19 130 37 133 9 2 17 -2 17 -10 1 -33 28 -180 29 -158 1 14 6 32
11 40 7 10 10 -11 11 -70 1 -47 4 -75 6 -62 2 12 13 27 24 32 17 10 19 7 19
-19 0 -16 4 -32 9 -35 5 -3 7 -15 4 -26 -4 -14 -1 -20 8 -18 9 2 15 -8 17 -25
2 -16 10 -31 18 -34 8 -3 14 -11 14 -19 0 -7 7 -17 15 -22 9 -4 18 -26 22 -48
5 -36 4 -38 -10 -19 -14 19 -15 18 -36 -15 -11 -19 -23 -46 -26 -61 -5 -24
-10 -27 -46 -25 -38 1 -39 0 -39 -34 0 -47 -19 -19 -21 30 0 19 -3 29 -6 21
-5 -11 -7 -11 -14 0 -6 10 -9 5 -10 -16 l-1 -30 -8 30 -7 30 -7 -40 c-16 -82
-23 -100 -38 -103 -11 -2 -18 7 -23 30 -4 18 -13 36 -19 40 -8 6 -7 8 2 8 6 0
12 5 12 11 0 5 -4 8 -9 5 -5 -3 -12 2 -16 12 -6 16 -7 16 -21 -2 -10 -14 -11
-22 -3 -27 7 -4 5 -8 -5 -12 -12 -5 -16 1 -17 26 -1 18 -3 24 -6 15 -2 -10
-12 -18 -21 -19 -14 0 -13 -2 3 -9 19 -8 19 -9 -2 -9 -25 -1 -29 9 -12 26 9 9
5 11 -15 9 -14 -2 -26 1 -26 7 0 13 -93 -2 -102 -16 -6 -9 -8 -9 -8 -1 0 7 -9
14 -20 17 -11 3 -20 1 -20 -5 0 -5 -4 -6 -10 -3 -5 3 -10 1 -10 -6 0 -7 -7 -4
-15 7 -14 18 -14 17 -16 -16 l-2 -35 -6 30 c-6 32 -29 44 -42 23 -7 -10 -9
-10 -9 -1 0 9 -7 10 -27 2 -35 -13 -34 -13 -44 3 -6 8 -9 9 -9 1 0 -11 -71
-10 -91 2 -5 4 -9 -2 -10 -12 0 -14 -2 -15 -7 -3 -3 8 -10 -9 -16 -40 -7 -36
-16 -55 -25 -55 -14 0 -21 20 -36 100 -7 37 -9 38 -15 15 l-8 -25 -1 27 c-1
31 -30 33 -42 2 -7 -18 -8 -18 -8 2 -1 23 -26 40 -36 24 -3 -5 -12 -7 -20 -3
-10 3 -15 -2 -15 -17 0 -11 -4 -18 -10 -15 -5 3 -11 -2 -11 -12 -1 -10 -5 0
-8 22 -4 25 -12 40 -21 41 -8 1 -21 2 -28 3 -7 0 -11 5 -8 10 6 8 -39 21 -75
21 -15 0 -19 -8 -20 -32 l-1 -33 -12 36 c-6 20 -16 34 -22 32 -7 -2 -11 2 -10
9 0 7 -3 13 -9 13 -5 0 -9 -9 -7 -20 2 -17 0 -17 -8 -5 -9 13 -12 12 -26 -5
-8 -11 -20 -20 -27 -20 -15 -1 -36 34 -37 59 0 12 -5 16 -16 12 -8 -3 -12 -2
-9 4 3 6 -1 13 -10 17 -10 3 -20 1 -24 -5 -4 -7 -12 -8 -21 -2 -13 8 -12 10 3
10 27 0 18 31 -13 43 -13 5 -13 6 0 6 14 1 14 13 3 104 -6 56 -13 125 -14 152
-1 28 -6 -56 -9 -185 -4 -129 -11 -248 -16 -265 l-8 -30 -6 35 c-11 61 2 445
16 528 7 35 20 42 28 15 3 -10 15 -83 26 -162 12 -80 25 -152 30 -160 8 -14 9
-14 10 1 0 9 5 20 11 23 12 8 49 -22 49 -39 0 -7 23 -12 55 -14 49 -2 55 0 55
18 0 25 17 26 24 3 2 -10 2 5 0 32 -4 37 -3 46 5 35 6 -8 11 -30 11 -47 0 -18
2 -33 4 -33 2 0 11 -3 20 -6 11 -4 16 0 16 12 0 14 3 15 8 6 10 -16 42 -5 42
14 0 8 9 14 20 14 18 0 20 7 20 62 0 66 10 73 17 11 5 -51 13 -55 14 -7 0 21
3 32 6 24 18 -46 62 -54 64 -12 l2 27 4 -27 c3 -20 10 -28 24 -28 10 0 19 5
19 10 0 14 34 12 49 -2 10 -11 11 -7 5 16 -5 21 -4 27 5 22 8 -5 11 11 11 55
0 74 19 189 31 189 4 0 13 -17 18 -37z m-452 -335 c-3 -7 -5 -2 -5 12 0 14 2
19 5 13 2 -7 2 -19 0 -25z m111 25 c-10 -2 -26 -2 -35 0 -10 3 -2 5 17 5 19 0
27 -2 18 -5z"/>
<path d="M1856 1594 c-5 -14 -4 -15 9 -4 17 14 19 20 6 20 -5 0 -12 -7 -15
-16z"/>
<path d="M1273 1185 c0 -22 2 -30 4 -17 2 12 2 30 0 40 -3 9 -5 -1 -4 -23z"/>
<path d="M1943 1160 c0 -25 2 -35 4 -22 2 12 2 32 0 45 -2 12 -4 2 -4 -23z"/>
<path d="M1683 1132 c-8 -5 -7 -11 2 -19 10 -10 14 -9 19 2 6 17 -5 26 -21 17z"/>
<path d="M1638 1123 c7 -3 16 -2 19 1 4 3 -2 6 -13 5 -11 0 -14 -3 -6 -6z"/>
<path d="M1880 1120 c0 -5 5 -10 10 -10 6 0 10 5 10 10 0 6 -4 10 -10 10 -5 0
-10 -4 -10 -10z"/>
<path d="M1098 1083 c7 -3 16 -2 19 1 4 3 -2 6 -13 5 -11 0 -14 -3 -6 -6z"/>
<path d="M744 966 c3 -12 6 -30 6 -41 1 -18 2 -17 14 5 8 14 12 29 9 34 -4 5
-1 6 5 2 6 -4 24 0 39 8 28 14 27 15 -25 14 -49 -1 -53 -3 -48 -22z"/>
<path d="M690 960 c0 -5 5 -10 11 -10 5 0 7 5 4 10 -3 6 -8 10 -11 10 -2 0 -4
-4 -4 -10z"/>
<path d="M1148 1712 c60 -57 101 -84 123 -80 17 2 6 13 -52 49 -101 63 -109
66 -71 31z"/>
<path d="M813 1723 c9 -2 23 -2 30 0 6 3 -1 5 -18 5 -16 0 -22 -2 -12 -5z"/>
<path d="M1157 1660 c46 -64 90 -87 119 -64 18 15 18 15 -3 11 -26 -6 -76 25
-123 75 -27 28 -26 25 7 -22z"/>
</g>
</svg>
