<?xml version="1.0" standalone="no"?>
<!DOCTYPE svg PUBLIC "-//W3C//DTD SVG 20010904//EN"
 "http://www.w3.org/TR/2001/REC-SVG-20010904/DTD/svg10.dtd">
<svg version="1.0" xmlns="http://www.w3.org/2000/svg"
 width="226.000000pt" height="223.000000pt" viewBox="0 0 226.000000 223.000000"
 preserveAspectRatio="xMidYMid meet">
<metadata>
Created by potrace 1.16, written by Peter Selinger 2001-2019
</metadata>
<g transform="translate(0.000000,223.000000) scale(0.100000,-0.100000)"
fill="#000000" stroke="none">
<path d="M932 1518 c-47 -51 -58 -155 -21 -202 38 -48 90 -25 124 56 20 50 19
96 -5 136 -24 39 -66 44 -98 10z m62 -24 c21 -8 21 -50 0 -58 -32 -12 -57 27
-32 52 14 14 12 14 32 6z"/>
<path d="M1243 1398 c-50 -53 -59 -158 -19 -205 21 -24 27 -26 52 -18 65 23
103 139 68 205 -24 45 -68 53 -101 18z m82 -58 c0 -18 -6 -26 -23 -28 -24 -4
-38 18 -28 44 3 9 15 14 28 12 17 -2 23 -10 23 -28z"/>
<path d="M690 1252 c0 -28 25 -139 46 -206 65 -205 152 -301 290 -322 50 -7
146 16 224 54 92 45 276 192 240 192 -7 0 -21 -7 -31 -16 -35 -31 -175 -115
-229 -136 -75 -30 -208 -32 -265 -3 -98 48 -189 187 -236 363 -12 45 -26 82
-31 82 -4 0 -8 -4 -8 -8z"/>
</g>
</svg>
