<?xml version="1.0" standalone="no"?>
<!DOCTYPE svg PUBLIC "-//W3C//DTD SVG 20010904//EN"
 "http://www.w3.org/TR/2001/REC-SVG-20010904/DTD/svg10.dtd">
<svg version="1.0" xmlns="http://www.w3.org/2000/svg"
 width="360.000000pt" height="354.000000pt" viewBox="0 0 360.000000 354.000000"
 preserveAspectRatio="xMidYMid meet">
<metadata>
Created by potrace 1.16, written by Peter Selinger 2001-2019
</metadata>
<g transform="translate(0.000000,354.000000) scale(0.100000,-0.100000)"
fill="#000000" stroke="none">
<path d="M1497 2420 c-97 -85 -111 -294 -25 -354 65 -46 149 14 184 130 52
173 -52 318 -159 224z m103 -60 c34 -34 17 -80 -30 -80 -51 0 -72 55 -32 88
22 17 39 15 62 -8z"/>
<path d="M2000 2238 c-51 -34 -84 -108 -88 -194 -5 -85 9 -136 45 -164 90 -71
203 50 203 217 0 135 -74 199 -160 141z m105 -74 c19 -20 16 -63 -6 -77 -26
-16 -68 0 -75 29 -12 48 46 83 81 48z"/>
<path d="M1100 1990 c0 -34 54 -273 81 -358 60 -190 170 -357 275 -418 62 -36
156 -64 217 -64 132 1 302 64 466 175 111 75 250 198 238 211 -4 5 -14 4 -21
-1 -337 -245 -566 -325 -755 -266 -200 62 -341 254 -441 600 -20 69 -41 126
-48 129 -7 2 -12 -2 -12 -8z"/>
</g>
</svg>
