<?xml version="1.0" standalone="no"?>
<!DOCTYPE svg PUBLIC "-//W3C//DTD SVG 20010904//EN"
 "http://www.w3.org/TR/2001/REC-SVG-20010904/DTD/svg10.dtd">
<svg version="1.0" xmlns="http://www.w3.org/2000/svg"
 width="300.000000pt" height="168.000000pt" viewBox="0 0 300.000000 168.000000"
 preserveAspectRatio="xMidYMid meet">

<g transform="translate(0.000000,168.000000) scale(0.100000,-0.100000)"
fill="#000000" stroke="none">
<path d="M0 840 l0 -840 1198 1 c658 0 1191 3 1185 6 -22 8 -15 18 22 32 19 7
35 17 35 22 0 5 7 9 15 9 8 0 15 -4 15 -10 0 -5 15 -10 33 -10 71 0 76 -1 79
-23 3 -22 6 -22 211 -25 l207 -3 0 841 0 840 -716 0 -716 0 7 -112 c3 -62 8
-128 11 -145 3 -23 1 -33 -8 -33 -10 0 -13 30 -15 123 -1 67 -6 133 -12 147
-5 14 -10 18 -10 10 -1 -9 -8 -97 -16 -196 -14 -178 -23 -225 -45 -239 -5 -3
-8 -11 -4 -16 8 -14 94 -55 130 -63 27 -6 51 -25 112 -87 8 -8 27 -27 43 -44
16 -16 29 -39 29 -51 0 -13 14 -36 30 -53 24 -23 42 -31 88 -36 37 -5 69 -16
90 -32 27 -20 32 -30 32 -67 0 -23 -4 -46 -10 -52 -7 -7 3 -23 30 -49 22 -21
40 -47 40 -58 0 -15 7 -18 43 -15 36 3 42 0 40 -16 -1 -16 4 -17 36 -12 26 4
47 0 71 -13 19 -11 54 -28 78 -40 35 -16 42 -24 37 -40 -3 -11 -1 -22 5 -26 5
-3 10 -1 10 4 0 6 5 11 11 11 5 0 7 -6 3 -12 -6 -10 -3 -9 8 0 9 7 29 12 45 9
27 -4 27 -5 6 -12 -13 -4 -20 -11 -17 -16 3 -5 13 -5 24 1 13 7 19 6 24 -6 3
-8 14 -14 23 -12 10 2 19 -5 21 -16 3 -15 0 -17 -14 -12 -14 5 -16 4 -8 -4 6
-6 25 -12 43 -15 26 -3 32 -1 27 12 -5 12 -2 14 16 8 13 -4 34 -6 47 -6 13 1
30 -4 37 -10 13 -11 46 -9 142 8 20 3 32 1 32 -6 0 -6 -7 -11 -16 -11 -8 0
-13 -4 -10 -9 4 -5 -17 -14 -44 -20 -63 -14 -69 -14 -50 0 11 8 3 9 -30 5
-125 -15 -243 -18 -236 -7 4 6 0 11 -9 11 -9 0 -14 -4 -11 -9 4 -6 -41 -10
-106 -10 -62 0 -143 -4 -179 -7 -48 -5 -69 -3 -80 7 -20 19 -39 22 -39 5 0 -8
-7 -16 -15 -20 -26 -9 -255 -6 -255 4 0 6 4 10 8 10 4 0 8 22 7 49 l0 48 -29
-10 c-26 -9 -27 -11 -13 -22 10 -7 17 -17 17 -22 0 -14 -38 -24 -46 -12 -3 5
-10 9 -16 9 -7 0 0 -13 15 -28 15 -16 24 -31 20 -35 -9 -10 -314 -7 -338 3
-17 7 -17 9 -2 9 9 1 17 6 17 11 0 18 -88 11 -131 -11 -38 -20 -50 -22 -172
-15 -72 3 -132 8 -134 10 -8 8 -43 112 -43 127 0 13 -16 18 -72 25 -40 5 -83
9 -95 9 -11 1 -27 6 -35 12 -19 14 -58 23 -58 12 0 -5 5 -9 11 -9 5 0 7 -5 4
-10 -4 -6 -12 -4 -21 5 -18 18 -29 19 -56 4 -15 -8 -22 -8 -28 1 -5 8 -9 7
-13 -4 -4 -9 -16 -16 -28 -16 -15 0 -19 -4 -15 -16 3 -9 2 -12 -5 -9 -5 4 -21
0 -34 -9 -13 -9 -31 -13 -39 -10 -26 10 -18 24 13 24 17 0 33 5 36 11 9 13 7
15 -28 23 -19 4 -26 3 -22 -4 3 -5 -1 -10 -9 -10 -8 0 -17 4 -20 8 -2 4 -35 9
-72 10 -38 2 -70 4 -72 6 -1 2 41 7 95 10 162 11 172 13 187 50 16 39 105 90
221 126 88 27 147 66 149 97 0 11 21 36 46 55 48 36 68 74 55 104 -6 17 -9 15
-21 -13 -8 -18 -16 -33 -19 -33 -3 0 -2 64 2 143 8 157 9 222 5 470 -2 160 -3
167 -22 167 -19 0 -20 -7 -20 -137 -1 -105 -4 -143 -15 -157 -23 -31 -28 -12
-16 57 6 35 11 103 11 150 l0 87 -480 0 -480 0 0 -840z m2345 10 c-6 -9 -9 -9
-16 1 -10 17 0 34 13 21 6 -6 7 -16 3 -22z m5 -230 c0 -5 -4 -10 -10 -10 -5 0
-10 5 -10 10 0 6 5 10 10 10 6 0 10 -4 10 -10z m28 -49 c3 -8 -1 -12 -9 -9 -7
2 -15 10 -17 17 -3 8 1 12 9 9 7 -2 15 -10 17 -17z m-1731 -114 c9 -19 8 -24
-3 -24 -7 0 -11 4 -8 9 3 4 -2 8 -10 8 -17 0 -21 12 -9 23 11 12 20 8 30 -16z
m1983 7 c0 -8 4 -12 10 -9 6 3 7 -1 4 -9 -3 -9 -10 -14 -14 -11 -12 7 -19 45
-9 45 5 0 9 -7 9 -16z m-2138 -61 c7 -16 20 -28 28 -28 8 0 35 -5 60 -10 25
-5 55 -7 67 -6 11 1 24 -3 29 -10 5 -9 -9 -11 -62 -6 -38 4 -84 7 -101 7 -28
0 -32 3 -30 21 1 12 -4 24 -12 27 -9 3 -11 0 -6 -8 6 -10 3 -11 -11 -6 -18 8
-41 14 -56 15 -4 1 -5 8 -2 16 4 10 20 15 45 15 32 0 40 -5 51 -27z m38 17 c0
-5 -5 -10 -11 -10 -5 0 -7 5 -4 10 3 6 8 10 11 10 2 0 4 -4 4 -10z m-365 -25
c46 -9 106 -15 132 -15 55 2 133 -9 133 -19 0 -10 -216 8 -294 24 -38 8 -74
20 -80 26 -8 9 -6 10 6 6 10 -4 56 -13 103 -22z m2590 -3 c-8 -8 -25 10 -19
20 4 6 9 5 15 -3 4 -7 6 -15 4 -17z m-2285 -32 c0 -5 -4 -10 -10 -10 -5 0 -10
5 -10 10 0 6 5 10 10 10 6 0 10 -4 10 -10z m337 -26 c-3 -3 -12 -4 -19 -1 -8
3 -5 6 6 6 11 1 17 -2 13 -5z m1933 -108 c0 -3 -4 -8 -10 -11 -5 -3 -10 -1
-10 4 0 6 5 11 10 11 6 0 10 -2 10 -4z m50 -30 c0 -3 -4 -8 -10 -11 -5 -3 -10
-1 -10 4 0 6 5 11 10 11 6 0 10 -2 10 -4z m-119 -24 c15 2 23 -2 22 -9 -2 -7
6 -13 18 -13 11 0 17 -5 14 -10 -4 -6 -11 -8 -16 -5 -5 4 -9 1 -9 -4 0 -11 17
-15 56 -12 11 1 27 -5 34 -13 8 -11 9 -16 1 -16 -6 0 -11 5 -11 10 0 6 -7 10
-15 10 -8 0 -15 -4 -15 -10 0 -5 3 -10 8 -10 4 0 12 -11 19 -25 6 -14 7 -25 2
-25 -5 0 -9 5 -9 10 0 6 -5 10 -11 10 -6 0 -8 -8 -5 -18 6 -16 5 -16 -8 1 -7
9 -22 17 -32 17 -16 0 -17 -2 -4 -10 14 -9 7 -15 -14 -11 -4 1 -14 -6 -22 -16
-12 -16 -12 -16 -7 6 5 21 3 22 -17 16 -12 -4 -20 -3 -17 2 3 5 -7 8 -21 7
-15 -1 -33 4 -41 10 -8 6 -16 10 -18 9 -10 -8 -33 -1 -27 8 4 7 -1 7 -16 -1
-15 -8 -21 -8 -19 -1 7 18 144 108 150 99 3 -6 17 -8 30 -6z m-2421 -33 c0 -6
-4 -7 -10 -4 -5 3 -10 11 -10 16 0 6 5 7 10 4 6 -3 10 -11 10 -16z m-15 -29
c3 -6 -1 -7 -9 -4 -18 7 -21 14 -7 14 6 0 13 -4 16 -10z m2622 4 c-3 -3 -12
-4 -19 -1 -8 3 -5 6 6 6 11 1 17 -2 13 -5z m13 -18 c0 -3 -4 -8 -10 -11 -5 -3
-10 -1 -10 4 0 6 5 11 10 11 6 0 10 -2 10 -4z m40 -12 c0 -2 -7 -4 -15 -4 -8
0 -15 4 -15 10 0 5 7 7 15 4 8 -4 15 -8 15 -10z m-282 -56 c-2 -6 -10 -14 -18
-16 -7 -3 -10 0 -6 6 3 6 0 13 -6 15 -7 3 -2 6 10 6 14 1 22 -4 20 -11z"/>
<path d="M1041 1523 c5 -234 16 -257 18 -35 1 130 -2 192 -10 192 -7 0 -9 -50
-8 -157z"/>
<path d="M1103 1653 c-8 -30 -11 -253 -4 -363 2 -40 0 -64 -6 -63 -12 2 -27
-243 -17 -281 l6 -25 33 25 c24 18 35 22 39 12 3 -7 3 -2 -1 12 -4 14 -6 36
-6 50 1 13 -5 29 -14 35 -11 9 -12 16 -3 40 14 34 27 491 16 549 -8 43 -32 48
-43 9z"/>
<path d="M1270 1598 c0 -153 34 -388 55 -388 10 0 -18 410 -31 453 -13 41 -24
11 -24 -65z"/>
<path d="M1397 1660 c-10 -45 -29 -339 -22 -362 19 -68 39 -82 69 -49 16 17
16 25 6 57 -9 26 -15 32 -21 23 -4 -7 -10 -11 -13 -9 -7 8 -10 170 -2 177 8 8
6 119 -4 158 -7 30 -7 30 -13 5z"/>
<path d="M1440 1557 c0 -106 6 -158 26 -216 20 -59 47 119 37 248 l-6 88 -28
1 -29 1 0 -122z"/>
<path d="M1202 1530 c-20 -192 -32 -354 -32 -434 0 -86 11 -95 64 -53 33 27
42 59 21 77 -12 10 -17 7 -25 -16 -21 -57 -24 -60 -28 -32 -2 15 2 44 8 65 16
57 22 231 13 378 l-9 130 -12 -115z"/>
<path d="M1340 1170 c0 -5 -5 -9 -10 -7 -6 1 -18 -13 -25 -32 -14 -31 -14 -33
3 -26 9 4 27 7 40 6 16 0 26 7 32 25 15 38 13 44 -15 44 -14 0 -25 -4 -25 -10z"/>
<path d="M1590 1110 c12 -8 11 -10 -7 -10 -13 0 -23 -4 -23 -9 0 -5 -2 -15 -5
-23 -3 -7 -1 -19 4 -27 7 -11 15 -11 44 0 32 11 35 15 24 33 -6 12 -10 27 -9
34 2 7 -7 12 -20 12 -19 0 -20 -2 -8 -10z"/>
<path d="M1452 1063 c-6 -2 -10 -9 -7 -13 7 -11 35 -2 35 11 0 10 -8 10 -28 2z"/>
<path d="M1286 1024 c-9 -9 -16 -11 -16 -4 0 6 -5 8 -11 5 -6 -4 -8 -10 -5
-13 3 -3 0 -12 -7 -21 -6 -8 2 -5 20 7 17 12 38 22 46 22 9 0 19 5 22 10 10
16 -32 11 -49 -6z"/>
<path d="M1440 1021 c0 -12 29 -23 42 -15 6 4 5 10 -3 15 -18 11 -39 11 -39 0z"/>
<path d="M1510 975 c-18 -22 -4 -45 27 -45 l28 -1 -30 -16 c-16 -9 -32 -19
-35 -23 -3 -4 -26 -15 -53 -25 -40 -15 -47 -21 -41 -39 3 -12 10 -25 15 -30
17 -18 9 -33 -16 -33 -14 0 -25 5 -24 11 5 45 -3 64 -31 76 -16 7 -30 16 -30
20 0 4 -9 10 -19 13 -13 3 -18 0 -15 -8 5 -12 -24 -25 -59 -25 -10 0 -30 11
-45 25 -25 24 -28 24 -40 8 -27 -38 -42 -53 -54 -53 -7 0 -6 5 4 13 8 6 21 27
27 46 l11 35 -23 -22 c-13 -12 -28 -22 -34 -22 -15 0 -43 -34 -43 -52 0 -9 -7
-19 -16 -22 -8 -3 -12 -10 -9 -16 3 -5 0 -7 -8 -4 -8 3 -17 -3 -21 -13 -4 -10
-3 -19 3 -21 5 -2 7 -10 4 -18 -3 -7 -8 -12 -12 -10 -3 2 -13 -3 -21 -12 -13
-14 -12 -15 5 -7 11 4 34 10 50 12 l30 5 -37 -37 c-29 -28 -38 -44 -38 -71 0
-19 2 -34 4 -34 1 0 17 22 34 50 17 27 26 50 20 50 -15 0 -1 13 17 16 8 1 29
9 46 18 18 9 35 16 38 16 8 0 5 -89 -3 -97 -3 -3 -6 -1 -6 6 0 7 -5 9 -10 6
-6 -4 -10 -3 -9 2 7 42 -5 39 -37 -8 -20 -30 -38 -62 -40 -72 -6 -32 56 -44
191 -35 39 2 50 7 53 22 3 12 0 16 -8 11 -19 -12 -73 53 -66 79 3 12 6 27 6
34 0 27 18 1 23 -35 5 -27 14 -43 34 -54 l27 -17 44 54 c24 30 51 54 58 54 18
0 18 -5 0 -33 -8 -12 -16 -41 -17 -64 -2 -23 -7 -40 -11 -37 -5 3 -6 9 -3 14
3 4 -2 11 -11 14 -9 4 -17 5 -18 4 -47 -102 -58 -116 -68 -86 -4 10 -11 10
-33 0 -16 -8 -61 -13 -104 -12 -124 2 -121 3 -121 -26 0 -14 9 -45 20 -68 15
-34 26 -45 51 -50 46 -9 52 -8 46 9 -5 12 -2 12 18 3 21 -9 27 -8 42 10 16 20
100 55 163 69 14 3 30 12 37 20 6 8 16 12 22 8 6 -3 11 -2 11 3 0 6 10 8 23 5
l22 -6 -21 24 c-11 13 -28 36 -38 52 -15 24 -15 28 -1 33 13 6 54 -29 55 -47
0 -4 12 -15 28 -25 21 -15 47 -19 117 -20 50 0 109 -4 132 -8 57 -11 78 -3 61
24 -7 11 -18 20 -25 20 -7 0 -13 4 -13 9 0 5 -46 32 -102 61 -62 31 -122 70
-150 97 -44 43 -54 71 -22 59 17 -7 18 6 2 22 -24 24 5 11 48 -22 43 -33 110
-63 120 -54 2 3 -13 24 -33 48 -41 47 -47 66 -32 89 9 14 10 14 6 1 -3 -10 2
-16 13 -16 15 0 16 4 8 19 -5 10 -7 21 -4 24 3 3 0 15 -6 27 -10 19 -10 20 6
7 9 -8 24 -30 32 -50 16 -38 30 -51 57 -51 26 0 21 20 -5 21 -13 0 -17 3 -10
6 6 2 10 8 7 13 -3 4 9 13 25 20 37 15 38 29 2 63 -31 30 -68 37 -58 12 7 -20
-9 -19 -45 2 -16 10 -31 29 -34 45 -7 31 -34 38 -55 13z m-450 -214 c0 -5 -7
-11 -15 -15 -9 -3 -15 0 -15 9 0 8 7 15 15 15 8 0 15 -4 15 -9z m117 -28 c-3
-10 -5 -4 -5 12 0 17 2 24 5 18 2 -7 2 -21 0 -30z m193 -222 c19 -16 32 -32
28 -36 -7 -8 -88 44 -88 56 0 17 26 9 60 -20z m-177 -48 c-13 -2 -33 -2 -45 0
-13 2 -3 4 22 4 25 0 35 -2 23 -4z"/>
<path d="M1955 814 c14 -15 25 -36 26 -48 0 -21 0 -21 11 1 13 28 -13 73 -42
73 -17 0 -17 -2 5 -26z"/>
<path d="M1731 777 c-22 -51 -21 -61 8 -76 15 -9 17 -5 18 31 0 22 6 44 12 47
8 5 7 13 -3 27 -14 18 -16 16 -35 -29z"/>
<path d="M910 651 c-12 -24 -13 -31 -1 -31 5 0 11 11 13 25 6 30 2 32 -12 6z"/>
<path d="M1815 586 c10 -14 19 -26 22 -26 7 0 -17 39 -28 46 -6 3 -3 -5 6 -20z"/>
<path d="M621 549 c-11 -19 -10 -20 11 -14 13 4 26 11 31 16 4 5 4 7 1 4 -4
-3 -12 -1 -18 5 -8 6 -16 2 -25 -11z"/>
<path d="M695 560 c-3 -5 -1 -10 4 -10 6 0 11 5 11 10 0 6 -2 10 -4 10 -3 0
-8 -4 -11 -10z"/>
<path d="M740 558 c0 -4 4 -8 9 -8 6 0 12 4 15 8 3 5 -1 9 -9 9 -8 0 -15 -4
-15 -9z"/>
<path d="M843 540 c11 -29 42 -47 67 -38 14 5 -42 68 -62 68 -14 0 -15 -4 -5
-30z"/>
<path d="M786 541 c-4 -5 -2 -12 3 -15 5 -4 12 -2 15 3 4 5 2 12 -3 15 -5 4
-12 2 -15 -3z"/>
<path d="M950 505 c0 -8 4 -15 10 -15 5 0 7 7 4 15 -4 8 -8 15 -10 15 -2 0 -4
-7 -4 -15z"/>
<path d="M1870 411 c0 -45 16 -55 26 -16 4 16 0 30 -10 40 -15 15 -16 13 -16
-24z"/>
<path d="M2114 439 c-3 -6 -15 -9 -25 -6 -11 3 -19 1 -19 -4 0 -15 47 -10 60
6 8 9 9 15 2 15 -6 0 -14 -5 -18 -11z"/>
<path d="M2141 398 c-1 -26 16 -31 45 -11 29 19 17 31 -15 14 -14 -8 -21 -8
-24 2 -3 7 -6 5 -6 -5z"/>
<path d="M2012 389 c-23 -9 -52 -33 -52 -43 0 -3 11 -6 25 -6 15 0 25 6 25 14
0 16 27 29 41 20 5 -3 9 -1 9 4 0 15 -23 20 -48 11z"/>
<path d="M2375 384 l-30 -12 44 0 c26 0 47 -5 52 -13 4 -7 11 -11 14 -7 3 3
-6 15 -22 25 -25 18 -32 18 -58 7z"/>
<path d="M2653 373 c9 -2 23 -2 30 0 6 3 -1 5 -18 5 -16 0 -22 -2 -12 -5z"/>
<path d="M2578 363 c6 -2 18 -2 25 0 6 3 1 5 -13 5 -14 0 -19 -2 -12 -5z"/>
<path d="M2524 28 c-3 -4 6 -8 20 -8 14 0 26 4 26 8 0 4 -9 8 -21 8 -11 0 -23
-4 -25 -8z"/>
</g>
</svg>
