<?xml version="1.0" standalone="no"?>
<!DOCTYPE svg PUBLIC "-//W3C//DTD SVG 20010904//EN"
 "http://www.w3.org/TR/2001/REC-SVG-20010904/DTD/svg10.dtd">
<svg version="1.0" xmlns="http://www.w3.org/2000/svg"
 width="275.000000pt" height="183.000000pt" viewBox="0 0 275.000000 183.000000"
 preserveAspectRatio="xMidYMid meet">

<g transform="translate(0.000000,183.000000) scale(0.100000,-0.100000)"
fill="#000000" stroke="none">
<path d="M2120 1684 c0 -14 3 -14 15 -4 8 7 15 14 15 16 0 2 -7 4 -15 4 -8 0
-15 -7 -15 -16z"/>
<path d="M2168 1693 c7 -3 16 -2 19 1 4 3 -2 6 -13 5 -11 0 -14 -3 -6 -6z"/>
<path d="M2250 1633 c0 -21 3 -24 9 -14 5 8 7 20 4 28 -8 21 -13 15 -13 -14z"/>
<path d="M2449 1650 c-4 -25 -3 -30 5 -29 5 0 13 -5 17 -13 7 -10 9 -9 9 4 0
35 -27 68 -31 38z"/>
<path d="M1974 1629 c-3 -6 -1 -16 5 -22 8 -8 11 -5 11 11 0 24 -5 28 -16 11z"/>
<path d="M2001 1604 c0 -11 3 -14 6 -6 3 7 2 16 -1 19 -3 4 -6 -2 -5 -13z"/>
<path d="M2303 1609 c3 -9 0 -22 -6 -28 -8 -8 -8 -11 0 -11 17 0 25 32 12 44
-9 8 -10 7 -6 -5z"/>
<path d="M1800 1601 c0 -6 5 -13 10 -16 6 -3 10 1 10 9 0 9 -4 16 -10 16 -5 0
-10 -4 -10 -9z"/>
<path d="M2357 1603 c-2 -5 -4 -21 -4 -38 -1 -16 1 -24 4 -17 2 6 12 12 20 12
12 0 13 3 3 15 -6 8 -9 19 -5 25 3 5 2 10 -4 10 -5 0 -12 -3 -14 -7z"/>
<path d="M2230 1591 c0 -6 4 -13 10 -16 6 -3 7 1 4 9 -7 18 -14 21 -14 7z"/>
<path d="M2487 1586 c-4 -9 -13 -13 -22 -10 -19 8 -19 -14 0 -40 21 -28 43
-14 39 25 -5 38 -9 45 -17 25z"/>
<path d="M2410 1550 c-11 -7 -11 -10 -2 -10 9 0 11 -7 6 -22 -6 -20 -5 -21 9
-9 15 12 16 10 5 -20 -6 -19 -16 -37 -22 -41 -8 -5 -7 -8 2 -8 10 0 10 -4 0
-20 -7 -10 -9 -22 -5 -26 11 -11 45 38 56 81 9 36 8 42 -12 62 -16 16 -26 20
-37 13z"/>
<path d="M2086 1525 c-28 -26 -34 -50 -13 -58 9 -4 9 -6 0 -6 -7 -1 -10 -8 -6
-17 4 -12 9 -8 20 15 9 17 23 33 33 36 12 4 16 12 13 26 -8 30 -18 31 -47 4z"/>
<path d="M1556 1525 c4 -8 11 -12 16 -9 6 4 14 0 19 -7 6 -10 9 -10 9 -2 0 7
-9 17 -19 23 -26 14 -31 13 -25 -5z"/>
<path d="M1907 1503 c-14 -28 -15 -35 -3 -39 8 -3 12 -13 9 -25 -3 -11 0 -19
6 -19 7 0 9 5 6 10 -3 6 1 17 9 26 19 19 22 81 3 81 -7 0 -20 -15 -30 -34z"/>
<path d="M2200 1519 c0 -5 5 -7 10 -4 6 3 10 8 10 11 0 2 -4 4 -10 4 -5 0 -10
-5 -10 -11z"/>
<path d="M1697 1474 c-24 -32 -30 -64 -12 -64 8 0 11 -7 8 -20 -3 -11 -1 -20
3 -20 5 0 10 12 10 26 1 14 10 34 19 44 13 15 14 23 5 39 -13 25 -11 26 -33
-5z"/>
<path d="M2158 1453 c5 -21 7 -23 10 -9 2 10 0 22 -6 28 -6 6 -7 0 -4 -19z"/>
<path d="M2265 1460 c4 -6 11 -8 16 -5 14 9 11 15 -7 15 -8 0 -12 -5 -9 -10z"/>
<path d="M2300 1455 c0 -9 6 -12 15 -9 8 4 12 10 9 15 -8 14 -24 10 -24 -6z"/>
<path d="M2470 1436 c0 -8 -6 -16 -12 -19 -10 -3 -10 -10 1 -31 8 -15 21 -24
28 -22 7 3 13 -1 13 -9 0 -9 -6 -12 -15 -9 -10 4 -15 0 -15 -14 0 -11 5 -22
11 -24 6 -2 8 -15 3 -33 -6 -26 -8 -27 -15 -10 -7 19 -8 19 -8 -2 -1 -12 5
-24 12 -26 10 -4 10 -6 0 -6 -7 -1 -13 -10 -13 -21 0 -11 -4 -20 -10 -20 -5 0
-10 -9 -10 -20 0 -28 17 -25 24 5 7 26 31 34 39 13 3 -7 6 35 6 95 l1 107 -26
0 c-14 0 -23 4 -19 10 4 6 10 8 14 5 5 -2 9 7 9 20 0 14 -4 25 -9 25 -5 0 -9
-6 -9 -14z"/>
<path d="M1766 1433 c6 -4 14 -15 17 -23 5 -11 6 -9 4 4 -1 11 -9 21 -17 23
-10 3 -11 2 -4 -4z"/>
<path d="M2501 1424 c0 -11 3 -14 6 -6 3 7 2 16 -1 19 -3 4 -6 -2 -5 -13z"/>
<path d="M2344 1415 c-3 -8 -4 -20 -1 -27 3 -7 6 -3 6 10 1 15 5 21 13 16 7
-4 8 -3 4 4 -10 16 -15 15 -22 -3z"/>
<path d="M1930 1387 c0 -9 -7 -20 -16 -25 -16 -9 -16 -12 0 -42 9 -18 16 -40
16 -49 0 -10 3 -12 10 -5 16 16 17 111 3 125 -11 11 -13 10 -13 -4z"/>
<path d="M2066 1373 c-15 -21 -17 -29 -8 -44 7 -10 12 -29 13 -41 1 -39 28 31
29 75 0 43 -8 46 -34 10z"/>
<path d="M1712 1319 c-7 -25 -6 -38 4 -50 8 -8 14 -21 14 -27 0 -6 5 -14 11
-18 9 -5 10 9 7 50 -6 71 -23 93 -36 45z"/>
<path d="M2040 1301 c0 -5 -3 -16 -6 -25 -4 -10 -1 -16 7 -16 7 0 9 3 6 7 -4
3 -2 12 4 19 7 8 7 14 -1 19 -5 3 -10 2 -10 -4z"/>
<path d="M1900 1293 c0 -6 -3 -18 -6 -27 -3 -9 -2 -16 4 -16 15 0 21 25 11 41
-5 9 -9 9 -9 2z"/>
<path d="M2300 1279 c0 -5 5 -7 10 -4 6 3 10 8 10 11 0 2 -4 4 -10 4 -5 0 -10
-5 -10 -11z"/>
<path d="M2263 1273 c-7 -3 -12 -14 -12 -26 1 -17 2 -18 6 -4 5 18 33 24 33 6
0 -5 -4 -7 -10 -4 -15 9 -12 -14 3 -30 8 -7 19 -10 26 -5 23 14 -20 72 -46 63z"/>
<path d="M1706 1225 c-9 -26 -7 -32 5 -12 6 10 9 21 6 23 -2 3 -7 -2 -11 -11z"/>
<path d="M1933 1175 c-7 -8 -9 -16 -4 -19 5 -3 12 1 15 10 8 22 4 25 -11 9z"/>
<path d="M2486 1142 c-4 -13 -5 -26 -2 -29 3 -4 6 -1 6 5 0 6 7 9 15 6 8 -4
15 -1 15 6 0 6 -4 9 -9 5 -5 -3 -11 3 -13 12 -3 15 -6 14 -12 -5z"/>
<path d="M1960 1131 c0 -6 4 -13 10 -16 6 -3 7 1 4 9 -7 18 -14 21 -14 7z"/>
<path d="M2025 1120 c-4 -6 -3 -16 3 -22 13 -13 23 4 13 21 -7 10 -10 10 -16
1z"/>
<path d="M1900 1100 c0 -11 7 -20 15 -20 13 0 14 4 5 20 -6 11 -13 20 -15 20
-3 0 -5 -9 -5 -20z"/>
<path d="M2500 1075 c0 -19 -5 -35 -11 -35 -5 0 -7 -5 -4 -10 4 -6 11 -8 16
-5 5 4 9 -1 9 -9 0 -8 -5 -18 -10 -21 -6 -4 -8 -11 -5 -16 3 -5 -1 -6 -9 -3
-8 3 -12 12 -10 19 3 7 0 16 -6 20 -11 7 -12 -70 -1 -90 3 -5 6 -53 7 -105 1
-96 9 -134 25 -124 12 7 -2 -29 -15 -38 -7 -5 -6 -8 2 -8 22 0 51 -42 52 -75
1 -16 4 -24 7 -18 2 7 -2 79 -11 160 -9 82 -16 203 -18 271 -1 67 -5 122 -10
122 -4 0 -8 -16 -8 -35z"/>
<path d="M1940 1079 c0 -5 5 -7 10 -4 6 3 10 8 10 11 0 2 -4 4 -10 4 -5 0 -10
-5 -10 -11z"/>
<path d="M1981 1064 c0 -11 3 -14 6 -6 3 7 2 16 -1 19 -3 4 -6 -2 -5 -13z"/>
<path d="M1740 1049 c7 -11 14 -18 17 -15 8 8 -5 36 -17 36 -7 0 -7 -6 0 -21z"/>
<path d="M1973 1013 c-8 -3 -11 -14 -7 -28 3 -12 1 -26 -5 -29 -15 -10 -14
-26 3 -26 7 0 18 -15 24 -32 10 -30 11 -28 6 22 -2 30 -5 65 -4 78 0 12 -1 22
-3 21 -1 0 -8 -3 -14 -6z"/>
<path d="M2075 1000 c3 -5 8 -10 11 -10 2 0 4 5 4 10 0 6 -5 10 -11 10 -5 0
-7 -4 -4 -10z"/>
<path d="M2055 950 c3 -5 8 -10 11 -10 2 0 4 5 4 10 0 6 -5 10 -11 10 -5 0 -7
-4 -4 -10z"/>
<path d="M1810 910 c0 -5 4 -10 9 -10 6 0 13 5 16 10 3 6 -1 10 -9 10 -9 0
-16 -4 -16 -10z"/>
<path d="M1981 848 c1 -7 5 -24 9 -38 7 -22 8 -21 9 13 1 20 -3 37 -9 37 -5 0
-10 -6 -9 -12z"/>
<path d="M2083 775 c-3 -9 -3 -18 -1 -21 3 -3 8 4 11 16 6 23 -1 27 -10 5z"/>
<path d="M1980 763 c0 -5 5 -15 10 -23 8 -12 10 -11 10 8 0 12 -4 22 -10 22
-5 0 -10 -3 -10 -7z"/>
<path d="M1880 729 c0 -5 5 -7 10 -4 6 3 10 8 10 11 0 2 -4 4 -10 4 -5 0 -10
-5 -10 -11z"/>
<path d="M2106 717 c2 -7 13 -18 24 -25 24 -15 37 2 16 23 -18 18 -47 20 -40
2z"/>
<path d="M1915 686 c0 -13 3 -22 8 -19 4 2 7 13 7 24 0 10 -3 19 -7 19 -5 0
-8 -11 -8 -24z"/>
<path d="M1993 669 c-12 -30 -11 -32 3 -17 9 8 14 23 12 33 -2 12 -7 7 -15
-16z"/>
<path d="M2100 640 c0 -14 -6 -20 -16 -18 -10 2 -19 -3 -22 -11 -3 -8 0 -11 7
-7 15 10 14 -17 -1 -32 -9 -9 -9 -12 0 -12 7 0 12 5 12 11 0 6 9 9 19 6 23 -6
37 19 21 38 -8 9 -8 15 0 20 15 9 12 25 -5 25 -8 0 -15 -9 -15 -20z"/>
<path d="M1990 604 c0 -9 5 -12 11 -8 9 5 10 -1 5 -20 -4 -15 -2 -26 4 -26 5
0 10 16 10 35 0 24 -5 35 -15 35 -8 0 -15 -7 -15 -16z"/>
<path d="M1916 594 c-9 -8 -13 -20 -10 -26 4 -6 10 -5 16 3 7 10 8 6 5 -14 -3
-22 -2 -25 9 -16 16 13 19 69 5 69 -5 0 -17 -7 -25 -16z"/>
<path d="M2003 524 c-3 -8 -1 -20 6 -27 8 -8 11 -4 11 16 0 30 -7 35 -17 11z"/>
<path d="M2066 531 c-4 -7 -5 -15 -2 -18 9 -9 19 4 14 18 -4 11 -6 11 -12 0z"/>
<path d="M2383 523 c-13 -5 -7 -33 7 -33 11 0 21 28 12 33 -4 3 -12 2 -19 0z"/>
<path d="M2520 510 c-8 -11 -21 -20 -29 -20 -12 0 -12 -3 -3 -12 7 -7 12 -20
12 -30 0 -23 11 -23 38 1 14 11 22 30 22 50 0 36 -18 41 -40 11z"/>
<path d="M1926 501 c-3 -5 1 -11 9 -15 9 -3 15 0 15 9 0 16 -16 20 -24 6z"/>
<path d="M2105 480 c3 -5 8 -10 11 -10 2 0 4 5 4 10 0 6 -5 10 -11 10 -5 0 -7
-4 -4 -10z"/>
<path d="M2016 461 c-4 -5 -2 -20 3 -33 9 -21 10 -21 10 10 1 32 -3 39 -13 23z"/>
<path d="M2075 460 c-4 -7 -1 -16 6 -21 17 -10 26 8 11 23 -6 6 -12 6 -17 -2z"/>
<path d="M1956 441 c-3 -5 1 -14 9 -21 12 -10 15 -10 15 3 0 19 -16 31 -24 18z"/>
<path d="M2104 414 c-4 -20 -3 -39 2 -43 13 -9 13 -51 0 -51 -6 0 -3 -5 7 -11
13 -8 18 -20 15 -44 -1 -19 0 -37 4 -40 4 -4 5 25 4 64 -2 39 1 68 5 65 5 -3
9 -12 9 -20 0 -8 5 -14 10 -14 13 0 13 -1 -10 45 -11 22 -20 47 -20 57 0 33
-19 28 -26 -8z"/>
<path d="M2295 415 c5 -11 9 -35 9 -53 0 -20 3 -29 9 -23 16 16 11 59 -9 78
-17 17 -18 17 -9 -2z"/>
<path d="M2522 405 c-19 -21 -19 -23 1 -64 18 -38 21 -40 33 -24 7 10 14 39
14 64 0 52 -17 60 -48 24z"/>
<path d="M2077 403 c-4 -3 -7 -11 -7 -17 0 -6 5 -5 12 2 6 6 9 14 7 17 -3 3
-9 2 -12 -2z"/>
<path d="M2022 380 c0 -14 2 -19 5 -12 2 6 2 18 0 25 -3 6 -5 1 -5 -13z"/>
<path d="M1976 381 c-4 -7 -5 -15 -2 -18 9 -9 19 4 14 18 -4 11 -6 11 -12 0z"/>
<path d="M2236 328 c-9 -30 -15 -76 -9 -81 8 -8 32 16 26 26 -9 16 41 -15 59
-36 27 -30 34 2 10 44 -20 37 -80 69 -86 47z"/>
<path d="M2380 315 c0 -8 -9 -19 -20 -25 -24 -13 -26 -30 -5 -30 8 0 15 7 15
15 0 9 7 18 15 21 17 7 21 34 5 34 -5 0 -10 -7 -10 -15z"/>
<path d="M2426 267 c3 -10 9 -15 12 -12 3 3 0 11 -7 18 -10 9 -11 8 -5 -6z"/>
<path d="M2352 230 c0 -14 2 -19 5 -12 2 6 2 18 0 25 -3 6 -5 1 -5 -13z"/>
<path d="M2175 229 c-4 -6 -4 -13 -1 -16 3 -4 6 -1 6 6 0 7 5 9 12 5 7 -4 8
-3 4 4 -9 15 -13 15 -21 1z"/>
<path d="M2245 210 c3 -5 8 -10 11 -10 2 0 4 5 4 10 0 6 -5 10 -11 10 -5 0 -7
-4 -4 -10z"/>
</g>
</svg>
