<?xml version="1.0" standalone="no"?>
<!DOCTYPE svg PUBLIC "-//W3C//DTD SVG 20010904//EN"
 "http://www.w3.org/TR/2001/REC-SVG-20010904/DTD/svg10.dtd">
<svg version="1.0" xmlns="http://www.w3.org/2000/svg"
 width="300.000000pt" height="168.000000pt" viewBox="0 0 300.000000 168.000000"
 preserveAspectRatio="xMidYMid meet">

<g transform="translate(0.000000,168.000000) scale(0.100000,-0.100000)"
fill="#000000" stroke="none">
<path d="M48 1658 c-19 -24 -15 -38 11 -38 9 0 21 -4 27 -9 5 -5 27 -11 49
-14 38 -5 81 -15 135 -32 24 -7 24 -7 8 12 -22 24 -23 33 -3 33 32 0 12 22
-40 46 -74 32 -162 33 -187 2z"/>
<path d="M480 1670 c0 -5 9 -10 20 -10 11 0 20 5 20 10 0 6 -9 10 -20 10 -11
0 -20 -4 -20 -10z"/>
<path d="M1073 1664 c-3 -8 -6 -35 -7 -60 -1 -33 -5 -44 -16 -43 -8 1 -22 -1
-30 -4 -33 -13 -223 -68 -263 -77 -99 -21 -229 -61 -254 -77 -15 -10 -36 -19
-48 -20 -43 -3 -119 -30 -123 -43 -3 -9 1 -11 12 -7 10 4 15 3 11 -3 -3 -6
-12 -10 -20 -10 -18 0 -122 -55 -163 -87 -18 -13 -40 -22 -47 -19 -8 3 -15 2
-15 -3 0 -14 28 -33 40 -26 5 3 10 2 10 -4 0 -6 6 -8 13 -5 7 2 23 -4 35 -15
16 -13 19 -20 10 -23 -13 -5 178 -111 235 -132 18 -6 34 -13 37 -16 21 -23
444 -191 448 -179 2 5 8 9 13 9 6 0 8 -4 5 -9 -10 -15 22 -33 46 -26 13 4 20
4 16 0 -11 -12 21 -38 38 -31 8 3 12 2 9 -4 -3 -6 -1 -10 6 -10 7 0 10 -2 7
-5 -6 -6 -136 33 -233 70 -219 83 -262 101 -530 230 -66 31 -142 68 -170 81
-27 13 -70 38 -95 54 l-45 30 -3 -31 c-2 -21 3 -38 17 -53 12 -13 23 -40 25
-63 4 -35 2 -39 -17 -39 -19 1 -22 -5 -25 -43 -4 -50 6 -61 56 -61 30 0 33 2
27 23 -5 15 0 12 14 -11 12 -18 21 -36 21 -40 0 -13 51 -54 69 -56 9 -2 20
-12 26 -24 5 -12 13 -22 17 -22 5 0 8 -8 8 -17 0 -15 2 -15 9 -4 11 17 41 7
41 -14 0 -16 9 -19 47 -15 16 1 26 -6 33 -24 5 -14 26 -33 47 -43 21 -10 38
-24 39 -30 1 -7 2 -26 3 -43 1 -36 21 -41 21 -5 0 18 5 25 20 25 24 0 26 -15
4 -24 -9 -4 -14 -13 -10 -21 3 -8 1 -15 -4 -15 -24 0 -7 -19 23 -25 61 -12 69
-16 58 -29 -12 -15 -13 -126 0 -126 5 0 14 12 20 27 8 22 7 34 -6 55 -21 37
-10 36 22 -2 13 -16 31 -30 39 -30 9 0 14 -11 14 -32 1 -28 2 -30 11 -15 5 9
7 22 4 27 -3 6 -2 10 4 10 5 0 18 -14 28 -30 34 -59 163 -96 295 -85 34 3 62
7 63 8 0 1 15 21 33 44 17 23 32 46 32 52 0 5 14 23 30 39 56 56 33 72 -26 18
-29 -26 -52 -37 -97 -45 -32 -6 -72 -17 -89 -26 -35 -17 -41 -18 -34 -7 3 5
26 19 52 33 26 13 49 32 52 41 2 10 13 20 23 23 31 10 23 28 -8 20 -16 -3 -45
-9 -65 -12 -43 -6 -46 2 -23 47 11 22 25 31 53 35 57 10 64 14 58 32 -15 51
-14 73 2 74 10 0 4 7 -15 16 -35 17 -45 38 -15 29 9 -3 31 -8 47 -12 17 -3 48
-12 70 -19 22 -7 103 -23 180 -35 128 -21 150 -22 264 -11 145 13 279 43 371
81 182 77 285 122 290 127 3 3 -4 3 -15 -2 -11 -4 -60 -22 -110 -41 -49 -18
-115 -42 -145 -54 -30 -11 -73 -23 -95 -25 -22 -2 -77 -14 -123 -25 -74 -18
-85 -19 -110 -6 -26 14 -133 20 -247 16 -35 -2 -37 -3 -15 -10 14 -4 54 -9 90
-10 36 -1 74 -5 85 -10 28 -12 -162 -11 -250 1 -38 5 -80 10 -92 10 -52 2 3
55 67 65 34 6 44 12 52 35 10 29 10 29 95 29 47 0 94 5 106 12 12 7 51 13 86
15 53 2 69 -2 99 -22 20 -14 49 -25 63 -25 15 0 29 -5 31 -10 2 -6 29 -17 61
-26 56 -14 58 -14 130 15 204 82 648 302 642 319 -2 7 4 12 15 12 24 0 70 21
70 32 0 4 -12 8 -26 8 -14 0 -23 4 -19 10 3 6 -4 10 -17 10 -18 0 -20 -2 -8
-10 24 -15 -69 -10 -120 7 -33 11 -61 12 -105 6 l-60 -8 75 -6 c41 -4 104 -13
140 -21 l65 -14 -45 -7 c-49 -9 -80 -31 -80 -57 0 -18 -23 -33 -34 -23 -3 4
-1 12 6 20 10 12 7 13 -18 6 -62 -17 -248 2 -304 32 -64 34 -211 57 -225 35
-4 -6 -10 -8 -15 -5 -14 8 -61 -6 -54 -16 3 -5 -5 -9 -18 -9 -13 0 -29 -5 -36
-12 -9 -9 -16 -9 -28 4 -13 12 -23 14 -49 7 -41 -12 -106 -4 -145 16 -17 9
-30 13 -30 9 0 -4 -6 -1 -13 5 -8 6 -16 9 -18 7 -2 -2 -35 -1 -72 3 -38 4 -70
4 -73 -1 -3 -4 -10 -8 -15 -8 -6 0 -7 5 -4 10 3 6 -2 13 -12 16 -10 3 -26 10
-35 15 -27 14 -74 11 -89 -7 -11 -14 -9 -16 17 -13 16 1 40 1 53 1 39 -3 5
-32 -38 -32 -102 0 -306 57 -343 97 l-21 23 51 0 c28 0 54 5 57 11 5 7 14 5
30 -5 12 -8 25 -12 29 -9 6 6 -39 33 -56 33 -5 0 -23 9 -39 21 -16 11 -29 16
-29 11 0 -5 10 -14 23 -20 21 -10 21 -11 -8 -11 -16 -1 -61 7 -99 16 -44 12
-71 14 -73 8 -3 -10 -99 -13 -109 -3 -8 9 132 21 156 13 11 -4 39 -4 61 0 34
6 38 9 28 22 -10 12 -36 14 -132 12 -65 -2 -121 -7 -123 -11 -3 -4 3 -9 13 -9
10 -1 1 -5 -21 -9 -32 -6 -42 -4 -63 16 -17 16 -21 24 -12 30 20 12 73 12 82
0 5 -8 9 -8 15 0 19 28 82 38 82 13 0 -13 51 -11 89 2 30 10 32 15 27 41 -6
30 -5 30 28 24 29 -6 36 -3 50 19 29 44 55 65 80 65 30 0 43 48 18 66 -14 11
-14 14 2 38 14 22 20 25 31 16 8 -6 11 -18 8 -26 -4 -12 0 -13 23 -4 15 6 58
15 94 20 36 5 84 12 108 16 35 6 45 3 57 -12 8 -11 15 -27 15 -36 0 -30 67
-24 97 8 l24 26 77 -15 c71 -14 151 -27 259 -41 23 -3 43 -2 45 4 4 12 125 17
161 6 38 -11 35 4 -11 51 -35 36 -42 39 -100 40 -57 2 -80 -8 -49 -20 6 -3 1
-6 -13 -6 -14 0 -36 6 -50 14 -33 19 -420 22 -420 3 0 -9 -3 -9 -12 0 -8 8
-63 12 -180 12 -143 0 -170 -2 -175 -16z m737 -24 c0 -5 -5 -10 -11 -10 -5 0
-7 5 -4 10 3 6 8 10 11 10 2 0 4 -4 4 -10z m135 -20 l30 -8 -37 -1 c-20 0 -39
-5 -42 -10 -6 -9 -66 14 -66 25 0 6 82 2 115 -6z m-1061 -196 c9 -24 2 -26
-12 -4 -7 11 -8 20 -3 20 5 0 12 -7 15 -16z m-29 -20 c13 -5 14 -8 3 -15 -19
-13 -28 -11 -28 6 0 17 2 18 25 9z m-347 -78 c-13 -14 -28 -12 -28 5 0 5 9 9
20 9 17 0 19 -2 8 -14z m345 -91 c15 -3 25 -10 22 -16 -4 -5 7 -14 24 -20 32
-11 42 -29 16 -29 -8 0 -15 -4 -15 -10 0 -5 20 -10 45 -10 25 0 56 -6 68 -14
14 -9 70 -16 156 -21 74 -4 150 -13 170 -21 l36 -14 -45 5 c-25 4 -99 8 -165
11 -146 5 -236 19 -291 43 -23 11 -60 22 -82 26 -22 3 -48 15 -58 26 -16 18
-16 19 4 19 12 0 25 -7 30 -16 10 -17 92 -37 92 -23 0 5 10 9 23 10 16 0 11 5
-22 20 -24 11 -46 17 -49 14 -3 -3 -1 -5 5 -5 5 0 10 -7 10 -15 0 -8 -3 -15
-6 -15 -5 0 -36 46 -49 72 -2 4 9 3 25 -2 15 -5 41 -12 56 -15z m-248 5 c-3
-5 -11 -10 -16 -10 -6 0 -7 5 -4 10 3 6 11 10 16 10 6 0 7 -4 4 -10z m-405
-20 c0 -5 -4 -10 -10 -10 -5 0 -10 5 -10 10 0 6 5 10 10 10 6 0 10 -4 10 -10z
m460 -30 c0 -5 -6 -10 -14 -10 -8 0 -18 5 -21 10 -3 6 3 10 14 10 12 0 21 -4
21 -10z m-259 -17 c-9 -18 -11 -25 -11 -43 0 -7 -7 -7 -21 1 -16 8 -18 13 -9
19 7 4 10 15 7 24 -5 12 0 16 19 16 20 0 23 -3 15 -17z m216 -58 c9 -24 -1
-27 -15 -5 -8 13 -8 20 -2 20 6 0 13 -7 17 -15z m1354 -36 c3 -6 47 -11 97
-12 51 -1 92 -5 92 -9 0 -5 23 -8 50 -8 55 0 70 -19 18 -22 -18 0 -40 0 -48 1
-8 1 -33 4 -55 6 -91 8 -215 43 -215 61 0 9 54 -6 61 -17z m-1265 -14 c18 -15
17 -16 -16 -9 -52 10 -72 23 -34 24 16 0 39 -7 50 -15z m359 7 c-34 -3 -37 -6
-20 -13 14 -6 2 -8 -35 -4 -37 3 -48 1 -35 -5 19 -8 19 -9 -2 -9 -13 -1 -23 4
-23 9 0 6 -9 10 -21 10 -11 0 -17 -5 -14 -10 4 -7 -10 -9 -39 -8 -60 4 -59 15
2 23 26 4 52 8 57 10 6 2 46 3 90 3 45 -1 62 -3 40 -6z m-272 -19 c-13 -2 -33
-2 -45 0 -13 2 -3 4 22 4 25 0 35 -2 23 -4z m375 0 c-16 -2 -40 -2 -55 0 -16
2 -3 4 27 4 30 0 43 -2 28 -4z m-944 -18 c10 -8 23 -12 29 -8 6 3 7 1 3 -5 -5
-8 -13 -9 -24 -2 -33 19 -47 30 -37 30 6 -1 19 -7 29 -15z m480 -45 c44 -5 82
-12 84 -15 9 -9 -84 -5 -139 5 -30 6 -71 11 -91 12 -21 0 -35 4 -32 9 6 10 39
8 178 -11z m142 -8 c-16 -2 -32 0 -37 5 -5 5 7 7 29 4 34 -5 35 -6 8 -9z m354
8 c-8 -5 -19 -10 -25 -10 -5 0 -3 5 5 10 8 5 20 10 25 10 6 0 3 -5 -5 -10z
m-50 -30 c0 -5 -7 -7 -15 -4 -8 4 -15 8 -15 10 0 2 7 4 15 4 8 0 15 -4 15 -10z
m-702 -20 c18 -11 38 -20 45 -20 7 0 22 -6 33 -14 15 -12 16 -17 7 -27 -10
-10 -18 -8 -40 13 -16 14 -43 33 -60 42 -32 16 -42 26 -25 26 4 0 22 -9 40
-20z m392 7 c14 -2 54 -5 90 -6 55 -1 62 -3 45 -13 -42 -25 -258 -10 -269 19
-6 16 17 15 134 0z m636 0 c4 -4 3 -7 -2 -8 -5 0 -21 -3 -36 -5 -27 -5 -40 10
-16 18 17 6 46 3 54 -5z m-372 -22 c-18 -14 -44 -20 -44 -10 0 7 54 34 59 29
3 -2 -4 -11 -15 -19z m114 -33 c2 -15 -2 -20 -16 -19 -16 1 -20 16 -13 45 3
13 27 -9 29 -26z m292 7 c0 -5 -7 -9 -15 -9 -8 0 -15 7 -15 15 0 9 6 12 15 9
8 -4 15 -10 15 -15z m-73 -15 c-3 -3 -12 -4 -19 -1 -8 3 -5 6 6 6 11 1 17 -2
13 -5z m-312 -49 c0 -20 -4 -30 -9 -25 -5 5 -17 5 -28 -1 -25 -14 -31 -8 -22
25 4 17 13 26 25 26 10 0 19 5 19 12 0 6 3 8 7 4 4 -4 8 -23 8 -41z m295 25
c0 -5 -2 -10 -4 -10 -3 0 -8 5 -11 10 -3 6 -1 10 4 10 6 0 11 -4 11 -10z
m-850 -30 c41 -21 54 -35 23 -23 -25 9 -80 43 -70 43 4 0 26 -9 47 -20z m466
-27 c-10 -10 -19 5 -10 18 6 11 8 11 12 0 2 -7 1 -15 -2 -18z m-355 -22 c24
-10 77 -31 117 -46 40 -15 71 -29 68 -32 -4 -5 -191 67 -224 86 -28 17 -8 12
39 -8z m435 -29 c-3 -3 0 -12 7 -20 10 -13 9 -14 -10 -2 -11 8 -19 19 -16 27
3 7 9 10 15 7 5 -3 7 -9 4 -12z m-201 -62 c19 -8 19 -9 -2 -9 -12 -1 -25 4
-28 9 -7 12 2 12 30 0z m-470 -18 c-3 -3 -11 0 -18 7 -9 10 -8 11 6 5 10 -3
15 -9 12 -12z m134 -102 c21 0 32 -10 26 -21 -6 -9 -65 9 -65 20 0 13 14 23
18 12 2 -6 12 -11 21 -11z m91 -50 c24 -24 25 -30 5 -30 -8 0 -19 9 -25 19
-19 37 -10 41 20 11z m-30 -10 c0 -5 -7 -7 -15 -4 -8 4 -15 8 -15 10 0 2 7 4
15 4 8 0 15 -4 15 -10z"/>
<path d="M2350 1670 c-9 -6 -10 -10 -3 -10 6 0 15 5 18 10 8 12 4 12 -15 0z"/>
<path d="M2755 1672 c26 -4 28 -5 10 -12 -18 -8 -18 -9 -2 -9 24 -1 12 -21
-12 -21 -18 0 -59 -11 -188 -52 -35 -11 -67 -17 -73 -13 -5 3 -10 2 -10 -3 0
-6 -12 -13 -27 -16 -16 -4 -83 -35 -149 -68 -103 -52 -121 -65 -121 -85 0 -18
4 -22 21 -17 14 3 28 -1 35 -10 17 -20 68 -20 101 -1 14 8 19 14 11 15 -8 0
-12 3 -9 6 3 3 28 -4 56 -16 27 -12 56 -21 63 -20 32 5 58 -1 73 -15 8 -8 24
-15 35 -15 12 0 21 -4 21 -10 0 -5 9 -10 21 -10 11 0 17 -4 14 -10 -3 -5 2
-11 12 -12 52 -4 71 -3 66 5 -3 5 8 7 23 5 41 -4 44 -34 4 -43 l-30 -7 22 -19
23 -20 -25 12 c-22 11 -24 11 -12 -3 10 -13 10 -17 0 -21 -7 -3 -3 -6 9 -6 12
-1 25 4 28 9 12 20 26 10 15 -10 -11 -20 -10 -20 12 -8 13 7 25 15 28 18 3 3
15 6 28 8 13 1 38 13 56 27 38 29 46 70 15 78 -16 4 -17 2 -8 -14 8 -17 6 -19
-21 -19 -19 0 -30 5 -30 14 0 21 -20 30 -33 17 -13 -13 -37 -15 -37 -2 0 5 8
11 18 14 16 4 16 4 -2 12 -11 5 -21 3 -25 -4 -5 -7 -38 4 -107 38 -97 48 -237
101 -268 101 -22 0 -20 19 2 26 9 3 25 10 35 15 38 21 181 60 199 56 12 -4 28
3 41 16 l21 21 7 -24 c7 -24 7 -24 8 -2 1 16 7 22 25 22 14 0 27 4 31 9 3 6
59 22 125 38 66 15 120 31 120 36 0 11 -108 6 -144 -7 -22 -8 -30 -8 -33 2 -3
7 -22 11 -51 11 -36 -2 -40 -3 -17 -7z m-445 -293 c10 -6 1 -7 -25 -3 -22 4
-44 11 -50 16 -12 12 52 0 75 -13z m143 -6 c-7 -2 -19 -2 -25 0 -7 3 -2 5 12
5 14 0 19 -2 13 -5z"/>
<path d="M2385 1650 c4 -6 11 -8 16 -5 14 9 11 15 -7 15 -8 0 -12 -5 -9 -10z"/>
<path d="M2692 1650 c-42 -10 -53 -20 -21 -20 34 0 69 11 69 21 0 10 -2 10
-48 -1z"/>
<path d="M2435 1640 c-3 -5 1 -10 10 -10 9 0 13 5 10 10 -3 6 -8 10 -10 10 -2
0 -7 -4 -10 -10z"/>
<path d="M496 1611 c-8 -13 4 -41 18 -41 6 0 20 7 30 15 20 15 20 15 0 15 -16
0 -17 2 -4 10 12 8 9 10 -12 10 -15 0 -29 -4 -32 -9z"/>
<path d="M2598 1613 c7 -3 16 -2 19 1 4 3 -2 6 -13 5 -11 0 -14 -3 -6 -6z"/>
<path d="M2940 1611 c0 -5 -3 -17 -7 -27 -4 -11 -3 -15 5 -10 17 10 23 -10 7
-24 -9 -7 -15 -8 -15 -2 0 6 -27 9 -70 7 -59 -2 -68 0 -59 11 9 11 7 14 -10
14 -12 0 -19 -4 -16 -10 3 -5 1 -10 -4 -10 -19 0 -12 -15 12 -25 12 -6 22 -16
22 -22 0 -17 42 -46 58 -40 6 3 4 6 -6 6 -21 1 -18 26 3 26 8 0 18 -15 22 -32
9 -36 20 -39 80 -21 l39 11 -2 53 c-1 29 -6 51 -11 48 -4 -3 -8 2 -8 11 0 9
-6 23 -14 31 -17 16 -26 18 -26 5z m-79 -81 c-12 -11 -27 -17 -33 -14 -14 9
12 34 36 34 21 -1 21 -1 -3 -20z m119 -9 c0 -5 -7 -11 -15 -15 -9 -3 -15 0
-15 9 0 8 7 15 15 15 8 0 15 -4 15 -9z m-48 -33 c-7 -7 -12 -8 -12 -2 0 14 12
26 19 19 2 -3 -1 -11 -7 -17z"/>
<path d="M10 1590 c-12 -8 -9 -10 13 -10 15 0 27 5 27 10 0 13 -20 13 -40 0z"/>
<path d="M2485 1590 c-3 -6 1 -7 9 -4 18 7 21 14 7 14 -6 0 -13 -4 -16 -10z"/>
<path d="M2428 1583 c6 -2 18 -2 25 0 6 3 1 5 -13 5 -14 0 -19 -2 -12 -5z"/>
<path d="M420 1555 c0 -28 3 -30 29 -13 18 11 18 13 3 25 -25 18 -32 16 -32
-12z"/>
<path d="M2720 1560 c0 -11 4 -20 9 -20 5 0 11 9 14 20 3 13 0 20 -9 20 -8 0
-14 -9 -14 -20z"/>
<path d="M2438 1563 c7 -3 16 -2 19 1 4 3 -2 6 -13 5 -11 0 -14 -3 -6 -6z"/>
<path d="M0 1450 c0 -99 6 -107 54 -69 36 29 33 16 -7 -20 -17 -17 -27 -31
-20 -31 6 0 15 5 19 12 5 8 10 6 16 -8 7 -17 8 -16 4 4 -4 20 0 22 37 22 43 0
77 14 64 26 -3 4 -13 1 -22 -6 -9 -7 -19 -10 -22 -6 -4 4 -1 11 7 17 13 8 13
10 0 18 -8 6 -11 13 -7 18 5 4 12 1 17 -7 7 -11 18 -9 62 14 29 15 73 35 98
43 53 18 93 43 69 43 -8 0 -19 -4 -24 -9 -6 -4 -23 -13 -40 -19 -16 -5 -56
-22 -87 -36 -54 -24 -58 -24 -58 -7 0 13 10 20 31 25 18 3 29 11 27 18 -8 22
-50 35 -135 41 l-83 6 0 -89z"/>
<path d="M2153 1505 c13 -27 38 -33 56 -11 9 11 5 16 -20 25 -45 16 -49 14
-36 -14z"/>
<path d="M2775 1510 c-3 -5 -2 -10 4 -10 5 0 13 5 16 10 3 6 2 10 -4 10 -5 0
-13 -4 -16 -10z"/>
<path d="M370 1450 c-18 -12 -2 -12 25 0 13 6 15 9 5 9 -8 0 -22 -4 -30 -9z"/>
<path d="M1429 1416 c-7 -8 -201 -26 -313 -30 -59 -3 -112 -8 -117 -13 -15
-15 21 -71 53 -82 40 -14 43 -14 28 4 -7 8 -19 15 -26 15 -9 0 -14 11 -14 30
0 26 4 30 28 30 81 1 232 10 265 16 35 5 37 4 37 -21 0 -26 2 -26 39 -20 23 4
42 2 45 -4 10 -15 38 -1 32 16 -10 24 32 30 127 17 51 -7 130 -14 177 -17 l85
-4 -56 17 c-31 9 -103 20 -160 24 -57 4 -120 12 -141 17 -23 6 -45 6 -63 -1
-17 -6 -24 -7 -20 0 6 10 2 14 -6 6z"/>
<path d="M2660 1416 c0 -2 7 -7 16 -10 8 -3 12 -2 9 4 -6 10 -25 14 -25 6z"/>
<path d="M726 1362 c-3 -4 4 -9 15 -9 23 -2 25 3 4 10 -8 4 -16 3 -19 -1z"/>
<path d="M2164 1349 c-3 -5 6 -9 20 -9 31 0 34 6 6 13 -11 3 -23 1 -26 -4z"/>
<path d="M2380 1350 c0 -4 12 -10 28 -14 15 -3 37 -8 50 -12 12 -3 22 -2 22 3
0 5 -22 14 -50 19 -27 6 -50 7 -50 4z"/>
<path d="M2250 1320 c20 -13 33 -13 25 0 -3 6 -14 10 -23 10 -15 0 -15 -2 -2
-10z"/>
<path d="M26 1292 c-10 -19 -15 -36 -13 -39 9 -8 39 45 35 59 -3 7 -12 -2 -22
-20z"/>
<path d="M2303 1314 c9 -3 17 -10 17 -16 0 -7 19 -9 56 -5 51 5 120 -2 184
-19 18 -5 22 -4 15 4 -13 14 -122 34 -215 38 -41 1 -67 1 -57 -2z"/>
<path d="M2100 1280 c0 -5 9 -10 21 -10 11 0 17 5 14 10 -3 6 -13 10 -21 10
-8 0 -14 -4 -14 -10z"/>
<path d="M2181 1265 c-46 -8 -87 -17 -92 -22 -4 -4 54 -8 129 -9 75 0 157 -3
182 -7 30 -4 38 -3 25 3 -17 7 -14 9 15 10 19 1 29 4 22 7 -6 2 -10 8 -8 11 2
4 -34 5 -80 3 -57 -2 -84 1 -84 8 0 13 1 13 -109 -4z"/>
<path d="M2960 1235 c-41 -44 -235 -163 -387 -237 -95 -46 -128 -66 -85 -51
11 4 14 3 7 -4 -15 -14 -122 -53 -129 -46 -3 4 -6 -1 -6 -10 0 -11 -26 -29
-75 -51 -69 -32 -99 -53 -57 -40 9 3 1 -5 -18 -18 -20 -13 -35 -30 -35 -38 0
-8 -2 -17 -6 -20 -4 -3 -1 -14 7 -24 10 -14 27 -20 61 -21 27 -1 65 -9 86 -18
47 -20 91 -13 112 19 10 15 21 21 33 18 11 -4 13 -3 5 3 -8 6 -8 13 3 27 9 13
33 22 76 28 70 9 172 55 192 87 18 29 68 75 62 59 -3 -10 -1 -18 4 -18 12 0
76 64 82 82 4 10 10 10 29 1 18 -9 20 -12 7 -12 -29 -1 -21 -21 8 -21 16 0 24
5 22 12 -3 7 5 17 16 23 11 6 22 18 24 28 5 24 -15 21 -23 -3 -7 -21 -49 -28
-60 -10 -9 15 15 42 31 36 7 -3 15 2 18 10 3 8 -1 14 -9 14 -19 0 -19 31 -1
75 16 38 32 45 39 18 3 -10 5 15 6 55 0 39 -3 72 -7 72 -5 0 -19 -11 -32 -25z
m-414 -300 c-11 -8 -25 -15 -30 -15 -6 1 0 7 14 15 32 19 40 18 16 0z m-51
-25 c-3 -5 -12 -10 -18 -10 -7 0 -6 4 3 10 19 12 23 12 15 0z m74 -4 c-10 -9
-89 -46 -89 -41 0 6 72 44 84 45 5 0 7 -2 5 -4z m-224 -66 c-44 -21 -84 -39
-90 -39 -5 0 26 18 70 39 44 21 85 38 90 38 6 0 -26 -17 -70 -38z m105 5 c-14
-8 -29 -14 -35 -14 -5 0 1 6 15 14 14 8 30 14 35 14 6 0 -1 -6 -15 -14z m-55
-25 c-3 -5 -12 -10 -18 -10 -7 0 -6 4 3 10 19 12 23 12 15 0z m-75 -35 c-25
-13 -49 -24 -55 -24 -5 0 10 11 35 24 25 13 50 24 55 24 6 0 -10 -11 -35 -24z"/>
<path d="M2550 1240 c-20 -6 -21 -8 -5 -8 11 0 31 4 45 8 20 6 21 8 5 8 -11 0
-31 -4 -45 -8z"/>
<path d="M1110 1230 c0 -5 5 -10 10 -10 6 0 9 -5 8 -11 -3 -13 23 -22 89 -32
67 -11 44 19 -34 43 -76 23 -73 23 -73 10z"/>
<path d="M995 1210 c-18 -8 -18 -9 6 -9 14 -1 30 -6 35 -11 10 -10 114 -40
137 -40 7 0 -10 12 -38 26 -27 14 -54 30 -59 35 -12 11 -54 11 -81 -1z"/>
<path d="M2610 1196 c0 -2 7 -7 16 -10 8 -3 12 -2 9 4 -6 10 -25 14 -25 6z"/>
<path d="M2040 1186 c0 -9 50 -12 62 -5 8 6 -1 9 -24 9 -21 0 -38 -2 -38 -4z"/>
<path d="M2212 1165 c17 -18 122 -54 135 -46 11 5 2 12 -29 24 -51 20 -116 33
-106 22z"/>
<path d="M2475 1131 c-3 -5 0 -13 6 -17 7 -4 9 -3 5 4 -3 5 0 13 6 15 9 4 10
6 1 6 -6 1 -14 -3 -18 -8z"/>
<path d="M2170 1121 c13 -10 99 -16 89 -7 -2 2 -26 6 -54 10 -36 5 -46 4 -35
-3z"/>
<path d="M2518 1113 c6 -2 18 -2 25 0 6 3 1 5 -13 5 -14 0 -19 -2 -12 -5z"/>
<path d="M0 1075 c1 -26 2 -28 11 -12 8 14 8 22 0 30 -8 8 -11 3 -11 -18z"/>
<path d="M2310 1091 c0 -12 37 -21 80 -20 l35 1 -40 13 c-48 16 -75 18 -75 6z"/>
<path d="M2980 1061 c0 -11 5 -23 10 -26 6 -3 10 3 10 14 0 11 -4 23 -10 26
-5 3 -10 -3 -10 -14z"/>
<path d="M2863 799 c-6 -15 -8 -28 -5 -27 20 2 23 -4 10 -24 -42 -65 -22 -87
75 -86 l57 1 0 53 c0 57 -5 63 -36 39 -25 -19 -44 -19 -44 0 0 8 -9 15 -20 15
-23 0 -24 4 -10 30 7 13 6 19 -3 23 -8 3 -18 -7 -24 -24z m97 -99 c0 -5 -2
-10 -4 -10 -3 0 -8 5 -11 10 -3 6 -1 10 4 10 6 0 11 -4 11 -10z"/>
<path d="M2962 803 c5 -26 38 -29 38 -4 0 15 -6 21 -21 21 -14 0 -19 -5 -17
-17z"/>
<path d="M2772 727 c-30 -17 -72 -80 -72 -107 0 -18 22 -11 27 10 3 11 9 20
13 20 5 0 11 8 15 19 3 10 17 31 31 46 32 34 28 37 -14 12z"/>
<path d="M108 711 c36 -23 42 -25 42 -12 0 5 -8 11 -17 14 -10 2 -27 8 -38 12
-11 4 -5 -2 13 -14z"/>
<path d="M190 725 c0 -9 63 -65 73 -65 6 0 7 -3 4 -6 -4 -4 10 -15 30 -26 50
-27 61 -12 32 46 -24 50 -39 59 -39 24 l0 -21 -24 22 c-14 13 -29 20 -35 17
-5 -4 -12 -2 -16 4 -6 10 -25 14 -25 5z"/>
<path d="M2801 704 c-12 -14 -21 -28 -18 -30 2 -2 16 9 30 26 15 16 23 30 19
30 -5 0 -19 -12 -31 -26z"/>
<path d="M44 675 c26 -25 46 -49 42 -52 -3 -3 -12 2 -21 11 -24 24 -36 19 -29
-11 11 -45 19 -48 79 -25 67 26 75 27 75 8 0 -15 -66 -46 -142 -66 l-48 -13 0
-263 0 -264 403 1 c363 1 399 2 368 15 -42 19 -33 30 11 15 52 -19 195 -26
212 -12 8 7 13 18 11 24 -4 11 76 67 96 67 5 0 9 5 9 10 0 13 -13 13 -27 -1
-8 -8 -45 -6 -134 6 -127 18 -164 29 -154 46 4 5 -9 9 -27 10 -20 0 -27 3 -18
7 24 11 20 40 -5 45 -18 3 -22 0 -17 -11 3 -10 -2 -8 -15 5 -22 22 -38 93 -22
93 6 0 7 5 4 10 -10 15 -24 3 -40 -36 -15 -37 -35 -43 -56 -17 -13 15 -11 16
14 9 26 -6 27 -5 15 14 -8 12 -24 20 -40 20 -21 0 -28 5 -28 20 0 11 -4 20 -9
20 -15 0 -34 -59 -28 -89 3 -16 1 -33 -6 -41 -9 -9 -8 -15 8 -24 10 -6 32 -23
48 -38 16 -16 37 -28 48 -28 10 0 19 -7 19 -15 0 -8 9 -15 19 -15 11 0 23 -5
26 -10 3 -6 2 -10 -4 -10 -5 0 -16 -3 -25 -6 -10 -4 -16 -1 -16 9 0 8 -11 18
-25 21 -14 4 -25 11 -25 16 0 6 -4 10 -10 10 -5 0 -19 9 -30 20 -11 11 -30 20
-43 20 -12 0 -29 9 -37 20 -10 13 -21 18 -35 14 -16 -4 -17 -3 -5 5 12 8 12
13 2 23 -10 10 -15 10 -23 -2 -8 -12 -9 -10 -4 6 3 14 -1 28 -10 38 -20 20
-17 20 28 1 34 -14 36 -14 30 2 -3 10 -10 23 -14 28 -4 6 -10 27 -14 48 -6 32
-16 44 -28 35 -9 -7 -37 26 -33 37 3 8 -2 11 -14 8 -10 -3 -24 3 -31 14 -22
29 -79 66 -79 51 0 -7 -8 2 -17 20 -14 28 -14 35 -3 42 11 7 7 15 -18 39 -18
17 -32 36 -32 41 0 9 -110 70 -127 70 -4 0 10 -12 32 -27 22 -15 34 -28 27
-31 -7 -2 -27 7 -45 20 -58 44 -63 41 -13 -7z m226 -216 c7 -11 9 -23 6 -26
-3 -3 -9 3 -13 13 -3 10 -11 22 -17 26 -8 5 -7 8 1 8 7 0 17 -9 23 -21z m26
-74 c-5 -26 -3 -40 9 -51 8 -9 13 -20 9 -25 -9 -15 -43 35 -50 73 -6 32 -6 32
10 13 17 -20 17 -20 11 3 -4 14 -2 22 5 22 9 0 10 -11 6 -35z"/>
<path d="M1991 680 c-19 -11 -3 -19 82 -41 152 -39 155 -40 160 -72 3 -25 1
-28 -17 -22 -12 4 -34 8 -50 10 -15 2 -33 8 -39 14 -6 6 -21 11 -33 11 -12 0
-24 5 -26 12 -2 6 -19 11 -38 10 -19 0 -40 4 -47 10 -7 6 -13 7 -13 4 0 -4 -8
-2 -18 3 -12 6 -39 2 -91 -15 -41 -13 -92 -27 -113 -30 -21 -4 -38 -10 -38
-15 0 -14 47 -11 87 6 41 17 114 20 130 4 8 -8 13 -8 17 0 5 7 13 7 24 1 9 -5
53 -19 98 -30 85 -22 146 -52 142 -70 -2 -6 15 -18 37 -25 42 -15 78 -9 174
33 36 15 96 70 87 79 -3 3 -29 -4 -58 -15 -88 -35 -128 -43 -152 -30 -19 10
-56 46 -56 55 0 2 8 0 18 -5 25 -13 163 -15 192 -3 18 7 20 10 7 10 -10 1 -28
7 -40 15 -29 19 -145 38 -165 27 -9 -5 -23 -6 -31 -1 -33 15 -151 50 -170 50
-12 0 -21 4 -21 9 0 13 -25 20 -39 11z m309 -94 c0 -11 -19 -15 -25 -6 -3 5 1
10 9 10 9 0 16 -2 16 -4z m100 -16 c12 -8 9 -10 -12 -10 -16 0 -28 5 -28 10 0
13 20 13 40 0z"/>
<path d="M391 624 c0 -11 3 -14 6 -6 3 7 2 16 -1 19 -3 4 -6 -2 -5 -13z"/>
<path d="M0 603 c0 -23 5 -33 15 -33 19 0 19 21 0 46 -14 18 -14 17 -15 -13z"/>
<path d="M2810 626 c0 -17 -52 -214 -61 -229 -11 -21 -4 -37 17 -37 8 0 14 -5
14 -11 0 -7 -10 -9 -24 -7 -19 4 -31 -3 -52 -29 -39 -49 -204 -185 -308 -254
l-90 -59 347 0 347 0 0 304 0 304 -52 5 c-29 3 -72 8 -95 11 -24 4 -43 5 -43
2z m20 -110 c0 -2 -7 -6 -15 -10 -8 -3 -15 -1 -15 4 0 6 7 10 15 10 8 0 15 -2
15 -4z m13 -46 c7 0 8 -3 1 -10 -12 -12 -56 -1 -48 12 3 5 13 7 21 4 8 -3 20
-6 26 -6z m22 -60 c7 -12 -2 -12 -30 0 -19 8 -19 9 2 9 12 1 25 -3 28 -9z m12
-57 c3 -7 -4 -9 -16 -6 -12 3 -18 9 -15 15 7 11 26 6 31 -9z m-72 -54 c4 -6 5
-13 2 -16 -8 -8 -67 7 -67 18 0 13 57 11 65 -2z m89 2 c3 -5 -1 -11 -9 -14 -9
-4 -12 -1 -8 9 6 16 10 17 17 5z m-64 -72 c0 -5 -13 -9 -30 -9 -32 0 -41 16
-12 22 21 5 42 -1 42 -13z m-122 2 c11 -7 10 -10 -3 -15 -9 -3 -26 1 -38 9
l-21 15 24 0 c14 0 31 -4 38 -9z m13 -61 c5 0 9 -4 9 -10 0 -14 -13 -12 -36 6
-17 14 -17 15 -1 10 10 -3 23 -6 28 -6z m128 1 c7 -5 9 -11 4 -14 -13 -8 -53
3 -53 14 0 11 31 11 49 0z m-109 -67 c0 -2 -7 -4 -15 -4 -8 0 -15 4 -15 10 0
5 7 7 15 4 8 -4 15 -8 15 -10z m104 10 c23 -9 20 -24 -4 -24 -11 0 -20 7 -20
15 0 17 2 18 24 9z m51 -74 c4 -6 -5 -10 -19 -10 -14 0 -26 5 -26 10 0 6 9 10
19 10 11 0 23 -4 26 -10z"/>
<path d="M266 612 c-2 -4 11 -22 29 -40 23 -21 36 -28 41 -20 4 7 2 14 -4 16
-7 2 -12 10 -12 18 0 8 -7 14 -15 14 -8 0 -15 5 -15 10 0 12 -17 13 -24 2z"/>
<path d="M1240 600 c0 -5 5 -10 10 -10 6 0 10 5 10 10 0 6 -4 10 -10 10 -5 0
-10 -4 -10 -10z"/>
<path d="M1253 556 c-33 -16 -28 -26 12 -26 19 0 35 5 35 10 0 6 8 10 18 11
14 0 14 2 -3 9 -25 11 -34 10 -62 -4z"/>
<path d="M2651 546 c-9 -11 -10 -20 -1 -35 6 -12 7 -21 1 -21 -5 0 -14 -14
-20 -31 -14 -42 -14 -42 9 -29 11 6 24 8 29 5 14 -8 51 49 51 79 0 38 -46 60
-69 32z"/>
<path d="M1192 508 c5 -15 28 -23 28 -10 0 5 -7 13 -16 16 -10 4 -14 1 -12 -6z"/>
<path d="M472 460 c0 -14 2 -19 5 -12 2 6 2 18 0 25 -3 6 -5 1 -5 -13z"/>
<path d="M1660 410 c0 -5 7 -10 16 -10 8 0 12 5 9 10 -3 6 -10 10 -16 10 -5 0
-9 -4 -9 -10z"/>
<path d="M1712 388 c31 -26 29 -46 -5 -53 -73 -14 -116 -28 -111 -37 3 -5 24
-6 45 -3 22 4 62 4 89 0 40 -6 50 -11 50 -26 0 -11 8 -23 18 -26 9 -4 23 -15
30 -24 7 -10 19 -16 26 -13 15 6 163 -42 184 -59 12 -9 123 -37 165 -40 9 -1
20 -10 23 -20 8 -24 49 -16 124 25 67 37 91 67 96 121 2 23 1 36 -2 30 -3 -7
-10 -13 -16 -13 -5 0 -29 -16 -53 -36 -46 -37 -69 -42 -141 -30 -36 6 -43 4
-57 -17 -33 -51 -142 -11 -149 55 -3 30 -7 33 -58 46 -30 7 -62 20 -71 28 -20
18 -179 104 -193 104 -5 0 -3 -6 6 -12z m158 -106 c0 -4 20 -13 45 -20 53 -14
95 -39 94 -56 0 -7 -2 -6 -6 2 -2 6 -20 12 -39 12 -20 0 -51 11 -74 26 -38 26
-51 44 -30 44 6 0 10 -4 10 -8z"/>
<path d="M445 370 c3 -5 10 -10 16 -10 5 0 9 5 9 10 0 6 -7 10 -16 10 -8 0
-12 -4 -9 -10z"/>
<path d="M1300 315 c0 -8 -18 -27 -40 -41 -22 -15 -40 -31 -40 -36 0 -5 -4 -7
-9 -4 -5 3 -11 -3 -14 -14 -8 -32 13 -35 39 -4 23 26 34 31 77 36 9 1 20 10
23 20 3 10 14 18 25 18 11 0 17 5 14 10 -3 6 -15 10 -26 10 -10 0 -19 5 -19
10 0 6 -7 10 -15 10 -8 0 -15 -7 -15 -15z"/>
<path d="M1173 176 c5 -13 -34 -32 -56 -27 -5 1 -6 -3 -2 -9 4 -6 19 -4 43 5
44 19 46 21 37 34 -9 16 -28 13 -22 -3z"/>
<path d="M1480 66 c-14 -9 -35 -15 -47 -16 -31 0 -146 -30 -158 -41 -5 -5 144
-9 370 -8 211 0 369 4 355 9 -190 61 -192 62 -345 66 -121 4 -155 2 -175 -10z"/>
<path d="M2320 60 c-13 -11 -28 -20 -34 -20 -6 0 -22 -9 -36 -20 -23 -18 -23
-20 -5 -20 17 0 120 78 104 80 -3 0 -16 -9 -29 -20z"/>
</g>
</svg>
