<?xml version="1.0" standalone="no"?>
<!DOCTYPE svg PUBLIC "-//W3C//DTD SVG 20010904//EN"
 "http://www.w3.org/TR/2001/REC-SVG-20010904/DTD/svg10.dtd">
<svg version="1.0" xmlns="http://www.w3.org/2000/svg"
 width="275.000000pt" height="183.000000pt" viewBox="0 0 275.000000 183.000000"
 preserveAspectRatio="xMidYMid meet">

<g transform="translate(0.000000,183.000000) scale(0.100000,-0.100000)"
fill="#000000" stroke="none">
<path d="M0 915 l0 -915 646 0 c512 0 645 3 641 13 -2 6 -10 11 -16 9 -15 -3
-13 39 2 60 7 9 20 16 28 16 42 -3 52 2 38 18 -7 8 -21 13 -31 11 -10 -3 -18
-1 -18 4 0 12 37 11 45 -1 7 -11 25 -4 25 8 -1 36 -64 51 -81 20 -9 -16 -17
-19 -45 -13 -19 3 -34 2 -34 -3 0 -8 -37 -4 -85 8 -20 5 -36 0 -30 -10 4 -6
12 -8 18 -4 7 3 3 -1 -7 -10 -10 -8 -24 -13 -29 -9 -6 4 -8 0 -4 -9 5 -16 -9
-38 -26 -38 -5 0 -7 8 -5 17 5 26 -72 63 -133 63 -53 0 -61 -13 -23 -40 18
-12 19 -17 8 -28 -11 -10 -15 -8 -24 9 -9 15 -15 18 -25 9 -8 -6 -16 -7 -19
-2 -3 5 -21 12 -41 15 -19 3 -42 13 -51 22 -9 9 -26 15 -38 14 -11 -2 -34 5
-51 14 l-30 16 30 2 c17 1 43 3 58 3 16 1 31 6 35 12 4 6 25 14 47 18 22 4 50
10 63 13 17 4 21 2 16 -11 -4 -11 -1 -16 10 -16 10 0 13 6 10 15 -5 11 1 15
20 15 14 0 26 4 26 10 0 5 26 8 59 7 58 -2 59 -3 59 -30 -1 -29 -18 -50 -18
-21 0 14 -2 14 -16 3 -9 -7 -31 -12 -49 -10 -18 1 -36 -2 -39 -7 -3 -5 37 -9
94 -10 90 0 122 7 88 21 -10 4 -10 6 0 6 7 1 10 6 6 13 -5 8 -2 9 10 5 14 -5
15 -3 6 12 -8 15 -5 20 13 25 41 11 74 6 92 -14 16 -18 14 -25 -7 -21 -11 1
-10 -11 2 -29 8 -13 12 -12 30 6 20 20 20 22 5 38 -10 9 -14 20 -11 24 4 4 16
-4 26 -18 11 -14 20 -20 20 -13 0 6 -4 15 -10 18 -5 3 -10 15 -10 25 0 21 -33
86 -56 110 -10 10 -14 10 -14 2 0 -7 -4 -12 -10 -12 -5 0 -7 7 -4 15 4 8 1 15
-5 15 -6 0 -11 -11 -11 -25 0 -14 -5 -25 -11 -25 -7 0 -9 8 -4 23 15 50 17 67
6 67 -6 0 -17 -13 -26 -30 -9 -16 -17 -30 -19 -30 -10 0 8 46 22 57 14 11 13
15 -6 32 -12 10 -22 25 -22 33 0 18 -40 53 -60 53 -10 0 -14 -9 -13 -28 1 -17
-2 -25 -9 -21 -6 4 -8 23 -5 45 5 38 -11 77 -29 67 -12 -6 -46 30 -34 37 4 3
10 2 13 -2 2 -5 2 -2 0 6 -4 17 23 61 38 61 7 0 6 -6 -2 -16 -12 -15 -11 -16
11 -9 14 4 32 14 41 21 8 8 25 14 36 14 12 0 23 7 27 15 3 8 15 15 26 15 21 0
82 59 74 72 -11 17 -37 6 -71 -29 -19 -21 -33 -31 -30 -22 4 13 1 15 -14 12
-10 -3 -19 -10 -19 -15 0 -6 -7 -5 -15 2 -13 11 -14 10 -9 -4 5 -13 -1 -16
-37 -16 l-44 0 30 25 c17 13 33 24 36 25 4 0 9 9 12 20 4 14 0 20 -11 20 -10
0 -23 4 -30 9 -11 7 -11 11 0 22 7 8 15 21 17 29 5 24 9 44 10 53 1 5 9 6 19
3 9 -3 39 -7 65 -7 29 -2 46 -6 44 -13 -2 -6 -8 -11 -13 -11 -14 0 -34 -15
-34 -25 0 -5 7 -7 15 -4 17 7 21 -21 5 -31 -18 -11 -10 -22 15 -21 35 2 46 19
46 67 0 16 3 16 39 1 32 -14 37 -20 28 -35 -8 -15 -6 -18 9 -16 10 2 24 0 31
-4 7 -5 12 -3 12 3 0 7 6 10 14 7 24 -10 28 7 5 24 l-22 16 21 21 c11 11 18
23 16 26 -2 4 2 2 8 -4 20 -17 27 -12 34 27 6 32 3 40 -19 59 -36 31 -43 87
-15 114 22 21 43 17 34 -6 -3 -9 1 -14 14 -14 10 0 22 -5 26 -12 5 -7 2 -9 -9
-5 -18 7 -42 -17 -33 -32 4 -6 13 -8 21 -5 8 4 12 10 9 15 -5 9 17 13 45 9 13
-1 13 1 2 14 -11 13 -11 16 1 16 8 0 18 -4 23 -9 16 -15 110 -17 101 -3 -2 4
0 14 5 22 9 13 10 13 8 0 -3 -33 2 -50 16 -50 9 0 12 6 8 17 -6 14 -3 14 20
-3 17 -12 25 -26 23 -37 -3 -13 0 -16 12 -13 9 3 29 8 44 11 14 4 34 15 43 25
16 17 15 19 -5 30 -12 7 -20 7 -16 2 13 -21 -5 -42 -30 -36 -16 4 -24 2 -24
-7 0 -7 -2 -10 -5 -7 -9 8 17 58 29 58 6 0 17 9 24 20 11 18 9 20 -16 25 -15
3 -45 11 -66 16 -33 9 -42 8 -52 -5 -12 -17 -29 -23 -19 -6 3 6 -1 10 -9 10
-9 0 -16 -6 -16 -12 0 -10 -2 -10 -9 0 -10 16 -57 7 -83 -16 -23 -19 -71 -8
-66 16 4 22 59 43 65 25 3 -7 16 -13 29 -13 19 0 24 5 24 25 0 28 8 31 113 39
46 4 81 13 105 28 20 12 53 23 74 24 33 2 38 -1 33 -15 -6 -19 30 -59 42 -48
3 4 1 7 -5 7 -7 0 -12 6 -12 13 0 8 10 13 22 13 14 -1 24 6 26 18 3 14 0 17
-12 13 -14 -5 -15 -3 -6 13 9 16 8 18 -5 14 -28 -11 -16 11 13 24 37 16 55 52
36 70 -8 7 -14 22 -14 33 0 50 82 28 100 -27 9 -27 8 -40 -4 -65 -9 -18 -16
-43 -16 -56 0 -13 -6 -23 -13 -23 -8 0 -28 -7 -45 -15 -23 -12 -30 -21 -27
-37 3 -12 0 -27 -6 -34 -7 -9 -5 -15 8 -22 10 -6 15 -13 12 -16 -3 -3 -21 5
-39 19 -42 31 -64 33 -57 5 3 -11 0 -20 -6 -21 -7 0 -3 -4 8 -9 17 -7 16 -9
-10 -9 -49 -2 -59 -13 -35 -43 21 -27 25 -39 13 -37 -19 3 -31 -2 -37 -16 -4
-10 1 -15 15 -15 11 0 17 5 14 10 -3 6 4 10 16 10 18 0 19 -2 9 -15 -7 -8 -9
-15 -4 -15 5 0 2 -5 -6 -10 -12 -7 -12 -12 -2 -22 18 -18 16 -49 -3 -41 -9 3
-15 2 -14 -3 4 -18 -13 -64 -22 -58 -5 3 -12 -2 -15 -10 -8 -21 -20 -20 -28 1
-4 10 -1 20 8 25 12 7 13 13 4 33 -6 14 -17 25 -23 25 -7 0 -20 11 -28 24 -30
45 -108 42 -164 -7 l-23 -20 26 -14 c31 -16 37 -16 29 -3 -3 6 -1 10 6 10 8 0
8 4 -1 15 -17 21 -5 31 14 12 8 -8 12 -18 8 -22 -4 -4 -7 -12 -7 -18 0 -11
-15 -14 -91 -16 -20 -1 -31 -6 -31 -16 0 -11 4 -12 11 -5 12 12 46 14 46 3 -1
-5 -17 -18 -37 -31 -28 -18 -46 -22 -84 -18 -27 2 -52 0 -55 -5 -3 -5 -9 -7
-13 -5 -15 9 -2 -58 13 -70 22 -16 20 -27 -2 -15 -11 6 -23 6 -28 1 -5 -4 -20
-10 -34 -12 -14 -2 -25 -10 -25 -18 0 -8 -8 -15 -18 -15 -10 0 -23 -9 -30 -20
-9 -18 -9 -19 6 -6 29 23 33 2 9 -41 -23 -39 -24 -57 -2 -43 6 4 9 13 6 21 -6
16 10 28 25 19 17 -11 -31 -56 -53 -49 -11 3 -18 0 -18 -8 0 -8 -4 -6 -11 5
-5 9 -8 21 -5 26 7 11 -55 21 -83 14 -12 -3 -21 -9 -21 -13 0 -5 14 -5 31 0
l31 9 -18 -22 c-11 -12 -23 -25 -29 -29 -19 -14 7 -21 84 -24 44 -1 84 -5 90
-9 6 -3 14 0 17 8 6 16 44 11 56 -7 5 -7 8 -4 8 8 0 12 5 16 16 12 9 -3 38 5
66 19 27 14 54 25 58 25 20 0 -26 -58 -54 -68 -39 -15 -29 -23 34 -27 35 -3
56 -10 66 -22 17 -23 18 -53 2 -53 -10 0 -9 -3 1 -9 10 -6 10 -10 1 -16 -8 -5
-5 -14 11 -31 12 -13 18 -24 12 -24 -6 0 -21 12 -33 28 -17 22 -20 23 -17 7 2
-11 -4 -41 -14 -66 -14 -36 -15 -49 -6 -60 10 -11 9 -11 -4 -1 -9 6 -19 9 -22
5 -12 -12 -7 -22 15 -29 19 -6 19 -7 5 -16 -10 -5 -22 -6 -27 -3 -6 3 -13 0
-16 -9 -3 -8 -12 -17 -20 -20 -12 -5 -14 -1 -8 17 4 12 11 25 17 28 5 4 7 11
3 17 -3 5 1 15 9 22 18 15 17 77 -3 85 -9 3 -12 0 -9 -8 7 -18 -27 -47 -53
-47 -12 0 -23 7 -26 15 -10 24 -26 17 -18 -7 8 -29 21 -37 45 -31 11 3 19 0
19 -7 0 -6 -9 -14 -20 -17 -24 -6 -26 -21 -5 -30 18 -6 14 -65 -4 -71 -15 -5
-1 -32 18 -32 14 0 14 -2 1 -10 -8 -5 -10 -10 -5 -11 6 0 1 -4 -10 -9 -13 -6
-6 -7 24 -3 42 6 43 5 32 -16 -12 -21 -49 -42 -82 -45 -13 -1 -49 -28 -49 -38
0 -2 78 -3 172 -2 95 0 157 -2 138 -6 -19 -4 229 -8 553 -9 l587 -1 0 915 0
915 -1375 0 -1375 0 0 -915z m1806 783 c-11 -52 -46 -116 -84 -154 -19 -19
-31 -34 -28 -34 4 0 0 -13 -9 -29 -9 -18 -12 -41 -9 -60 5 -24 1 -39 -18 -63
-13 -18 -28 -42 -32 -53 l-8 -20 -8 20 c-7 17 -9 16 -9 -9 l-1 -29 -21 27
c-13 16 -30 26 -47 26 l-27 0 32 20 c40 24 53 48 53 98 0 31 7 47 35 76 33 36
59 73 60 88 0 10 85 88 96 88 6 0 7 5 4 10 -3 6 0 10 9 10 8 0 13 -6 12 -12z
m179 -168 c3 -6 -1 -13 -10 -16 -19 -8 -30 0 -20 15 8 14 22 14 30 1z m-1174
-99 c18 -17 59 -95 80 -149 9 -25 17 -32 30 -29 10 3 26 -1 36 -9 14 -11 15
-13 2 -8 -11 3 -23 -6 -38 -31 -23 -40 -27 -55 -9 -37 18 18 25 15 32 -13 4
-14 13 -25 20 -25 8 0 16 -6 19 -14 4 -9 15 -12 34 -9 32 6 33 8 -55 -67 -34
-29 -72 -54 -84 -55 -12 -1 -24 -7 -26 -15 -3 -7 0 -10 7 -6 6 4 12 1 12 -6 1
-7 2 -17 4 -23 1 -5 3 -27 3 -48 2 -35 4 -37 27 -31 27 7 33 -4 13 -24 -9 -9
-8 -12 6 -12 11 0 25 8 32 18 10 12 13 13 14 3 0 -8 -8 -20 -17 -27 -17 -12
-17 -13 2 -31 21 -19 22 -28 10 -79 -8 -37 -50 -92 -61 -81 -4 4 -2 13 4 19 7
7 12 27 12 46 0 30 -2 33 -15 22 -8 -7 -15 -9 -15 -4 0 5 -11 -4 -25 -19 -14
-15 -33 -27 -42 -27 -11 0 -14 -7 -11 -25 3 -13 1 -22 -3 -19 -5 3 -9 16 -9
29 0 16 7 25 24 29 14 3 27 15 31 25 3 11 12 22 20 25 18 7 20 50 2 68 -7 7
-19 31 -27 52 -17 44 -40 59 -40 27 0 -12 -7 -24 -15 -28 -24 -8 -30 4 -11 22
24 25 20 64 -7 74 -13 5 -30 9 -38 8 -30 -1 -79 16 -79 29 0 7 -14 22 -30 34
-17 12 -28 25 -25 30 2 4 -7 16 -20 26 -14 10 -25 23 -25 28 0 4 7 3 15 -4 14
-11 19 -7 16 12 0 4 16 7 37 6 41 -1 92 -30 137 -77 l30 -32 12 33 c18 50 16
64 -17 100 -17 18 -29 40 -27 50 5 17 -35 63 -45 52 -11 -10 -37 41 -39 76 -2
19 -7 41 -12 48 -18 23 0 22 28 -2 20 -18 37 -23 62 -21 19 2 36 5 39 7 2 3
-9 30 -25 60 l-30 55 27 -5 c14 -3 34 -12 43 -21z m669 -121 c-8 -5 -19 -10
-25 -10 -5 0 -3 5 5 10 8 5 20 10 25 10 6 0 3 -5 -5 -10z m-100 -45 c-6 -8
-22 -17 -33 -21 -69 -20 -104 -42 -94 -59 3 -6 -36 -34 -50 -35 -6 0 -14 8
-16 18 -4 14 -6 14 -12 -5 -4 -13 -15 -23 -24 -23 -9 0 -21 -8 -28 -19 -8 -13
-19 -17 -38 -14 -22 5 -24 8 -13 21 7 8 27 21 43 28 17 8 41 23 55 34 21 17
23 21 10 30 -9 6 -10 10 -3 10 6 0 15 -4 18 -10 3 -5 44 5 98 24 51 19 94 35
96 35 2 1 -2 -6 -9 -14z m267 9 c-3 -3 -12 -4 -19 -1 -8 3 -5 6 6 6 11 1 17
-2 13 -5z m378 -4 c-3 -5 -14 -10 -23 -10 -15 0 -15 2 -2 10 20 13 33 13 25 0z
m-31 -36 c4 -10 1 -14 -6 -12 -15 5 -23 28 -10 28 5 0 13 -7 16 -16z m-950 -3
c3 -5 -1 -11 -9 -15 -9 -3 -15 0 -15 9 0 16 16 20 24 6z m406 -1 c0 -5 -2 -10
-4 -10 -3 0 -8 5 -11 10 -3 6 -1 10 4 10 6 0 11 -4 11 -10z m227 -55 c0 -8 -4
-15 -9 -15 -10 0 -11 14 -1 23 9 10 10 9 10 -8z m60 -1 c-3 -3 -12 -4 -19 -1
-8 3 -5 6 6 6 11 1 17 -2 13 -5z m-1216 -44 c13 0 17 -5 12 -17 -4 -11 -8 -12
-11 -5 -2 7 -9 12 -16 12 -7 0 -23 12 -37 27 l-24 27 29 -22 c16 -12 37 -22
47 -22z m794 2 c6 -4 12 -18 13 -32 2 -14 9 -31 14 -38 8 -9 3 -19 -16 -38
-29 -30 -34 -25 -10 11 15 23 15 25 0 25 -9 0 -16 5 -16 10 0 15 -19 12 -36
-5 -23 -22 -31 -18 -36 16 -4 26 -1 32 26 44 37 16 48 17 61 7z m575 -124 c0
-16 -3 -19 -11 -11 -6 6 -8 16 -5 22 11 17 16 13 16 -11z m-560 -38 c0 -5 -12
-10 -26 -10 -14 0 -23 4 -19 10 3 6 15 10 26 10 10 0 19 -4 19 -10z m404 -80
c19 -7 26 -17 26 -36 0 -22 -3 -24 -14 -15 -12 10 -13 8 -9 -10 5 -17 3 -21
-9 -16 -11 4 -18 -2 -22 -20 -5 -18 -10 -22 -19 -15 -9 8 -13 1 -13 -29 -1
-22 -7 -46 -13 -52 -6 -6 -11 -20 -11 -30 0 -11 -10 -28 -22 -38 -19 -17 -40
-27 -25 -13 3 4 2 14 -3 23 -6 13 -22 16 -72 15 -35 -1 -73 -5 -85 -9 -32 -10
-29 8 8 44 30 31 52 36 134 33 17 -1 24 1 18 4 -7 3 -13 13 -13 21 0 11 3 13
13 5 8 -7 18 -7 27 -1 13 8 13 10 0 19 -22 14 -47 12 -54 -5 -10 -27 -24 -16
-23 18 2 28 6 32 32 35 33 4 65 28 65 49 0 7 10 18 23 23 29 12 31 12 61 0z
m-367 -62 c-3 -8 -6 -5 -6 6 -1 11 2 17 5 13 3 -3 4 -12 1 -19z m-14 -152 c6
-16 -2 -28 -14 -20 -12 7 -11 34 0 34 5 0 11 -6 14 -14z m-755 -278 c-3 -14
-41 -48 -47 -42 -3 3 40 53 47 54 1 0 1 -5 0 -12z m957 -79 c11 -16 1 -19 -13
-3 -7 8 -8 14 -3 14 5 0 13 -5 16 -11z m155 -44 c0 -17 30 -35 59 -35 14 0 21
6 21 20 0 24 25 26 46 5 10 -9 26 -12 47 -9 l32 6 -40 -26 c-22 -14 -35 -26
-29 -26 15 0 25 -52 13 -64 -6 -6 -14 -5 -21 2 -10 10 -10 17 0 32 10 17 10
20 -3 20 -8 0 -15 -4 -15 -9 0 -19 -41 -23 -65 -7 -29 19 -39 20 -29 5 4 -7 1
-10 -6 -7 -21 7 -61 -34 -48 -49 8 -10 5 -13 -10 -13 -12 0 -24 -5 -27 -10 -4
-6 -11 -7 -17 -4 -6 4 -1 12 13 20 13 7 20 14 14 14 -28 4 -63 11 -90 19 -24
8 -15 9 48 10 76 1 102 14 52 27 -14 3 -30 14 -36 23 -7 12 -12 13 -15 3 -3
-6 -10 -10 -14 -7 -5 3 -18 -2 -29 -12 -36 -33 -50 -43 -61 -43 -17 0 -11 14
11 29 18 10 19 15 8 22 -11 7 -8 9 9 9 15 0 22 6 22 20 0 11 5 20 11 20 5 0 7
-5 3 -12 -5 -8 0 -9 17 -5 13 4 37 7 52 7 16 0 26 4 22 10 -3 6 4 14 17 19 33
14 38 13 38 -4z m-170 -19 c0 -3 -4 -8 -10 -11 -5 -3 -10 -1 -10 4 0 6 5 11
10 11 6 0 10 -2 10 -4z m490 -22 c0 -8 0 -17 -1 -20 0 -4 10 -12 23 -18 18 -9
29 -9 51 2 15 7 25 17 23 21 -3 4 13 7 34 6 30 0 37 -3 35 -17 -3 -15 0 -16
23 -7 30 12 92 3 92 -12 0 -6 -10 -9 -22 -7 -16 2 -22 -3 -23 -20 -1 -18 2
-22 16 -19 10 3 20 -1 23 -9 9 -23 -34 -16 -70 11 -36 28 -66 32 -83 12 -9
-11 -5 -14 20 -15 17 0 34 -3 37 -7 10 -9 -15 -27 -48 -34 -49 -10 -35 -26 27
-30 l58 -4 -80 -12 c-83 -13 -105 -11 -86 8 14 14 14 47 0 47 -8 0 -8 5 1 15
7 8 20 15 28 15 13 0 12 3 -4 15 -10 8 -38 15 -60 15 -29 0 -44 5 -48 16 -4
11 -14 15 -30 12 -19 -4 -24 -1 -21 14 2 10 -2 18 -8 18 -7 0 -6 4 3 9 23 15
90 11 90 -5z m-962 -18 c-7 -8 -15 -12 -17 -11 -5 6 10 25 20 25 5 0 4 -6 -3
-14z m389 -11 c-4 -8 -2 -17 3 -20 6 -4 10 -12 10 -18 0 -7 -5 -4 -11 6 -10
16 -12 16 -29 -5 -16 -20 -19 -20 -20 -5 0 9 4 17 9 17 5 0 13 9 16 20 3 11
11 20 17 20 5 0 8 -7 5 -15z m920 -29 c11 3 7 -4 -12 -20 -35 -30 -41 -31 -49
-11 -3 9 1 15 11 15 13 0 14 2 2 17 -13 15 -12 15 8 5 12 -7 30 -9 40 -6z
m-387 -16 c0 -12 -7 -20 -17 -20 -13 0 -14 -3 -5 -12 24 -24 12 -31 -40 -23
-29 4 -73 7 -98 7 -51 -2 -131 18 -124 30 3 4 16 8 30 8 14 0 23 4 19 9 -6 11
41 -1 74 -18 16 -9 26 -8 45 4 13 9 43 19 67 24 24 5 45 9 47 10 1 1 2 -8 2
-19z m-1483 -3 c-3 -10 3 -12 23 -9 18 3 29 -1 33 -12 4 -9 1 -16 -6 -17 -7 0
-2 -4 11 -9 12 -5 32 -6 45 -2 34 11 141 -4 132 -18 -6 -9 11 -16 65 -25 33
-6 137 6 188 21 14 4 22 2 22 -5 0 -7 -6 -9 -12 -6 -7 4 -4 -1 7 -10 24 -19
82 -14 121 11 35 24 53 13 45 -27 l-6 -32 -190 -3 c-105 -1 -230 2 -280 7
-137 15 -268 38 -278 48 -17 17 3 61 36 81 37 23 51 25 44 7z m1050 -24 c4
-10 11 -22 17 -26 6 -5 -5 -6 -24 -2 -19 3 -45 6 -57 5 -13 0 -23 4 -23 8 0
32 76 45 87 15z m-304 -10 c-7 -2 -19 -2 -25 0 -7 3 -2 5 12 5 14 0 19 -2 13
-5z m-414 -30 c10 8 13 8 8 0 -4 -6 -1 -14 5 -16 7 -3 1 -6 -13 -6 -17 -1 -29
6 -34 17 -5 13 -4 14 6 5 10 -10 16 -10 28 0z m1478 -19 c-3 -3 -12 -4 -19 -1
-8 3 -5 6 6 6 11 1 17 -2 13 -5z m-342 -45 c-16 -5 -79 -11 -140 -15 -90 -5
-113 -4 -122 8 -11 13 7 15 140 15 102 1 142 -2 122 -8z"/>
<path d="M766 1274 c-11 -8 -16 -14 -10 -14 13 0 39 18 34 24 -3 2 -14 -2 -24
-10z"/>
<path d="M875 1110 c-4 -6 0 -10 7 -10 9 -1 7 -5 -4 -14 -10 -7 -21 -27 -24
-45 -6 -31 -6 -31 20 -21 65 24 67 27 48 60 -19 32 -38 45 -47 30z"/>
<path d="M931 684 c0 -11 3 -14 6 -6 3 7 2 16 -1 19 -3 4 -6 -2 -5 -13z"/>
<path d="M1780 205 c0 -9 6 -12 15 -9 8 4 12 10 9 15 -8 14 -24 10 -24 -6z"/>
<path d="M1885 140 c-3 -5 1 -10 10 -10 9 0 13 5 10 10 -3 6 -8 10 -10 10 -2
0 -7 -4 -10 -10z"/>
<path d="M1766 1232 c24 -22 54 -35 54 -22 0 9 -51 40 -66 40 -4 0 1 -8 12
-18z"/>
<path d="M1770 1019 c0 -5 5 -7 10 -4 6 3 10 8 10 11 0 2 -4 4 -10 4 -5 0 -10
-5 -10 -11z"/>
<path d="M1485 970 c-3 -6 1 -7 9 -4 18 7 21 14 7 14 -6 0 -13 -4 -16 -10z"/>
<path d="M1417 938 c-8 -28 -2 -34 17 -19 8 7 21 9 27 5 8 -4 9 -3 5 4 -4 7
-15 16 -25 22 -15 8 -20 5 -24 -12z"/>
<path d="M1060 920 c-8 -5 -12 -11 -9 -14 3 -3 14 1 25 9 21 16 8 20 -16 5z"/>
<path d="M1270 850 c0 -5 4 -10 9 -10 6 0 13 5 16 10 3 6 -1 10 -9 10 -9 0
-16 -4 -16 -10z"/>
<path d="M1250 785 c-7 -9 -10 -19 -6 -22 8 -9 38 9 44 25 5 17 -23 15 -38 -3z"/>
<path d="M1305 551 c-3 -6 -22 -11 -41 -11 -27 0 -34 -4 -34 -20 0 -16 7 -20
35 -20 38 0 42 -5 21 -29 -8 -9 -17 -34 -21 -56 l-6 -40 20 24 c12 13 21 18
21 12 0 -17 20 -13 27 5 3 9 0 20 -8 26 -10 7 -11 11 -2 14 7 3 23 14 37 25
22 17 24 23 14 44 -6 14 -15 25 -19 25 -4 0 -14 3 -22 6 -8 3 -18 1 -22 -5z"/>
<path d="M1476 505 c4 -9 1 -15 -7 -15 -18 0 0 -16 27 -24 15 -5 21 -2 21 11
0 10 -4 24 -10 31 -14 17 -38 15 -31 -3z"/>
<path d="M795 200 c-3 -5 -12 -7 -20 -3 -8 3 -15 0 -15 -7 0 -8 8 -10 23 -6
12 3 25 6 30 6 11 0 9 20 -2 20 -6 0 -12 -4 -16 -10z"/>
<path d="M830 190 c0 -5 10 -10 23 -10 18 0 19 2 7 10 -19 13 -30 13 -30 0z"/>
<path d="M1255 190 c-3 -5 -2 -10 4 -10 5 0 13 5 16 10 3 6 2 10 -4 10 -5 0
-13 -4 -16 -10z"/>
</g>
</svg>
