<?xml version="1.0" standalone="no"?>
<!DOCTYPE svg PUBLIC "-//W3C//DTD SVG 20010904//EN"
 "http://www.w3.org/TR/2001/REC-SVG-20010904/DTD/svg10.dtd">
<svg version="1.0" xmlns="http://www.w3.org/2000/svg"
 width="275.000000pt" height="183.000000pt" viewBox="0 0 275.000000 183.000000"
 preserveAspectRatio="xMidYMid meet">

<g transform="translate(0.000000,183.000000) scale(0.100000,-0.100000)"
fill="#000000" stroke="none">
<path d="M0 1302 l1 -528 37 36 c28 26 56 40 107 53 86 21 85 21 85 -3 0 -11
3 -19 8 -19 4 1 14 1 22 0 12 -1 12 -4 -2 -12 -10 -5 -18 -17 -18 -25 0 -27
-41 -76 -58 -69 -25 9 -50 -4 -57 -33 -8 -34 -24 -54 -37 -46 -5 4 -27 -2 -49
-12 l-39 -19 0 -70 c0 -67 1 -71 29 -86 27 -16 31 -16 61 3 36 21 63 17 58 -8
-4 -21 50 -42 107 -43 22 -1 57 -10 78 -21 24 -13 46 -18 62 -14 15 4 25 2 25
-4 0 -15 -40 -26 -52 -14 -7 7 -21 0 -43 -21 l-32 -32 19 -33 c19 -31 19 -32
1 -39 -10 -3 -22 -11 -26 -17 -5 -7 -13 -4 -23 10 -13 19 -19 20 -59 11 -25
-6 -45 -14 -45 -18 0 -7 -69 -52 -82 -53 -3 -1 -10 -4 -14 -8 -13 -13 -29 -9
-42 12 -16 27 19 121 53 144 14 9 25 24 25 33 0 9 -2 14 -5 11 -3 -3 -20 8
-38 24 -17 17 -33 25 -35 19 -2 -6 -8 -9 -13 -5 -5 3 -9 -79 -9 -201 l0 -206
133 2 c74 1 140 7 151 13 34 20 87 80 82 93 -4 9 6 13 33 13 44 0 73 -8 66
-19 -2 -5 16 -18 41 -31 34 -17 43 -25 34 -34 -8 -8 -14 -6 -21 7 -8 14 -14
16 -24 7 -10 -8 -27 -9 -60 -2 -39 8 -45 7 -45 -7 1 -38 6 -39 347 -40 289 -1
333 1 333 14 0 19 24 19 40 0 14 -17 100 -21 100 -6 0 6 18 21 40 34 22 13 37
28 33 32 -5 5 0 3 9 -4 15 -11 15 -15 3 -27 -7 -8 -21 -14 -29 -14 -9 0 -16
-4 -16 -9 0 -22 175 -30 183 -8 3 9 9 9 26 0 11 -7 48 -13 82 -13 53 0 60 2
49 15 -11 13 -8 14 21 9 19 -4 39 -11 45 -15 16 -13 565 -9 558 3 -3 5 -12 7
-19 4 -8 -3 -19 2 -25 9 -10 12 -9 16 6 21 35 11 49 22 46 37 -1 8 7 17 18 20
15 4 20 0 20 -14 0 -10 7 -19 15 -19 8 0 15 -8 15 -18 0 -55 181 -73 221 -23
24 30 24 38 -2 52 -15 8 -19 8 -15 0 5 -7 -9 -11 -43 -11 -30 0 -51 5 -53 12
-3 9 -12 8 -31 -5 -14 -9 -33 -17 -41 -17 -21 0 -30 18 -17 34 6 7 8 27 5 44
-6 29 -4 31 30 38 28 5 51 0 94 -18 34 -15 73 -24 97 -23 129 5 126 4 123 22
-2 10 -14 28 -28 41 -21 19 -32 22 -67 18 -23 -3 -45 -1 -48 4 -3 6 2 10 11
10 16 0 15 2 -2 22 -15 17 -16 20 -3 16 12 -5 15 -1 11 17 -5 28 31 68 56 62
15 -4 15 -5 0 -6 -33 -2 -18 -17 31 -32 31 -10 57 -12 72 -7 15 6 25 5 30 -3
4 -6 12 -8 18 -5 16 10 13 46 -4 47 -8 1 -21 2 -27 3 -7 0 -14 11 -16 23 -2
16 1 21 15 19 38 -6 58 49 27 74 -18 16 -136 22 -127 7 4 -6 -2 -8 -13 -5 -17
4 -19 1 -16 -23 2 -16 9 -29 14 -29 5 0 6 -5 3 -10 -4 -7 -13 -6 -26 1 -11 5
-29 7 -39 4 -27 -9 -40 23 -17 40 10 7 17 16 17 20 0 4 -6 3 -13 -4 -10 -8
-17 -7 -25 1 -13 13 13 58 34 58 8 0 14 5 14 10 0 9 -31 15 -55 10 -5 -1 -7 2
-3 6 11 10 -23 33 -49 34 -13 0 -23 -6 -23 -12 0 -8 -3 -9 -8 -3 -8 12 -37 13
-48 2 -4 -4 -14 -7 -23 -7 -21 1 69 49 92 50 10 0 20 7 23 15 15 37 64 -2 64
-50 0 -18 4 -18 45 -4 26 10 38 9 68 -6 20 -9 37 -24 37 -31 0 -8 5 -14 12
-14 6 0 26 -11 45 -26 l33 -25 0 282 0 281 -24 -15 c-17 -12 -38 -14 -79 -10
-42 4 -61 2 -78 -11 -29 -20 -58 -21 -65 -2 -3 8 -15 16 -26 19 -16 5 -19 11
-14 31 5 22 3 26 -15 26 -27 0 -19 24 9 28 12 2 20 7 18 11 -3 4 0 13 5 21 8
12 9 12 7 -3 -2 -10 7 -22 22 -30 15 -8 25 -21 25 -35 0 -20 19 -41 36 -42 4
0 14 20 23 45 19 48 55 84 117 116 l39 19 0 315 0 315 -1375 0 -1375 0 0 -528z
m645 389 c-3 -6 -11 -11 -17 -11 -6 0 -6 6 2 15 14 17 26 13 15 -4z m530 -1
c4 -6 15 -8 25 -5 10 3 22 1 25 -6 10 -15 -16 -30 -31 -18 -9 7 -25 7 -51 0
-57 -16 -73 -14 -73 9 0 18 4 20 34 15 20 -4 36 -2 40 4 9 14 23 14 31 1z
m-545 -24 c0 -3 -4 -8 -10 -11 -5 -3 -10 -1 -10 4 0 6 5 11 10 11 6 0 10 -2
10 -4z m-80 -26 c14 -11 30 -20 36 -20 7 0 14 -7 18 -15 3 -8 17 -15 31 -15
18 0 25 -5 25 -19 0 -33 -52 -38 -64 -5 -8 20 -75 18 -98 -3 -26 -24 -23 -43
9 -43 25 0 26 0 8 -20 -17 -19 -17 -21 -2 -38 10 -10 15 -21 12 -23 -2 -3 22
-18 55 -35 40 -19 58 -34 54 -43 -4 -13 11 -30 28 -31 13 0 -16 55 -39 73 -27
22 -29 35 -8 44 16 6 65 -42 65 -64 0 -6 9 -15 20 -18 25 -8 44 -41 30 -50 -6
-4 -17 -4 -25 -1 -9 3 -13 -2 -12 -15 1 -10 6 -19 12 -19 13 1 49 31 58 50 4
8 11 22 17 30 5 8 14 33 20 56 18 72 116 154 185 154 25 0 115 -63 115 -80 0
-11 -25 -6 -43 8 -11 10 -19 8 -40 -8 -14 -11 -33 -20 -43 -20 -30 0 -104 -86
-105 -123 -1 -17 -3 -39 -4 -47 -1 -8 -3 -26 -4 -40 0 -17 -11 -32 -31 -43
l-30 -18 35 -36 c28 -28 39 -34 60 -29 22 6 25 12 25 51 0 38 3 45 19 45 30 0
33 -15 10 -44 -30 -38 -11 -58 50 -54 26 1 45 -2 44 -7 -2 -6 -40 -12 -85 -15
l-82 -5 -42 45 c-22 25 -41 53 -41 63 0 9 3 15 5 12 9 -9 32 17 32 35 0 20
-31 32 -51 19 -8 -5 -17 -3 -22 4 -6 8 -7 8 -4 -3 2 -8 9 -15 15 -15 6 0 17
-6 24 -13 11 -11 10 -12 -6 -6 -15 6 -17 4 -11 -6 5 -8 4 -11 -3 -6 -6 3 -23
1 -39 -6 -15 -6 -46 -10 -68 -9 -22 1 -51 -2 -65 -8 -25 -10 -25 -10 -2 -12
12 -1 25 -3 30 -4 4 -1 22 -6 40 -10 17 -4 32 -14 32 -21 0 -8 0 -17 0 -21 0
-3 -19 -8 -42 -10 -23 -3 -53 -12 -67 -22 -14 -10 -35 -18 -45 -18 -11 0 -29
-12 -40 -26 -12 -15 -35 -44 -53 -64 -19 -22 -29 -41 -23 -47 5 -5 5 -18 0
-31 -10 -26 0 -44 32 -59 22 -10 23 -13 12 -46 -9 -27 -14 -31 -19 -18 -6 15
-10 15 -41 -4 -47 -27 -90 -32 -98 -11 -4 9 0 23 9 33 8 9 15 25 15 36 0 10 8
33 19 49 10 17 20 53 23 80 3 28 9 58 13 68 7 16 -1 17 -100 15 -80 -1 -104
-4 -93 -12 8 -6 13 -17 11 -23 -3 -7 0 -13 6 -13 6 0 11 -6 11 -14 0 -10 -9
-14 -24 -12 -36 4 -58 26 -52 51 3 13 -2 27 -14 38 -19 16 -19 17 2 64 11 26
27 56 35 65 8 9 18 45 23 80 13 111 62 174 157 205 28 9 54 23 57 32 12 33 57
106 73 119 23 16 34 15 63 -8z m945 -56 c18 -8 43 -26 55 -39 23 -24 59 -114
60 -147 0 -25 17 -22 55 10 18 15 47 39 65 55 17 15 36 27 40 27 5 0 12 9 15
20 4 14 15 20 36 20 19 0 37 9 51 25 11 13 25 22 30 19 14 -9 9 -44 -7 -50 -8
-4 -15 -12 -15 -19 0 -7 -13 -18 -30 -25 -36 -15 -38 -33 -6 -63 83 -78 107
-96 120 -91 8 3 25 -1 38 -10 31 -22 35 -21 49 21 14 45 75 162 97 186 8 9 22
17 30 17 19 0 115 -52 125 -68 5 -7 12 -10 18 -7 5 4 9 2 9 -4 0 -6 -12 -14
-27 -17 -39 -9 -86 -34 -79 -42 4 -3 29 -9 57 -12 49 -6 52 -6 61 21 5 15 16
30 24 33 9 4 13 13 10 23 -3 10 3 28 13 39 69 83 238 75 293 -15 25 -40 30
-130 8 -156 -12 -14 -15 -13 -31 4 -11 11 -19 25 -19 31 0 16 -77 12 -84 -5
-3 -8 -12 -15 -20 -15 -7 0 -20 -10 -28 -23 -14 -20 -13 -26 2 -54 10 -18 23
-39 29 -47 9 -11 5 -16 -19 -26 -16 -7 -30 -16 -30 -21 0 -5 -10 -13 -22 -20
-18 -10 -25 -7 -47 17 -59 65 -61 66 -117 45 -29 -11 -49 -25 -49 -34 0 -9 -4
-19 -8 -23 -12 -12 -8 -24 8 -24 9 0 20 10 24 23 8 20 10 20 16 4 8 -20 -10
-47 -32 -47 -7 0 -16 -7 -19 -15 -4 -8 -12 -15 -20 -15 -8 0 -14 -7 -14 -15 0
-8 -4 -15 -10 -15 -5 0 -7 -6 -4 -13 3 -8 17 -11 40 -9 35 4 124 -23 124 -38
0 -4 -17 -7 -39 -6 -21 0 -49 -5 -62 -11 -13 -6 -32 -14 -41 -16 -19 -7 -14
-47 8 -60 7 -4 18 -24 24 -45 13 -47 13 -65 0 -57 -5 3 -10 0 -10 -8 0 -22
-28 -25 -255 -26 -219 -1 -300 10 -351 47 -27 19 -31 42 -9 42 8 0 15 8 15 19
0 10 6 24 14 30 7 6 16 30 19 54 2 23 8 50 12 60 6 15 0 17 -51 18 -33 1 -62
1 -65 1 -3 -1 -11 10 -18 23 -6 14 -16 36 -22 49 -12 26 -4 83 16 106 7 8 16
30 20 48 5 25 3 32 -9 32 -10 0 -16 9 -16 23 0 28 -34 64 -45 47 -3 -5 -11 -8
-16 -5 -18 12 -8 -7 14 -25 22 -19 22 -19 1 -14 -12 3 -35 19 -50 35 -24 25
-30 27 -43 15 -17 -15 -18 -16 -53 -17 -18 0 -19 -2 -7 -7 14 -6 15 -9 3 -20
-8 -7 -14 -8 -14 -2 0 5 -4 10 -10 10 -5 0 -9 -6 -7 -12 1 -8 -6 -12 -18 -10
-18 2 -19 2 -2 -8 9 -6 22 -8 27 -5 6 3 10 4 10 1 0 -7 -56 -36 -67 -36 -4 1
3 7 17 15 l25 15 -30 -6 c-23 -5 -27 -4 -19 5 15 17 -2 84 -27 107 -17 15 -19
15 -25 0 -3 -9 -12 -16 -20 -16 -14 0 -44 39 -48 62 -1 7 -5 19 -9 26 -11 17
4 15 31 -4 21 -14 22 -14 22 6 0 16 5 19 23 15 17 -4 27 2 44 29 13 20 40 44
60 55 47 25 141 28 188 5z m-451 -129 c-4 -8 -12 -15 -20 -15 -8 0 -14 -4 -14
-8 0 -4 -14 -16 -31 -26 -19 -11 -28 -23 -25 -32 3 -8 -3 -23 -14 -34 -24 -24
-30 -25 -30 -5 0 8 5 15 10 15 6 0 8 10 5 23 -5 17 3 31 29 56 19 18 38 31 43
28 4 -2 17 -1 28 4 11 4 21 8 22 8 1 1 0 -6 -3 -14z m-1004 -185 c0 -5 -5 -10
-11 -10 -5 0 -7 5 -4 10 3 6 8 10 11 10 2 0 4 -4 4 -10z m1205 -70 c-3 -5 14
-10 37 -12 36 -2 44 -7 46 -25 3 -20 -1 -23 -27 -23 -17 0 -31 -4 -31 -8 0 -5
-18 -15 -40 -22 -46 -15 -90 -52 -90 -75 0 -8 -4 -15 -8 -15 -10 0 -34 -72
-37 -107 -3 -33 -23 -52 -54 -51 -16 1 -34 -3 -41 -7 -8 -5 -4 7 8 26 11 19
27 47 35 62 10 18 17 24 20 15 2 -7 2 8 0 33 -8 71 31 139 109 189 54 35 88
44 73 20z m275 -18 c0 -10 -3 -10 -14 0 -7 7 -11 19 -8 26 4 11 6 11 13 0 5
-7 9 -19 9 -26z m-715 -34 c8 -7 32 -26 54 -42 39 -29 44 -38 56 -118 l5 -33
-14 35 c-7 19 -11 38 -9 43 2 4 0 7 -5 7 -5 0 -21 18 -36 39 -20 29 -32 37
-47 34 -11 -3 -19 -2 -18 3 4 21 -2 35 -11 29 -5 -3 -10 -1 -10 4 0 15 18 14
35 -1z m-185 -31 c0 -2 -10 -12 -22 -23 l-23 -19 19 23 c18 21 26 27 26 19z
m240 -96 c0 -8 -13 3 -30 24 -16 21 -30 43 -30 48 0 16 59 -56 60 -72z m397
57 c-3 -8 -6 -5 -6 6 -1 11 2 17 5 13 3 -3 4 -12 1 -19z m251 -3 c14 -29 -2
-34 -18 -6 -12 24 -13 31 -2 31 5 0 14 -11 20 -25z m-978 1 c0 -2 -8 -10 -17
-17 -16 -13 -17 -12 -4 4 13 16 21 21 21 13z m673 -20 c-10 -13 -20 -19 -22
-13 -2 5 4 16 15 24 26 19 27 16 7 -11z m47 0 c0 -2 -8 -10 -17 -17 -16 -13
-17 -12 -4 4 13 16 21 21 21 13z m1160 -82 c0 -2 -12 -4 -26 -4 -14 0 -23 4
-20 9 6 8 46 4 46 -5z m-2200 -34 c0 -5 -4 -10 -10 -10 -5 0 -10 5 -10 10 0 6
5 10 10 10 6 0 10 -4 10 -10z m748 -63 c11 -23 17 -45 15 -49 -5 -9 -64 9 -77
23 -8 9 -6 9 10 1 33 -17 48 0 26 29 -10 13 -22 32 -25 42 -14 38 32 -3 51
-46z m641 25 c8 -15 3 -17 -35 -19 -24 -1 -44 3 -44 7 0 5 7 7 15 4 17 -7 48
20 37 31 -4 5 -1 5 5 1 7 -4 17 -15 22 -24z m-389 -32 c-26 -8 -12 -14 29 -10
14 1 21 -2 17 -9 -4 -6 -18 -11 -31 -11 -31 0 -41 -28 -12 -35 12 -3 74 -6
137 -8 77 -2 59 -3 -53 -4 -92 0 -179 2 -192 5 -37 7 -30 22 10 22 30 0 35 3
35 24 0 27 12 35 55 34 29 0 29 0 5 -8z m337 -26 c2 -13 1 -15 -4 -4 -3 8 -11
19 -17 23 -7 6 -6 7 4 4 8 -2 16 -12 17 -23z m1023 -10 c14 -37 13 -43 -16
-56 -30 -14 -48 3 -38 37 15 49 40 58 54 19z m-1690 -12 c0 -5 -7 -9 -15 -9
-8 0 -12 4 -9 9 3 4 9 8 15 8 5 0 9 -4 9 -8z m-270 -57 c-9 -10 -7 -14 7 -18
10 -3 -13 -5 -52 -5 -63 0 -66 1 -26 8 30 5 50 14 60 30 9 13 17 18 19 11 2
-6 -1 -18 -8 -26z m-179 -12 c13 -15 11 -16 -11 -10 -14 4 -31 7 -37 7 -7 0
-13 5 -13 10 0 16 46 11 61 -7z m1319 -7 c0 -19 -11 -25 -30 -17 -25 10 -22
31 5 31 15 0 25 -6 25 -14z m-1367 -15 c34 -17 36 -21 20 -30 -16 -9 -16 -10
-2 -11 9 0 32 -7 50 -16 l34 -15 -52 5 c-37 4 -53 1 -53 -7 0 -6 -9 5 -20 26
-17 32 -26 67 -17 67 1 0 20 -9 40 -19z m37 -121 c20 0 36 -17 26 -27 -4 -4
-12 -1 -18 5 -18 18 -31 14 -23 -5 4 -12 3 -15 -4 -8 -5 6 -12 24 -16 40 -5
24 -4 27 5 13 6 -10 20 -18 30 -18z m10 -67 c0 -15 2 -14 16 3 8 10 13 14 10
8 -7 -14 15 -24 50 -24 13 0 24 -4 24 -8 0 -5 17 -14 38 -21 46 -16 141 -79
159 -107 12 -19 9 -24 -43 -62 -31 -23 -61 -42 -67 -42 -6 0 -7 3 -4 7 4 3 2
12 -4 19 -7 9 -6 21 5 43 12 22 13 32 4 37 -6 4 -9 3 -6 -2 3 -5 -3 -25 -13
-44 -11 -19 -19 -29 -19 -22 0 7 -5 10 -10 7 -6 -4 -8 -10 -6 -14 3 -4 -1 -8
-9 -8 -8 0 -15 8 -15 18 0 9 -7 20 -16 23 -9 3 -14 12 -11 20 3 7 0 13 -6 13
-7 0 -26 3 -43 7 -29 7 -33 13 -43 67 -7 33 -16 57 -21 54 -5 -3 -11 -1 -14 4
-3 5 1 12 10 15 8 3 12 10 9 16 -3 5 1 10 9 10 9 0 16 -8 16 -17z m-354 -8
c-3 -20 -16 -31 -16 -13 0 13 8 28 16 28 1 0 1 -7 0 -15z m1624 -10 c10 -12
10 -15 -4 -15 -9 0 -16 7 -16 15 0 8 2 15 4 15 2 0 9 -7 16 -15z m539 -1 c2
-2 -12 -4 -33 -4 -22 0 -35 4 -31 10 5 9 52 4 64 -6z m-1290 -41 c3 -2 0 -8
-6 -14 -15 -15 -63 -1 -56 17 3 9 13 12 32 8 14 -4 28 -9 30 -11z m-544 -44
c-10 -15 -25 -10 -19 6 4 8 10 12 15 9 5 -3 7 -10 4 -15z m1867 -36 c40 -14
85 -35 100 -45 26 -18 27 -20 12 -43 -16 -24 -54 -24 -54 0 0 8 -9 17 -21 20
-11 4 -33 18 -47 31 -15 13 -38 32 -52 43 -33 27 -25 26 62 -6z m218 -13 c11
-8 7 -9 -15 -4 -37 8 -45 14 -19 14 10 0 26 -5 34 -10z m235 -60 c3 -5 1 -10
-4 -10 -6 0 -11 5 -11 10 0 6 2 10 4 10 3 0 8 -4 11 -10z m-88 -6 c-3 -3 -12
-4 -19 -1 -8 3 -5 6 6 6 11 1 17 -2 13 -5z m-2032 -14 c3 -5 -1 -10 -10 -10
-9 0 -13 5 -10 10 3 6 8 10 10 10 2 0 7 -4 10 -10z m-30 -20 c3 -5 1 -10 -4
-10 -6 0 -11 5 -11 10 0 6 2 10 4 10 3 0 8 -4 11 -10z m1225 0 c0 -5 -7 -10
-16 -10 -8 0 -12 5 -9 10 3 6 10 10 16 10 5 0 9 -4 9 -10z m-395 -20 c-3 -5
-13 -10 -21 -10 -8 0 -14 5 -14 10 0 6 9 10 21 10 11 0 17 -4 14 -10z m-615
-20 c0 -5 -7 -10 -16 -10 -8 0 -12 5 -9 10 3 6 10 10 16 10 5 0 9 -4 9 -10z
m1510 -66 c0 -2 -17 -4 -37 -3 -29 0 -33 2 -18 8 18 7 55 4 55 -5z m150 -4 c0
-13 -11 -13 -30 0 -12 8 -11 10 8 10 12 0 22 -4 22 -10z m-1530 -30 c0 -5 -7
-10 -15 -10 -8 0 -15 5 -15 10 0 6 7 10 15 10 8 0 15 -4 15 -10z m1294 -25 c4
-13 2 -14 -14 -5 -23 13 -26 20 -6 20 8 0 16 -7 20 -15z m-1319 -5 c-28 -12
-78 -12 -70 0 3 6 25 10 48 9 33 0 38 -2 22 -9z m1275 0 c13 -8 13 -10 -2 -10
-9 0 -20 5 -23 10 -8 13 5 13 25 0z m-1530 -16 c0 -2 -14 -4 -31 -4 -16 0 -28
4 -25 9 5 8 56 3 56 -5z m127 10 c-3 -3 -12 -4 -19 -1 -8 3 -5 6 6 6 11 1 17
-2 13 -5z m27 -29 c4 -12 -3 -15 -34 -15 -43 0 -63 16 -28 23 44 8 56 7 62 -8z"/>
<path d="M486 1305 c-8 -8 -23 -15 -33 -15 -10 0 -26 -14 -35 -31 -22 -37 -23
-62 -3 -35 14 19 16 19 34 2 11 -10 25 -15 30 -11 6 3 11 1 11 -5 0 -13 -39
-29 -62 -24 -15 2 -16 0 -5 -17 6 -10 14 -19 17 -19 3 1 24 18 47 38 45 40 64
92 42 118 -15 18 -24 18 -43 -1z m-26 -131 c0 -8 -19 -13 -24 -6 -3 5 1 9 9 9
8 0 15 -2 15 -3z"/>
<path d="M591 1293 c-1 -31 30 -47 55 -27 11 8 15 14 9 13 -31 -4 -54 3 -58
19 -4 13 -5 12 -6 -5z"/>
<path d="M293 1148 c-6 -7 -13 -21 -16 -30 -5 -14 -1 -18 17 -18 18 0 27 8 35
30 9 26 8 30 -8 30 -10 0 -23 -6 -28 -12z"/>
<path d="M400 1015 c-6 -8 -10 -19 -8 -26 2 -6 9 0 16 15 13 29 10 33 -8 11z"/>
<path d="M366 865 c-9 -9 -16 -21 -16 -26 0 -5 9 0 21 12 11 11 19 23 16 25
-3 3 -12 -2 -21 -11z"/>
<path d="M1396 1426 c-10 -17 -12 -27 -5 -31 6 -4 13 2 16 14 3 11 9 18 14 16
4 -3 6 -12 3 -19 -7 -18 8 -27 26 -16 11 7 11 13 -4 34 -21 32 -29 33 -50 2z"/>
<path d="M1168 1433 c7 -3 16 -2 19 1 4 3 -2 6 -13 5 -11 0 -14 -3 -6 -6z"/>
<path d="M1540 1419 c0 -6 -5 -7 -12 -3 -6 4 -8 3 -5 -3 4 -6 -4 -10 -18 -10
-27 0 -55 -19 -55 -36 0 -5 9 -2 19 7 10 9 34 19 52 21 39 5 57 20 35 28 -9 4
-16 2 -16 -4z"/>
<path d="M1860 1279 c0 -6 -6 -9 -12 -6 -7 2 -23 -11 -36 -30 -12 -18 -30 -33
-40 -33 -14 -1 -13 -4 6 -20 23 -19 24 -19 63 1 31 15 50 19 83 14 37 -6 46
-4 58 14 8 11 19 18 24 13 5 -4 0 3 -10 16 -19 22 -20 22 -40 3 -18 -16 -24
-17 -38 -7 -10 7 -15 16 -11 19 3 4 -1 7 -10 7 -9 0 -17 5 -17 10 0 6 -4 10
-10 10 -5 0 -10 -5 -10 -11z"/>
<path d="M1755 1249 c-11 -17 0 -20 21 -4 17 13 17 14 2 15 -9 0 -20 -5 -23
-11z"/>
<path d="M2016 1191 c-6 -9 37 -31 62 -31 14 1 13 4 -7 20 -25 21 -46 26 -55
11z"/>
<path d="M1743 1171 c-10 -15 -9 -20 2 -25 9 -3 15 1 15 9 0 8 5 15 11 15 5 0
7 -5 3 -12 -4 -7 -3 -8 5 -4 9 6 9 11 0 22 -15 19 -22 18 -36 -5z"/>
<path d="M1829 1057 c-53 -40 -98 -104 -98 -137 0 -14 3 -18 6 -10 21 65 85
156 71 102 -4 -13 -2 -20 4 -16 5 3 8 15 5 25 -3 11 0 19 8 19 7 0 15 7 19 15
3 8 10 15 16 15 6 0 8 -5 5 -11 -4 -6 2 -5 13 2 20 12 21 29 2 29 -5 0 -28
-15 -51 -33z"/>
<path d="M1930 1079 c0 -5 5 -7 10 -4 6 3 10 8 10 11 0 2 -4 4 -10 4 -5 0 -10
-5 -10 -11z"/>
<path d="M1953 1070 c-11 -16 -10 -18 2 -14 8 4 15 12 15 20 0 19 -3 18 -17
-6z"/>
<path d="M2009 1075 c0 -11 -3 -14 -6 -7 -2 6 -9 12 -14 12 -4 0 -6 -7 -3 -15
4 -10 0 -15 -12 -15 -9 0 -14 -3 -11 -6 8 -8 -31 -44 -47 -44 -6 0 -2 7 8 15
11 8 15 15 9 15 -14 0 -34 -25 -26 -33 8 -9 -35 -45 -75 -63 -18 -8 -30 -19
-27 -24 3 -6 1 -10 -4 -10 -6 0 -11 -7 -11 -15 0 -8 8 -15 18 -15 22 0 28 -46
7 -54 -8 -3 -15 -11 -15 -17 0 -8 14 -10 48 -5 88 14 152 13 152 -1 0 -20 24
-15 38 7 16 26 35 26 27 -1 -6 -19 -4 -20 32 -13 43 7 68 24 37 24 -10 0 -25
9 -31 20 -11 16 -10 18 4 13 11 -4 14 -3 9 5 -4 7 -2 12 6 12 9 0 9 3 -2 10
-8 5 -10 10 -4 10 5 0 26 -18 45 -40 36 -42 48 -47 66 -29 9 9 6 16 -10 30
-15 13 -19 21 -10 26 15 11 -17 51 -37 46 -10 -3 -11 -2 -4 4 6 4 14 24 17 43
5 32 5 33 -6 10 -6 -14 -12 -27 -13 -28 -1 -2 -11 1 -21 8 -15 10 -15 11 -1 6
12 -3 15 -1 11 9 -3 8 -8 13 -12 10 -10 -6 -41 32 -41 50 0 8 -17 22 -37 32
-21 9 -41 22 -45 27 -5 7 -8 3 -9 -9z m62 -72 c-12 -20 -14 -14 -5 12 4 9 9
14 11 11 3 -2 0 -13 -6 -23z m-180 -56 c-10 -9 -11 -8 -5 6 3 10 9 15 12 12 3
-3 0 -11 -7 -18z m-9 -49 c-7 -7 -12 -8 -12 -2 0 14 12 26 19 19 2 -3 -1 -11
-7 -17z m-61 -11 c-10 -9 -11 -8 -5 6 3 10 9 15 12 12 3 -3 0 -11 -7 -18z"/>
<path d="M1897 1053 c-4 -3 -7 -11 -7 -17 0 -6 5 -5 12 2 6 6 9 14 7 17 -3 3
-9 2 -12 -2z"/>
<path d="M1866 1017 c3 -9 -3 -17 -18 -21 -19 -5 -20 -8 -8 -16 13 -8 13 -10
-1 -10 -9 0 -20 -7 -23 -16 -7 -18 8 -11 42 19 23 22 28 42 12 52 -5 3 -7 0
-4 -8z"/>
<path d="M1725 861 c-3 -5 -1 -12 5 -16 5 -3 10 1 10 9 0 18 -6 21 -15 7z"/>
<path d="M1640 841 c0 -5 7 -12 16 -15 22 -9 24 -8 24 9 0 8 -9 15 -20 15 -11
0 -20 -4 -20 -9z"/>
<path d="M1050 891 c0 -6 5 -13 10 -16 6 -3 10 1 10 9 0 9 -4 16 -10 16 -5 0
-10 -4 -10 -9z"/>
<path d="M521 481 c-9 -6 -10 -11 -2 -15 6 -4 11 -16 11 -27 0 -10 7 -19 15
-19 24 0 30 4 28 20 -1 10 4 8 16 -6 14 -17 19 -19 29 -7 10 10 10 13 -3 13
-9 0 -18 6 -21 14 -3 8 -12 17 -20 20 -8 3 -12 1 -9 -4 3 -6 -1 -7 -9 -4 -9 3
-13 10 -10 15 7 11 -7 11 -25 0z"/>
<path d="M2670 275 c-7 -9 -8 -15 -2 -15 5 0 12 7 16 15 3 8 4 15 2 15 -2 0
-9 -7 -16 -15z"/>
<path d="M2720 169 c0 -5 5 -7 10 -4 6 3 10 8 10 11 0 2 -4 4 -10 4 -5 0 -10
-5 -10 -11z"/>
<path d="M2480 109 c0 -5 5 -7 10 -4 6 3 10 8 10 11 0 2 -4 4 -10 4 -5 0 -10
-5 -10 -11z"/>
<path d="M2705 62 c-26 -4 -27 -5 -10 -12 23 -8 55 -2 55 11 0 5 -3 8 -7 8 -5
-1 -21 -4 -38 -7z"/>
</g>
</svg>
