<?xml version="1.0" standalone="no"?>
<!DOCTYPE svg PUBLIC "-//W3C//DTD SVG 20010904//EN"
 "http://www.w3.org/TR/2001/REC-SVG-20010904/DTD/svg10.dtd">
<svg version="1.0" xmlns="http://www.w3.org/2000/svg"
 width="282.000000pt" height="188.000000pt" viewBox="0 0 282.000000 188.000000"
 preserveAspectRatio="xMidYMid meet">

<g transform="translate(0.000000,188.000000) scale(0.100000,-0.100000)"
fill="#000000" stroke="none">
<path d="M190 1866 c0 -20 22 -35 61 -41 19 -3 28 -2 21 1 -7 3 -17 17 -22 30
-10 27 -60 35 -60 10z"/>
<path d="M1013 1859 c15 -11 27 -27 27 -34 0 -7 9 -15 21 -18 34 -9 16 -32
-28 -35 -26 -2 -44 -9 -47 -18 -5 -13 5 -15 68 -12 l74 3 11 -61 c24 -131 8
-201 -34 -154 -16 18 -19 18 -41 3 -19 -12 -24 -12 -24 -2 0 10 -3 10 -12 1
-10 -10 -10 -15 2 -22 9 -6 10 -10 3 -10 -16 0 -46 -84 -41 -115 4 -16 1 -25
-7 -25 -8 0 -11 -8 -8 -20 4 -14 0 -20 -10 -20 -18 0 -26 11 -32 42 -6 32 -32
49 -58 38 -12 -4 -21 -14 -19 -21 2 -6 0 -19 -4 -28 -5 -13 -8 -11 -15 8 -7
19 -12 22 -21 13 -9 -9 -7 -17 9 -34 11 -13 23 -30 27 -38 3 -8 4 -5 2 7 -2
13 0 26 5 29 5 3 9 -6 9 -19 0 -14 7 -30 15 -37 8 -7 15 -18 15 -25 0 -8 4
-15 9 -17 6 -1 12 -14 14 -28 2 -14 9 -36 15 -50 l10 -25 10 25 c6 14 11 19
11 13 1 -7 6 -13 11 -13 14 0 7 67 -8 82 -7 7 -12 25 -12 41 0 26 3 28 33 25
28 -3 33 -7 37 -38 4 -21 11 -34 18 -32 7 1 24 3 37 4 14 1 25 8 25 16 0 9 9
11 35 6 36 -6 65 6 106 47 10 10 22 19 27 19 4 0 8 17 10 38 1 20 9 42 17 48
12 9 11 13 -5 27 -14 11 -20 12 -24 4 -5 -9 -8 -9 -12 1 -4 10 -9 10 -19 2
-11 -9 -17 -4 -30 21 l-17 32 26 -5 c17 -4 25 -1 23 6 -2 6 -21 10 -42 10 -20
-1 -33 1 -27 5 6 4 2 40 -9 96 -11 50 -18 108 -17 129 3 34 7 40 29 43 15 2
31 -3 38 -11 17 -21 2 -46 -28 -46 l-26 0 29 -15 c36 -19 126 -20 126 -2 0 7
-11 28 -25 47 -14 19 -23 40 -20 48 3 7 -2 26 -10 43 -15 28 -18 29 -89 29
-65 0 -74 -2 -79 -20 -3 -11 -12 -20 -21 -20 -9 0 -25 9 -36 20 -11 11 -28 20
-37 20 -14 -1 -12 -5 10 -21z m-112 -522 c-1 -12 -15 -9 -19 4 -3 6 1 10 8 8
6 -3 11 -8 11 -12z m188 -46 c18 -11 7 -43 -13 -35 -18 7 -28 44 -13 44 7 0
18 -4 26 -9z m-159 -23 c0 -19 -2 -20 -10 -8 -13 19 -13 30 0 30 6 0 10 -10
10 -22z"/>
<path d="M1318 1860 c12 -12 22 -28 22 -38 0 -9 9 -28 18 -40 15 -19 30 -25
80 -28 56 -4 62 -2 62 15 0 29 26 32 53 7 25 -23 66 -26 92 -5 6 4 34 11 63
15 49 6 54 5 59 -15 3 -13 11 -20 19 -17 20 7 18 -8 -11 -94 -35 -104 -38
-107 -74 -94 -23 9 -36 8 -60 -3 -17 -9 -31 -19 -31 -23 0 -4 -12 -19 -27 -34
-14 -14 -24 -28 -22 -30 10 -10 44 -10 44 1 0 6 4 15 9 20 5 5 6 3 2 -4 -5 -9
0 -13 14 -13 14 0 19 4 15 13 -4 6 2 1 13 -13 11 -13 18 -28 16 -32 -2 -3 0
-9 6 -13 5 -3 12 -28 16 -56 7 -50 7 -50 38 -43 39 8 52 26 27 38 -11 4 -22
18 -25 30 -5 21 -5 21 10 1 13 -17 16 -18 24 -5 8 13 10 13 10 -2 0 -24 18
-32 37 -16 9 7 18 12 20 11 11 -9 4 5 -11 24 -11 12 -25 19 -35 15 -13 -4 -13
-2 3 16 l18 21 26 -25 c24 -22 27 -22 33 -6 3 9 2 28 -3 41 -5 13 -6 26 -4 29
3 2 8 -7 11 -20 8 -32 63 -74 77 -60 6 6 16 8 23 6 10 -4 9 7 -1 48 -8 29 -14
69 -14 90 0 21 -4 38 -9 38 -4 0 -39 -14 -76 -31 -37 -17 -76 -28 -87 -26 -10
3 -16 1 -12 -4 3 -5 0 -9 -5 -9 -6 0 -11 3 -11 8 0 16 61 207 68 213 4 4 47
21 96 38 51 17 101 41 115 55 l25 25 -282 1 c-188 0 -282 -3 -282 -10 0 -6
-16 -18 -35 -27 -19 -9 -35 -23 -35 -30 0 -7 -4 -13 -9 -13 -5 0 -7 9 -4 20 3
11 0 20 -6 20 -6 0 -11 9 -11 20 0 17 -7 20 -52 20 l-52 0 22 -20z m529 -336
c3 -8 1 -25 -5 -37 l-11 -22 -7 23 c-5 18 -9 20 -15 10 -6 -9 -9 -4 -9 15 0
21 5 27 20 27 11 0 23 -7 27 -16z m-130 -80 c-3 -3 -12 -4 -19 -1 -8 3 -5 6 6
6 11 1 17 -2 13 -5z"/>
<path d="M2292 1797 c-57 -90 -102 -158 -144 -221 -15 -23 -28 -49 -28 -58 0
-11 -5 -15 -15 -12 -17 7 -71 -29 -86 -59 -10 -17 -8 -24 10 -38 11 -9 21 -23
21 -29 0 -9 -4 -9 -16 0 -13 11 -19 10 -37 -8 -12 -12 -16 -22 -9 -22 7 0 12
-11 12 -25 0 -30 7 -31 28 -5 18 22 10 23 130 -14 29 -10 57 -14 64 -10 6 4 8
3 4 -4 -3 -6 -2 -13 4 -17 5 -3 10 -21 10 -40 0 -33 0 -34 38 -28 46 7 49 10
30 26 -8 6 -23 28 -33 47 -42 82 -41 80 -21 80 8 0 16 -5 18 -12 3 -7 7 -5 11
6 4 10 3 15 -3 11 -6 -3 -10 2 -10 12 -1 19 -22 53 -34 53 -3 0 -6 -9 -6 -20
0 -11 -5 -20 -11 -20 -6 0 -13 9 -16 20 -3 11 -10 20 -17 20 -6 0 -3 5 7 11
18 10 18 12 -4 35 -12 13 -28 24 -35 24 -25 0 -21 28 9 67 18 23 73 102 124
177 64 96 86 136 75 136 -10 -1 -39 -35 -70 -83z m-132 -342 c0 -14 -3 -25 -7
-25 -5 0 -8 11 -8 25 0 14 3 25 8 25 4 0 7 -11 7 -25z m-70 -11 c0 -8 -4 -12
-10 -9 -5 3 -10 10 -10 16 0 5 5 9 10 9 6 0 10 -7 10 -16z"/>
<path d="M2770 1859 c0 -12 11 -31 23 -43 l24 -22 0 43 c0 38 -3 43 -24 43
-17 0 -23 -6 -23 -21z"/>
<path d="M37 1778 l-37 -10 1 -306 c1 -169 5 -291 9 -272 4 19 8 32 9 27 0 -4
16 -1 35 7 30 12 34 13 29 0 -9 -24 13 -15 27 11 8 15 20 23 29 21 9 -3 35 -7
57 -11 44 -7 42 -8 359 121 135 54 226 84 310 100 35 7 27 9 -59 15 -138 11
-200 26 -283 66 -80 40 -110 67 -122 109 -7 27 -14 30 -82 45 -80 17 -112 30
-145 61 -26 23 -84 30 -137 16z"/>
<path d="M780 1710 c-12 -8 -10 -10 10 -9 14 0 34 4 45 9 17 7 16 9 -10 9 -16
0 -37 -4 -45 -9z"/>
<path d="M2015 1666 c-17 -12 -17 -16 14 -78 l33 -66 37 25 c52 36 57 49 22
67 -16 9 -42 27 -58 40 -26 22 -33 24 -48 12z"/>
<path d="M2271 1494 c0 -5 4 -18 8 -28 6 -17 8 -17 14 -3 3 8 -1 21 -9 27 -8
7 -14 9 -13 4z"/>
<path d="M1419 1434 c-22 -47 -20 -74 6 -74 19 0 20 17 1 22 -12 3 -12 9 1 40
20 50 33 39 33 -28 0 -31 4 -54 11 -54 5 0 7 5 3 11 -4 7 -1 10 7 7 7 -2 16
-15 20 -29 5 -20 7 -21 13 -6 15 40 14 47 -3 59 -10 7 -21 29 -25 49 -10 57
-40 58 -67 3z"/>
<path d="M2725 1450 c-3 -6 1 -7 9 -4 18 7 21 14 7 14 -6 0 -13 -4 -16 -10z"/>
<path d="M2662 1418 c-7 -7 -12 -22 -12 -34 0 -13 -5 -35 -10 -50 -10 -26 -12
-27 -83 -21 -39 2 -80 8 -89 12 -12 5 -18 3 -18 -7 0 -16 145 -76 247 -102 69
-18 123 -21 123 -6 0 6 -9 10 -20 10 -27 0 -71 21 -95 44 -20 21 -26 74 -13
134 8 34 -6 44 -30 20z"/>
<path d="M1871 1394 c0 -11 3 -14 6 -6 3 7 2 16 -1 19 -3 4 -6 -2 -5 -13z"/>
<path d="M1315 1390 c3 -5 8 -10 11 -10 2 0 4 5 4 10 0 6 -5 10 -11 10 -5 0
-7 -4 -4 -10z"/>
<path d="M1890 1340 c0 -5 5 -10 11 -10 5 0 7 5 4 10 -3 6 -8 10 -11 10 -2 0
-4 -4 -4 -10z"/>
<path d="M1802 1320 c0 -14 2 -19 5 -12 2 6 2 18 0 25 -3 6 -5 1 -5 -13z"/>
<path d="M1920 1330 c0 -5 5 -10 10 -10 6 0 10 5 10 10 0 6 -4 10 -10 10 -5 0
-10 -4 -10 -10z"/>
<path d="M1760 1295 c-16 -32 -16 -32 26 -68 29 -25 44 -33 52 -25 14 14 4 38
-29 66 -15 12 -29 31 -31 41 -2 14 -7 11 -18 -14z"/>
<path d="M1428 1310 c-3 -8 2 -23 10 -33 37 -42 0 -227 -62 -311 -23 -31 -47
-132 -61 -260 -6 -53 -24 -106 -59 -173 -6 -11 -36 -49 -66 -83 -30 -35 -54
-66 -53 -69 3 -14 -63 -9 -87 6 -25 17 -48 18 -124 7 -36 -6 -38 -5 -31 17 5
19 4 21 -4 9 -7 -10 -11 -11 -11 -2 0 6 -5 12 -11 12 -6 0 -9 -6 -6 -13 4 -10
-5 -14 -29 -14 -24 0 -31 4 -24 12 6 7 3 11 -8 12 -54 4 -70 9 -95 30 -16 13
-33 23 -39 23 -6 0 -6 6 2 15 10 12 8 16 -15 25 -19 7 -25 15 -21 26 3 9 -3
32 -15 50 -11 19 -21 50 -21 68 0 18 -4 39 -9 47 -6 9 -9 1 -9 -27 0 -22 -5
-45 -11 -51 -8 -8 -3 -16 17 -29 16 -10 31 -19 33 -21 3 -2 -5 -16 -17 -32
l-21 -29 30 -6 c36 -7 37 -19 3 -35 -22 -10 -28 -9 -39 6 -11 14 -16 15 -26 6
-10 -10 -7 -14 12 -22 13 -5 49 -19 79 -31 197 -79 531 -144 700 -136 50 3 90
0 97 -6 9 -7 14 -6 19 6 3 9 15 16 26 16 15 0 18 5 13 20 -4 12 -2 20 5 20 6
0 9 -4 6 -9 -3 -4 1 -17 9 -27 8 -10 15 -14 15 -7 0 8 15 11 43 9 23 -1 48 2
55 7 8 6 12 6 12 -2 0 -6 9 -11 20 -11 11 0 20 -5 20 -11 0 -15 154 -5 197 12
28 11 28 11 5 20 -12 5 -25 15 -28 24 -4 8 -13 15 -21 15 -8 0 -12 4 -9 9 16
25 -50 20 -91 -7 -12 -7 -28 -10 -34 -6 -9 5 -6 10 9 15 12 5 20 14 18 21 -1
7 -1 10 1 6 16 -27 101 15 95 47 -4 16 -2 17 11 6 12 -10 21 -10 38 -1 17 10
19 14 8 21 -9 6 -18 3 -26 -8 -31 -41 -9 15 33 83 36 61 43 78 33 90 -9 12
-15 12 -28 2 -14 -11 -14 -11 -3 4 8 9 23 18 35 20 17 2 23 11 25 36 5 46 -22
54 -54 16 -13 -16 -23 -32 -24 -36 0 -4 -5 -19 -12 -35 -14 -34 -15 -39 -17
-58 -2 -21 -31 -19 -32 3 0 13 -2 12 -9 -6 -5 -12 -7 -29 -4 -37 4 -8 1 -15
-5 -15 -7 0 -18 -15 -26 -32 -11 -26 -15 -30 -20 -16 -4 9 -13 14 -21 11 -10
-4 -12 0 -8 11 4 10 13 15 20 12 8 -3 14 0 14 7 0 7 3 23 7 37 6 24 6 24 -11
7 -19 -18 -36 -15 -36 8 0 7 10 16 23 18 20 4 20 4 -3 6 -15 0 -32 7 -40 14
-11 9 -11 8 0 -7 13 -17 13 -19 0 -14 -8 2 -19 13 -25 24 -14 28 -57 74 -68
74 -5 0 -4 -8 3 -17 7 -10 -6 2 -28 27 -22 25 -46 61 -53 82 -12 37 -5 93 11
83 5 -3 11 -1 15 5 3 5 -3 10 -13 10 -11 0 -22 6 -25 14 -9 24 4 26 31 6 14
-11 28 -18 31 -15 3 4 -1 11 -9 16 -12 9 -12 10 3 5 10 -3 21 -6 23 -6 3 0 2
-5 -2 -12 -14 -22 -13 -58 2 -58 8 0 14 7 14 16 0 8 -4 12 -10 9 -14 -9 -12 9
3 24 12 12 -4 31 -59 69 -10 7 -13 10 -7 7 7 -3 21 -1 30 5 17 11 17 11 1 6
-13 -4 -22 4 -33 24 -20 38 -19 70 1 70 8 0 12 5 9 10 -3 6 -2 10 4 10 5 0 13
-4 16 -10 3 -5 16 -9 28 -9 12 1 32 -1 44 -4 28 -7 38 8 25 36 -5 12 -15 41
-22 63 -20 68 -24 70 -59 34 -17 -18 -31 -36 -31 -39 0 -13 -39 -29 -59 -24
-21 5 -22 19 -5 107 5 21 3 27 -7 24 -8 -3 -19 6 -25 21 -8 19 -12 22 -16 11z
m189 -140 c1 -11 -2 -20 -5 -20 -4 0 -8 9 -9 20 -1 11 2 20 5 20 4 0 8 -9 9
-20z m-163 -235 c4 -10 -1 -15 -14 -15 -13 0 -18 5 -14 15 4 8 10 15 14 15 4
0 10 -7 14 -15z m4 -94 c-7 -12 -19 -19 -25 -16 -21 7 -15 -11 12 -36 25 -24
32 -39 18 -39 -5 0 -18 15 -31 34 -24 35 -21 69 5 59 10 -4 14 -2 10 4 -4 6
-1 13 5 16 19 7 21 1 6 -22z m482 -131 c0 -5 -7 -10 -16 -10 -8 0 -12 5 -9 10
3 6 10 10 16 10 5 0 9 -4 9 -10z m-371 -49 c6 -10 7 -21 4 -25 -3 -3 1 -6 10
-6 10 0 17 -4 17 -10 0 -5 -7 -7 -15 -4 -8 4 -22 1 -29 -6 -11 -9 -20 -9 -36
0 -12 6 -19 14 -16 17 3 3 12 0 21 -7 8 -7 15 -8 15 -2 0 5 -10 17 -22 25 -21
15 -21 16 -3 12 11 -2 28 -6 38 -10 13 -6 16 -3 11 8 -3 9 -13 18 -22 20 -15
4 -15 5 0 6 10 0 22 -7 27 -18z m-215 -20 c7 -11 -29 -93 -40 -91 -5 1 -10 -2
-11 -7 -2 -4 22 -9 53 -11 31 -1 68 -9 83 -16 l26 -14 -27 -11 c-23 -9 -28
-17 -28 -45 0 -33 20 -53 41 -40 5 3 9 -2 9 -10 0 -20 -36 -21 -44 -1 -4 12
-24 15 -86 15 l-80 0 4 52 c3 35 10 56 22 65 10 7 14 13 9 13 -4 0 4 11 20 25
20 19 25 32 21 49 -8 31 14 51 28 27z m67 -20 c7 -18 6 -22 -9 -19 -9 2 -19
14 -20 27 -5 30 18 24 29 -8z m180 -54 c-10 -9 -11 -8 -5 6 3 10 9 15 12 12 3
-3 0 -11 -7 -18z m-31 9 c0 -3 -4 -8 -10 -11 -5 -3 -10 -1 -10 4 0 6 5 11 10
11 6 0 10 -2 10 -4z m120 -28 c0 -5 -6 -8 -14 -8 -8 0 -20 -2 -28 -3 -7 -2
-10 -2 -5 0 4 3 5 8 3 11 -2 4 7 7 20 7 13 0 24 -3 24 -7z m-98 -12 c22 -3 48
-26 48 -42 0 -7 -8 -21 -18 -31 -11 -10 -22 -26 -25 -36 -6 -15 -10 -16 -27
-7 -12 6 -36 10 -53 8 -26 -2 -31 1 -29 15 2 10 -3 17 -13 17 -18 0 -19 5 -5
31 6 10 17 19 24 19 8 0 16 10 19 21 5 18 11 20 34 15 15 -4 35 -8 45 -10z
m78 -36 c0 -11 -2 -20 -5 -20 -2 0 -9 9 -15 20 -9 16 -8 20 5 20 8 0 15 -9 15
-20z m15 -58 c-8 -8 -25 10 -19 20 4 6 9 5 15 -3 4 -7 6 -15 4 -17z m-218 -14
c-3 -8 -6 -5 -6 6 -1 11 2 17 5 13 3 -3 4 -12 1 -19z m48 -28 c-21 -23 -47
-27 -39 -6 3 8 15 17 27 19 12 2 24 5 26 6 2 0 -4 -8 -14 -19z m-230 -28 c-3
-8 -5 -18 -5 -23 0 -5 -5 -9 -11 -9 -5 0 -7 5 -4 10 3 6 2 10 -2 10 -5 0 -18
7 -29 15 -18 14 -17 14 19 12 26 -1 36 -6 32 -15z m515 14 c0 -11 -19 -15 -25
-6 -3 5 1 10 9 10 9 0 16 -2 16 -4z m-657 -30 c10 3 17 1 17 -5 0 -15 -67 -14
-76 1 -5 8 -2 9 9 5 10 -4 17 -1 17 6 0 9 2 9 8 -1 5 -7 16 -10 25 -6z m318
-19 c-16 -16 -25 -1 -10 16 8 8 16 11 18 5 2 -5 -2 -15 -8 -21z m-221 13 c8
-5 11 -13 6 -17 -5 -4 -11 -2 -13 4 -3 9 -11 8 -31 -4 l-27 -17 20 22 c23 24
25 25 45 12z m545 0 c-3 -5 -12 -10 -18 -10 -7 0 -6 4 3 10 19 12 23 12 15 0z"/>
<path d="M795 1299 c-4 -6 -5 -13 -2 -16 7 -7 27 6 27 18 0 12 -17 12 -25 -2z"/>
<path d="M1303 1225 c0 -30 3 -55 6 -55 4 0 17 7 29 16 16 11 21 24 19 50 -1
18 -5 34 -9 34 -5 0 -8 -4 -8 -10 0 -5 -4 -10 -10 -10 -5 0 -10 7 -10 15 0 8
-4 15 -9 15 -4 0 -8 -25 -8 -55z"/>
<path d="M2150 1261 c-14 -27 -13 -54 3 -48 6 2 12 18 12 35 1 37 -1 39 -15
13z"/>
<path d="M1490 1245 c-14 -17 -5 -48 13 -43 14 5 23 58 9 58 -5 0 -15 -7 -22
-15z"/>
<path d="M690 1231 c-7 -11 -16 -19 -19 -19 -3 1 -17 -4 -31 -11 l-25 -11 29
5 c18 4 37 0 53 -10 14 -9 27 -14 31 -11 11 12 12 49 1 62 -15 19 -22 18 -39
-5z"/>
<path d="M768 1225 c3 -19 10 -25 25 -23 26 4 35 28 10 28 -11 0 -24 5 -30 11
-7 7 -9 3 -5 -16z"/>
<path d="M1938 1228 c-3 -7 2 -25 9 -40 24 -47 28 -97 9 -104 -9 -3 -22 -2
-29 4 -6 5 -25 10 -41 10 -18 0 -36 8 -47 21 -18 23 -54 19 -45 -5 3 -7 1 -16
-4 -19 -4 -3 -10 0 -12 5 -2 7 -13 7 -33 1 -17 -5 -42 -12 -57 -15 -22 -5 -26
-11 -22 -30 2 -13 -2 -29 -11 -36 -24 -20 -19 -50 9 -50 40 0 86 12 80 21 -3
5 -2 9 3 10 4 0 16 2 26 4 11 2 16 1 13 -2 -3 -3 0 -15 6 -27 11 -19 16 -46
32 -164 4 -36 16 -56 16 -29 0 17 9 21 47 18 23 -2 62 33 64 58 1 9 3 32 4 51
7 89 12 117 24 138 7 13 10 38 7 57 -6 38 -4 40 23 26 15 -9 17 -6 13 20 -2
16 -9 29 -14 29 -6 0 -6 6 1 14 10 12 8 17 -9 26 -21 11 -22 11 -15 -29 4 -23
4 -41 1 -41 -9 0 -40 64 -38 78 4 16 -5 16 -10 0z m-98 -137 c0 -9 -5 -22 -12
-29 -14 -14 -38 -16 -38 -2 0 5 8 6 17 3 12 -5 15 -2 10 10 -3 9 -2 17 3 17 5
0 6 7 3 17 -4 11 -3 14 5 9 7 -4 12 -15 12 -25z m-117 -88 c-7 -2 -19 -2 -25
0 -7 3 -2 5 12 5 14 0 19 -2 13 -5z m171 -28 c4 -16 13 -25 27 -25 17 0 19 -4
13 -22 -3 -13 -10 -24 -14 -26 -4 -2 -6 -13 -3 -25 4 -22 4 -22 -12 -2 -9 11
-21 19 -28 18 -7 -2 -13 12 -15 33 -1 19 -7 44 -12 55 -9 16 -7 19 14 19 17 0
26 -7 30 -25z m32 0 c9 -8 11 -15 6 -15 -5 0 -15 7 -22 15 -7 8 -9 15 -6 15 4
0 14 -7 22 -15z m-76 -45 c0 -5 -4 -10 -10 -10 -5 0 -10 5 -10 10 0 6 5 10 10
10 6 0 10 -4 10 -10z m19 -80 c0 -11 -3 -10 -14 4 -8 11 -15 27 -15 35 0 11 4
10 15 -5 8 -10 14 -26 14 -34z"/>
<path d="M1870 976 c0 -11 30 -66 36 -66 2 0 -3 15 -12 33 -19 36 -24 44 -24
33z"/>
<path d="M748 1188 c-3 -7 -2 -23 0 -36 3 -17 10 -22 26 -20 12 2 20 10 20 20
-1 9 4 14 11 12 18 -7 40 22 24 32 -7 4 -9 3 -5 -4 3 -5 0 -12 -6 -15 -18 -5
-48 3 -48 14 0 13 -18 11 -22 -3z"/>
<path d="M2150 1191 c0 -5 7 -14 15 -21 13 -10 15 -9 15 9 0 12 -6 21 -15 21
-8 0 -15 -4 -15 -9z"/>
<path d="M2295 1154 c-12 -31 -15 -57 -11 -82 9 -49 13 -142 6 -142 -3 0 -6
-8 -7 -18 -1 -13 5 -18 20 -17 16 1 22 8 23 27 1 14 11 45 22 70 25 51 26 57
12 94 -8 20 -14 24 -22 16 -8 -8 -8 -15 2 -27 12 -14 11 -18 -1 -26 -24 -15
-38 -10 -45 16 -5 19 0 30 17 45 14 11 18 19 11 20 -9 0 -11 10 -6 35 9 48 0
44 -21 -11z"/>
<path d="M684 1113 c-15 -20 -22 -33 -16 -29 12 7 16 -9 13 -46 -1 -10 3 -18
8 -18 6 0 11 -13 11 -30 0 -24 3 -28 18 -23 14 5 15 3 5 -8 -17 -18 -16 -50 2
-75 8 -12 12 -24 9 -27 -7 -6 32 -83 46 -92 6 -4 -8 -24 -31 -46 -33 -32 -42
-48 -43 -76 -1 -44 27 -68 48 -40 7 9 21 17 30 17 10 0 16 8 16 25 0 16 6 25
15 25 17 0 20 16 4 26 -6 3 -9 19 -7 35 3 16 0 30 -5 32 -6 2 -3 27 7 61 10
32 16 73 15 90 -3 46 17 86 49 97 10 3 8 10 -7 23 -21 19 -21 19 -21 0 0 -14
-2 -16 -9 -5 -5 8 -16 11 -31 6 -19 -6 -21 -11 -14 -43 13 -69 13 -122 -1
-149 -8 -16 -15 -35 -15 -43 -1 -41 -22 27 -27 88 -3 37 -9 71 -14 76 -5 6 -9
18 -9 28 0 30 -24 98 -35 98 -7 0 -7 3 0 8 6 4 19 17 29 30 16 18 16 22 4 22
-9 0 -28 -17 -44 -37z"/>
<path d="M497 1133 c-16 -3 -31 -11 -34 -19 -3 -8 -11 -14 -19 -14 -10 0 -12
-11 -8 -47 4 -27 10 -52 15 -57 4 -5 5 -16 1 -24 -4 -12 2 -10 25 6 43 30 77
28 102 -5 20 -28 20 -28 21 -5 0 13 4 32 10 42 8 15 5 23 -15 38 -15 12 -23
26 -19 35 3 8 1 18 -5 22 -6 3 -11 1 -11 -5 0 -6 -5 -8 -11 -4 -8 4 -7 9 2 15
12 8 11 11 -1 19 -8 5 -17 9 -20 8 -3 0 -18 -3 -33 -5z m9 -40 c4 -27 -22 -51
-38 -35 -9 9 -8 18 0 38 14 29 34 28 38 -3z m49 -73 c3 -5 1 -10 -4 -10 -6 0
-11 5 -11 10 0 6 2 10 4 10 3 0 8 -4 11 -10z"/>
<path d="M985 1108 c6 -16 4 -20 -8 -15 -23 9 -60 -24 -52 -46 9 -21 25 -23
25 -2 0 8 5 15 11 15 5 0 7 6 3 13 -5 9 -4 9 6 0 7 -7 10 -22 6 -36 -4 -19
-11 -24 -26 -20 -15 4 -20 0 -21 -13 0 -11 -2 -27 -4 -36 -2 -11 2 -15 11 -11
10 4 12 0 8 -11 -3 -9 -1 -16 5 -16 6 0 19 -17 30 -37 12 -23 20 -31 21 -21 0
10 5 17 11 15 22 -4 20 20 -2 26 -27 7 -19 33 10 30 12 -2 20 1 16 7 -3 5 4
14 15 20 11 6 20 7 20 3 0 -4 14 7 30 25 17 18 30 37 30 43 0 5 4 9 9 9 5 0
11 7 15 15 3 8 2 14 -2 14 -4 -1 -16 0 -27 1 -14 1 -16 3 -5 7 8 4 -3 11 -30
19 -40 12 -46 12 -57 -3 -7 -9 -16 -13 -20 -10 -3 4 -3 7 1 7 4 0 1 7 -8 15
-21 21 -29 19 -21 -7z m88 -63 c-3 -9 -8 -14 -10 -11 -3 3 -2 9 2 15 9 16 15
13 8 -4z"/>
<path d="M90 1110 c0 -5 5 -10 11 -10 5 0 7 5 4 10 -3 6 -8 10 -11 10 -2 0 -4
-4 -4 -10z"/>
<path d="M40 1091 c0 -21 10 -33 40 -49 l25 -13 -22 19 c-13 11 -21 28 -19 39
3 12 -1 20 -10 20 -8 0 -14 -7 -14 -16z"/>
<path d="M120 1101 c0 -10 19 -25 25 -20 1 2 -3 10 -11 17 -8 7 -14 8 -14 3z"/>
<path d="M2147 1088 c-3 -11 1 -30 9 -42 12 -18 19 -16 15 7 0 4 3 7 8 7 4 0
6 11 3 25 -5 31 -28 33 -35 3z"/>
<path d="M2447 1093 c-3 -5 11 -22 32 -39 27 -23 52 -33 91 -39 30 -4 88 -18
128 -31 40 -13 84 -24 97 -24 24 0 25 3 25 60 0 57 -1 60 -25 60 -38 0 -90
-33 -80 -50 11 -18 -225 40 -252 62 -6 5 -13 5 -16 1z"/>
<path d="M1177 1069 c7 -7 15 -10 18 -7 3 3 -2 9 -12 12 -14 6 -15 5 -6 -5z"/>
<path d="M136 1053 c-6 -6 23 -32 36 -33 4 0 5 6 2 14 -6 16 -29 28 -38 19z"/>
<path d="M1996 907 c2 -88 0 -141 -5 -127 -6 18 -8 7 -7 -40 0 -52 -5 -75 -27
-115 -15 -27 -27 -57 -27 -65 0 -8 -6 -27 -14 -42 -14 -26 -13 -28 20 -48 39
-22 60 -25 69 -10 5 8 12 7 23 -2 12 -10 16 -10 19 -1 3 8 13 3 27 -13 12 -14
33 -27 48 -27 14 -1 24 -5 21 -10 -21 -34 117 4 216 61 49 27 161 110 161 118
0 3 -7 12 -15 20 -8 9 -15 25 -15 36 0 14 5 18 15 14 17 -6 19 2 6 23 -6 9
-18 11 -34 7 -23 -5 -26 -3 -32 35 -5 29 -11 39 -21 35 -10 -4 -14 2 -14 19 0
13 -5 27 -11 31 -8 4 -9 -1 -5 -17 6 -23 6 -22 -8 2 -21 36 -43 42 -65 20 -18
-18 -20 -18 -33 -3 -34 44 -49 92 -28 92 5 0 2 9 -7 20 -9 11 -20 16 -23 12
-9 -13 -68 -42 -84 -42 -9 0 -19 6 -22 14 -3 8 -13 12 -26 8 -25 -6 -38 12
-38 56 0 27 -3 32 -25 32 -20 0 -25 5 -25 24 0 14 -4 27 -9 30 -5 3 -7 -60 -5
-147z m49 13 c-3 -5 -14 -10 -23 -9 -14 0 -13 2 3 9 27 11 27 11 20 0z m195
-47 c0 -20 -3 -24 -11 -16 -7 7 -9 19 -6 27 10 24 17 19 17 -11z m-94 -24 c3
-6 -1 -18 -10 -27 -15 -15 -16 -14 -16 11 0 27 13 36 26 16z m-40 -24 c-8 -21
17 -29 44 -15 22 12 75 22 66 13 -3 -3 4 -20 15 -39 10 -19 19 -37 19 -39 0
-3 -25 -5 -55 -5 -55 0 -59 3 -56 40 1 11 -1 11 -9 -2 -17 -28 -35 -21 -34 12
2 44 3 50 10 50 3 0 3 -7 0 -15z m181 -81 c-9 -10 -38 16 -31 28 4 6 13 4 22
-6 9 -8 13 -19 9 -22z m40 30 c-3 -3 -12 -4 -19 -1 -8 3 -5 6 6 6 11 1 17 -2
13 -5z m45 -26 c9 -7 19 -29 22 -48 l5 -35 -17 37 c-9 21 -23 38 -29 38 -7 0
-13 5 -13 10 0 14 13 13 32 -2z m68 -62 c0 -39 -6 -31 -14 19 -5 29 -4 36 3
25 6 -8 11 -28 11 -44z m-353 -18 c-22 -20 -31 -23 -22 -8 3 6 -2 10 -12 11
-16 0 -16 1 2 8 11 5 23 7 28 4 4 -2 7 8 8 24 l1 28 7 -25 c5 -18 2 -30 -12
-42z m79 42 c-1 -9 -8 -24 -17 -32 -14 -15 -16 -14 -17 16 -1 24 3 32 17 32
10 0 18 -7 17 -16z m110 -8 c-4 -3 -14 2 -24 12 -16 18 -16 18 6 6 13 -6 21
-14 18 -18z m-24 -32 c5 0 6 -5 3 -10 -9 -14 -35 14 -34 37 0 15 2 14 11 -4 6
-13 15 -23 20 -23z m88 20 c0 -5 -4 -10 -10 -10 -5 0 -10 5 -10 10 0 6 5 10
10 10 6 0 10 -4 10 -10z m-55 -10 c3 -5 1 -10 -4 -10 -6 0 -11 5 -11 10 0 6 2
10 4 10 3 0 8 -4 11 -10z m-65 -30 c0 -5 -2 -10 -4 -10 -3 0 -8 5 -11 10 -3 6
-1 10 4 10 6 0 11 -4 11 -10z m116 -1 c3 -6 2 -15 -3 -20 -5 -5 -14 0 -21 11
-10 17 -10 20 2 20 8 0 18 -5 22 -11z m74 -19 c0 -11 -4 -20 -9 -20 -5 0 -7 9
-4 20 3 11 7 20 9 20 2 0 4 -9 4 -20z m-235 -10 c3 -5 1 -10 -4 -10 -6 0 -11
5 -11 10 0 6 2 10 4 10 3 0 8 -4 11 -10z m300 -16 c14 -14 25 -27 23 -29 -2
-1 -13 -7 -25 -14 -33 -17 -73 6 -42 24 6 4 8 13 5 20 -4 11 1 25 10 25 2 0
15 -12 29 -26z m-117 -36 c19 -22 9 -24 -12 -2 -9 8 -16 23 -15 32 0 14 2 14
6 2 3 -8 12 -23 21 -32z m-156 17 c3 3 3 -5 1 -18 -4 -20 -10 -24 -34 -22 -28
2 -54 15 -31 15 7 0 12 6 12 14 0 18 21 26 36 15 6 -5 13 -6 16 -4z m185 -17
c-3 -8 -6 -5 -6 6 -1 11 2 17 5 13 3 -3 4 -12 1 -19z m-300 -53 c-10 -43 -11
-44 -29 -28 -25 23 -23 40 10 57 15 8 28 15 28 16 1 0 -3 -20 -9 -45z m237 24
c-3 -5 -10 -7 -15 -3 -5 3 -7 10 -3 15 3 5 10 7 15 3 5 -3 7 -10 3 -15z m-307
-5 c8 -21 -9 -55 -23 -46 -6 4 -14 19 -18 35 -5 23 -3 27 14 27 11 0 23 -7 27
-16z m233 -14 c0 -11 -4 -20 -9 -20 -6 0 -9 9 -8 20 1 11 5 20 9 20 4 0 8 -9
8 -20z m100 -14 c0 -3 -4 -8 -10 -11 -5 -3 -10 -1 -10 4 0 6 5 11 10 11 6 0
10 -2 10 -4z"/>
<path d="M240 1030 c0 -5 5 -10 10 -10 6 0 10 5 10 10 0 6 -4 10 -10 10 -5 0
-10 -4 -10 -10z"/>
<path d="M131 998 c-16 -43 7 -71 49 -61 36 8 47 21 24 29 -10 4 -29 18 -42
31 l-22 24 -9 -23z"/>
<path d="M1147 975 c4 -22 7 -50 8 -61 0 -20 10 -22 37 -7 4 2 -3 21 -16 41
-12 20 -26 44 -29 52 -4 8 -3 -3 0 -25z"/>
<path d="M2390 990 c0 -6 7 -10 15 -10 8 0 15 2 15 4 0 2 -7 6 -15 10 -8 3
-15 1 -15 -4z"/>
<path d="M2490 981 c0 -5 5 -13 10 -16 6 -3 10 -2 10 4 0 5 -4 13 -10 16 -5 3
-10 2 -10 -4z"/>
<path d="M1595 960 c-8 -13 -1 -24 14 -19 6 3 7 10 2 18 -6 10 -10 10 -16 1z"/>
<path d="M2350 960 c0 -6 4 -9 9 -6 5 4 12 1 14 -4 3 -6 4 -5 3 2 -3 15 -26
23 -26 8z"/>
<path d="M2402 950 c0 -14 2 -19 5 -12 2 6 2 18 0 25 -3 6 -5 1 -5 -13z"/>
<path d="M1973 883 l-1 -78 8 60 c4 32 5 67 1 77 -4 10 -7 -16 -8 -59z"/>
<path d="M2137 954 c-13 -13 -7 -24 14 -24 11 0 19 5 17 12 -5 14 -22 21 -31
12z"/>
<path d="M408 923 c20 -29 20 -43 0 -43 -5 0 -7 4 -4 8 2 4 1 14 -3 21 -6 9
-8 4 -8 -13 0 -14 3 -26 8 -26 5 0 9 -7 9 -16 0 -14 -3 -14 -15 -4 -20 16 -19
5 3 -32 17 -29 17 -30 -8 -50 l-24 -20 -19 23 c-37 45 -42 25 -10 -40 34 -70
44 -107 21 -80 -20 22 -65 57 -50 38 6 -9 10 -30 8 -47 -3 -29 1 -34 55 -66
l59 -35 33 52 c26 40 31 56 23 69 -13 21 7 45 54 67 22 10 36 24 38 39 3 19
-1 22 -31 22 -30 0 -34 3 -30 19 3 10 0 22 -7 26 -7 4 -10 1 -8 -10 2 -10 -3
-20 -10 -22 -9 -4 -11 5 -6 34 5 35 2 43 -25 71 -17 17 -41 34 -53 38 l-21 6
21 -29z m76 -195 c-3 -4 -9 -8 -15 -8 -5 0 -9 4 -9 8 0 5 7 9 15 9 8 0 12 -4
9 -9z m-44 -35 c0 -12 4 -24 9 -27 11 -7 20 -55 11 -61 -8 -5 -40 31 -40 45 0
6 -5 10 -11 10 -6 0 -9 6 -6 13 2 6 -2 19 -10 28 -12 14 -10 16 17 15 24 -1
30 -5 30 -23z"/>
<path d="M2415 910 c3 -5 8 -10 11 -10 2 0 4 5 4 10 0 6 -5 10 -11 10 -5 0 -7
-4 -4 -10z"/>
<path d="M2396 884 c-8 -21 -8 -39 1 -30 8 7 15 46 9 46 -2 0 -7 -7 -10 -16z"/>
<path d="M2348 865 c2 -14 8 -23 12 -20 10 6 1 45 -10 45 -4 0 -5 -11 -2 -25z"/>
<path d="M1614 853 c4 -8 1 -13 -8 -13 -9 0 -13 -6 -10 -15 5 -13 8 -13 21 1
13 12 13 18 3 27 -10 9 -11 9 -6 0z"/>
<path d="M1010 814 c0 -9 5 -14 12 -12 18 6 21 28 4 28 -9 0 -16 -7 -16 -16z"/>
<path d="M2510 804 c0 -6 7 -19 16 -30 14 -18 14 -18 3 6 -14 31 -19 36 -19
24z"/>
<path d="M1120 790 c0 -5 7 -10 15 -10 8 0 15 5 15 10 0 6 -7 10 -15 10 -8 0
-15 -4 -15 -10z"/>
<path d="M997 746 c-6 -16 2 -28 14 -20 12 7 11 34 0 34 -5 0 -11 -6 -14 -14z"/>
<path d="M1720 725 c0 -9 6 -12 15 -9 8 4 15 10 15 15 0 5 -7 9 -15 9 -8 0
-15 -7 -15 -15z"/>
<path d="M110 685 c-17 -21 -5 -31 48 -39 43 -6 59 7 22 19 -11 3 -20 11 -20
17 0 6 -3 8 -7 5 -3 -4 -12 -2 -18 3 -9 7 -16 5 -25 -5z"/>
<path d="M2757 638 l-58 -40 29 -18 c15 -10 38 -21 50 -24 32 -11 27 -28 -5
-20 -16 4 -29 10 -31 14 -1 3 -16 4 -33 2 -26 -4 -30 -8 -25 -26 3 -11 6 -27
6 -33 0 -7 7 -13 15 -13 9 0 15 -9 15 -25 0 -21 5 -25 31 -25 17 0 39 -5 49
-10 19 -10 20 -5 19 125 -1 74 -2 135 -2 134 -1 -1 -28 -19 -60 -41z m33 -164
c0 -2 -7 -4 -15 -4 -8 0 -15 4 -15 10 0 5 7 7 15 4 8 -4 15 -8 15 -10z"/>
<path d="M0 300 c1 -255 3 -300 16 -300 15 0 15 20 -1 33 -6 5 -4 7 5 4 8 -2
15 -10 15 -18 0 -11 24 -14 125 -15 69 -1 118 1 110 4 -8 3 -21 13 -28 24 -14
19 -48 26 -36 7 4 -8 0 -8 -15 0 -25 14 -28 3 -4 -15 10 -7 13 -14 6 -14 -6 0
-18 7 -26 15 -8 8 -17 11 -20 8 -4 -3 -5 4 -2 15 2 12 -1 24 -6 27 -5 4 -7 10
-4 15 3 4 -4 6 -15 3 -11 -3 -20 -1 -20 4 0 19 40 11 52 -10 7 -12 12 -24 11
-27 -1 -3 7 -7 18 -7 10 -1 19 2 19 8 0 5 -4 9 -10 9 -5 0 -10 12 -10 26 0 17
6 28 20 31 11 3 17 10 13 16 -3 6 -1 7 6 3 6 -4 8 -12 5 -18 -5 -8 -1 -9 11
-4 18 7 18 6 2 -12 -15 -17 -16 -21 -3 -31 8 -7 19 -10 24 -7 6 3 15 -1 23
-10 15 -18 54 -41 45 -26 -7 12 18 35 27 25 4 -3 2 -12 -4 -19 -7 -8 -7 -14 1
-19 5 -3 10 -5 11 -3 6 27 5 39 -8 50 -12 10 -18 9 -29 -6 -11 -16 -16 -17
-29 -6 -8 7 -15 20 -15 29 1 14 2 14 11 -1 10 -18 18 -15 66 31 18 17 50 2 45
-21 -3 -10 -1 -10 9 -1 6 6 17 9 24 7 6 -3 12 2 12 10 0 8 -7 12 -16 9 -11 -3
-10 0 3 7 14 10 20 10 26 0 4 -7 13 -9 19 -5 8 5 10 -2 6 -22 -6 -27 -6 -27
10 -8 8 11 23 20 33 20 9 0 16 6 14 12 -2 15 14 17 23 3 3 -5 12 -7 19 -4 7 3
16 -2 20 -11 3 -9 11 -15 18 -14 20 3 48 -11 112 -58 l59 -43 669 0 c375 0
666 4 663 9 -2 5 2 11 9 14 8 3 17 1 20 -6 2 -7 5 -4 5 6 1 10 6 15 12 12 6
-4 13 2 16 14 3 11 9 18 14 16 4 -3 5 -13 2 -23 -6 -15 -5 -15 10 -3 10 8 15
16 12 19 -2 3 5 13 16 23 17 15 26 16 42 8 16 -9 19 -9 15 3 -3 8 3 25 14 39
11 13 17 19 14 12 -4 -7 1 -9 16 -5 12 3 17 7 10 10 -6 2 -12 8 -12 13 0 5 11
4 25 -1 17 -6 25 -6 25 1 0 6 4 8 9 4 5 -3 12 3 15 13 6 18 36 27 36 10 0 -4
-7 -8 -16 -8 -14 0 -14 -3 -4 -16 12 -13 15 -12 26 14 13 33 38 46 61 33 9 -4
24 -6 34 -4 25 7 12 33 -16 33 -24 0 -72 36 -62 47 8 7 58 -16 69 -32 5 -6 8
-2 8 8 0 9 4 17 10 17 5 0 7 6 4 14 -3 8 -1 17 4 20 11 7 3 56 -12 72 -8 9
-26 -2 -71 -45 -104 -100 -259 -174 -477 -231 -221 -57 -505 -82 -683 -61 -55
7 -113 14 -130 15 -16 2 -30 5 -30 6 0 1 -25 4 -55 6 -30 3 -62 8 -70 11 -8 3
-19 7 -25 8 -5 1 -13 3 -17 5 -5 1 -11 3 -15 4 -68 15 -159 41 -163 46 -5 6
-74 28 -115 35 -47 8 -184 59 -239 88 -68 36 -146 108 -171 158 -17 33 -17 34
1 18 11 -9 26 -20 34 -24 13 -8 13 -7 1 9 -18 21 -106 67 -198 101 -37 14 -83
35 -101 45 l-32 20 0 -300z m257 -92 c-7 -4 -13 -3 -15 2 -4 10 -26 3 -61 -19
l-23 -15 23 -8 c17 -7 20 -11 10 -17 -7 -5 -12 -11 -12 -15 1 -3 -2 -6 -6 -7
-5 0 -14 -5 -20 -11 -10 -8 -13 -5 -13 11 0 12 4 20 8 17 5 -3 9 1 9 9 0 21
-27 -2 -28 -24 0 -11 -2 -12 -6 -3 -4 10 -9 8 -20 -7 -15 -23 -10 -41 12 -41
9 0 14 -9 13 -24 -2 -16 -7 -22 -16 -18 -10 3 -10 7 -2 12 8 5 7 10 -2 17 -27
21 -36 22 -47 9 -9 -10 -8 -15 4 -20 11 -4 14 -2 9 7 -5 9 -4 9 6 0 10 -9 9
-15 -4 -29 -19 -19 -21 -18 -31 15 -6 20 2 33 59 87 70 67 120 99 136 89 6 -3
10 0 10 7 0 10 3 9 10 -2 6 -9 5 -17 -3 -22z m40 26 c-3 -3 -12 -4 -19 -1 -8
3 -5 6 6 6 11 1 17 -2 13 -5z m2103 -44 c0 -5 -4 -10 -10 -10 -5 0 -10 5 -10
10 0 6 5 10 10 10 6 0 10 -4 10 -10z m-2143 -22 c-3 -8 -6 -5 -6 6 -1 11 2 17
5 13 3 -3 4 -12 1 -19z m100 -10 c-3 -8 -6 -5 -6 6 -1 11 2 17 5 13 3 -3 4
-12 1 -19z m-71 -11 c-1 -25 -23 -34 -23 -10 0 7 4 13 9 13 5 0 6 5 3 10 -3 6
-2 10 3 10 6 0 9 -10 8 -23z m54 -32 c-7 -8 -16 -13 -20 -10 -5 3 -11 -1 -13
-7 -3 -7 -6 -2 -6 11 -1 19 3 22 19 18 11 -3 20 0 20 6 0 6 3 7 6 4 4 -4 1
-13 -6 -22z m-173 -27 c-3 -8 -6 -5 -6 6 -1 11 2 17 5 13 3 -3 4 -12 1 -19z
m95 0 c-9 -9 -15 -9 -24 1 -9 10 -9 12 -1 7 6 -3 15 -1 18 5 4 5 10 8 13 4 3
-3 0 -11 -6 -17z"/>
<path d="M2581 482 c-6 -11 -16 -33 -21 -48 -9 -24 -9 -26 5 -14 9 7 31 13 50
12 40 -2 47 15 10 24 -14 3 -23 9 -21 13 3 4 1 13 -4 20 -6 11 -10 9 -19 -7z"/>
<path d="M922 458 c6 -18 25 -21 25 -3 0 8 -7 15 -14 15 -8 0 -13 -5 -11 -12z"/>
<path d="M1904 459 c-10 -4 -14 -8 -7 -8 6 -1 15 -10 18 -22 5 -15 13 -19 27
-16 14 4 18 2 14 -8 -3 -8 -1 -17 4 -20 6 -4 10 5 10 18 0 32 -40 66 -66 56z
m41 -29 c3 -5 1 -10 -4 -10 -6 0 -11 5 -11 10 0 6 2 10 4 10 3 0 8 -4 11 -10z"/>
<path d="M2680 448 c0 -10 6 -18 13 -18 7 0 13 8 13 18 0 10 -6 19 -13 19 -7
0 -13 -9 -13 -19z"/>
<path d="M200 105 c-7 -9 -10 -18 -7 -21 3 -3 10 4 17 15 13 25 8 27 -10 6z"/>
<path d="M373 113 c4 -3 2 -12 -3 -18 -8 -9 -1 -18 25 -33 32 -20 34 -20 23
-2 -7 10 -14 18 -17 18 -26 -2 -34 3 -23 14 15 15 15 28 0 28 -6 0 -8 -3 -5
-7z"/>
<path d="M550 115 c0 -2 18 -14 40 -25 49 -25 53 -19 6 9 -33 21 -46 25 -46
16z"/>
<path d="M507 69 c10 -10 10 -16 0 -28 -11 -14 -10 -14 6 -2 22 17 22 27 0 36
-14 5 -15 4 -6 -6z"/>
<path d="M2255 71 c-3 -5 -2 -12 3 -15 5 -3 9 1 9 9 0 17 -3 19 -12 6z"/>
<path d="M456 61 c-3 -5 2 -15 12 -22 15 -12 16 -12 5 2 -7 9 -10 19 -6 22 3
4 4 7 0 7 -3 0 -8 -4 -11 -9z"/>
<path d="M374 18 c-15 -19 -16 -20 -1 -9 14 11 17 11 17 0 0 -11 2 -11 8 -1 5
7 16 10 28 6 18 -6 18 -6 -1 9 -26 21 -28 21 -51 -5z"/>
<path d="M320 10 c-9 -6 -10 -10 -3 -10 6 0 15 5 18 10 8 12 4 12 -15 0z"/>
</g>
</svg>
