<?xml version="1.0" standalone="no"?>
<!DOCTYPE svg PUBLIC "-//W3C//DTD SVG 20010904//EN"
 "http://www.w3.org/TR/2001/REC-SVG-20010904/DTD/svg10.dtd">
<svg version="1.0" xmlns="http://www.w3.org/2000/svg"
 width="308.000000pt" height="205.000000pt" viewBox="0 0 308.000000 205.000000"
 preserveAspectRatio="xMidYMid meet">

<g transform="translate(0.000000,205.000000) scale(0.100000,-0.100000)"
fill="#000000" stroke="none">
<path d="M727 1853 c-66 -17 -153 -76 -162 -110 -3 -14 -13 -36 -22 -50 -10
-15 -16 -41 -14 -63 2 -31 -3 -41 -29 -64 -38 -31 -71 -33 -88 -5 l-14 21 -14
-21 c-11 -15 -13 -34 -9 -65 4 -27 2 -52 -5 -66 -15 -27 -5 -38 20 -22 25 15
55 15 78 1 15 -10 28 -7 65 16 50 29 55 39 32 69 -25 33 -19 122 10 172 41 69
87 83 131 39 13 -13 34 -30 46 -36 19 -10 24 -9 36 10 8 11 21 21 29 21 8 0
32 13 52 29 47 37 75 51 100 51 54 0 -6 50 -89 74 -62 17 -79 17 -153 -1z"/>
<path d="M2556 1742 c-9 -79 -26 -102 -77 -102 -32 0 -42 -5 -50 -24 -15 -32
7 -77 44 -89 32 -10 64 7 48 27 -18 23 8 56 64 80 41 19 55 30 55 46 0 35 -50
120 -70 120 -4 0 -10 -26 -14 -58z"/>
<path d="M1201 1709 c-18 -7 -21 -13 -15 -27 5 -9 8 -45 8 -79 -1 -47 2 -63
12 -63 8 0 14 -5 14 -10 0 -8 4 -8 13 0 6 5 30 25 51 42 77 64 86 76 86 113
l0 35 -72 -1 c-40 0 -84 -5 -97 -10z"/>
<path d="M830 1674 c0 -9 -9 -18 -20 -21 -11 -3 -20 -10 -20 -15 0 -5 5 -6 10
-3 6 3 10 2 10 -4 0 -5 -4 -12 -9 -15 -5 -4 -1 -23 9 -44 10 -20 19 -46 21
-57 3 -28 -12 -118 -22 -131 -18 -23 2 -43 44 -46 66 -5 126 20 197 82 36 31
78 64 94 74 l29 19 -25 13 c-32 17 -77 5 -119 -30 -37 -31 -73 -33 -117 -6
-39 24 -55 60 -46 106 3 19 3 45 0 58 -7 28 -36 44 -36 20z"/>
<path d="M2210 1664 c0 -15 -9 -42 -21 -60 -18 -30 -26 -34 -62 -34 -40 0 -41
0 -19 -16 16 -11 22 -26 23 -57 1 -39 1 -40 9 -13 14 45 39 66 79 66 20 0 53
5 74 11 31 8 37 14 37 38 0 30 -27 60 -73 79 -40 17 -47 15 -47 -14z"/>
<path d="M619 1361 c-31 -28 -32 -32 -16 -42 20 -12 47 -61 47 -86 0 -16 10
-18 85 -20 47 0 85 3 85 8 0 5 -4 9 -10 9 -5 0 -7 6 -4 14 3 9 -5 16 -23 20
-30 8 -83 53 -83 71 0 6 -11 22 -24 34 l-24 23 -33 -31z"/>
<path d="M1185 1380 c-3 -5 -1 -10 4 -10 6 0 11 5 11 10 0 6 -2 10 -4 10 -3 0
-8 -4 -11 -10z"/>
<path d="M260 1274 c0 -30 -16 -40 -83 -54 -48 -10 -62 -9 -89 4 -78 39 -88
22 -88 -147 0 -134 1 -138 20 -132 14 4 20 2 20 -9 0 -8 -9 -20 -20 -26 -19
-10 -20 -21 -20 -207 l0 -196 33 34 34 34 -26 5 c-38 7 -41 54 -5 87 24 22 26
27 13 37 -10 7 -15 24 -13 46 3 40 44 81 97 97 27 8 32 13 29 36 -4 41 13 64
53 69 29 3 35 1 35 -14 0 -19 32 -24 64 -12 20 8 21 51 1 70 -12 12 -12 18 -2
28 13 15 36 10 52 -9 10 -12 83 -38 110 -40 16 -1 35 -15 35 -27 0 -6 -9 -8
-20 -5 -10 3 -24 0 -29 -7 -13 -15 1 -85 24 -119 10 -15 15 -30 12 -34 -4 -3
7 -21 23 -40 17 -18 30 -38 30 -42 0 -11 39 -2 57 11 6 5 9 16 6 24 -10 27 6
60 42 86 l35 25 -21 27 c-16 20 -20 36 -16 62 6 38 -5 48 -100 81 -46 16 -64
19 -127 22 -21 1 -27 5 -22 16 3 8 1 15 -4 15 -18 0 -60 44 -60 62 0 10 -6 18
-12 17 -32 -4 -49 3 -64 26 -15 24 -15 27 0 44 18 20 20 39 6 61 -8 12 -10 11
-10 -6z"/>
<path d="M2060 1275 c0 -9 -8 -18 -17 -21 -50 -17 -73 -30 -73 -41 0 -7 -4
-13 -9 -13 -5 0 -18 -19 -29 -42 -18 -37 -19 -50 -11 -98 6 -30 17 -62 25 -71
8 -8 14 -22 14 -31 0 -8 10 -35 23 -59 13 -24 29 -60 37 -79 8 -19 34 -54 58
-77 37 -35 44 -46 40 -72 -2 -16 -1 -28 4 -25 10 7 78 -45 78 -60 1 -15 36
-56 49 -56 5 0 21 -5 34 -11 31 -14 26 -54 -5 -46 -22 6 -88 -18 -88 -32 0 -5
-16 -9 -35 -9 -19 0 -33 4 -30 8 3 4 -10 22 -28 40 -27 26 -38 31 -69 27 -21
-2 -35 0 -32 4 3 5 12 9 20 9 20 0 29 27 14 45 -7 8 -9 15 -5 15 4 0 13 -7 20
-16 11 -15 14 -15 43 0 38 20 42 35 7 32 -13 -2 -24 0 -23 3 1 17 -15 50 -23
45 -5 -3 -9 0 -9 5 0 6 -12 11 -27 11 -25 0 -25 1 -9 19 19 21 13 45 -18 77
-27 27 -53 36 -60 21 -4 -7 -4 0 -2 15 1 15 -1 25 -5 22 -4 -2 -11 12 -14 33
-3 21 -12 50 -20 64 -8 14 -11 35 -8 47 3 13 1 22 -6 22 -6 0 -11 16 -11 36 0
41 27 172 40 196 6 10 10 25 10 35 0 14 -5 12 -27 -9 -16 -14 -42 -33 -60 -42
-24 -12 -35 -27 -43 -56 -11 -42 -30 -54 -30 -21 0 27 -15 34 -39 19 -18 -11
-17 -14 25 -74 24 -34 44 -64 44 -67 0 -4 12 -31 26 -60 14 -30 24 -65 23 -78
-1 -13 -1 -37 -1 -53 2 -23 5 -26 15 -17 8 6 17 8 20 5 9 -9 -2 -90 -18 -139
-7 -22 -23 -74 -36 -115 -12 -41 -30 -91 -40 -111 -10 -20 -16 -39 -12 -42 7
-8 -20 -67 -28 -61 -4 2 -11 -1 -15 -7 -4 -8 -3 -9 4 -5 18 11 15 -29 -3 -44
-8 -7 -15 -18 -15 -25 0 -6 -9 -20 -20 -30 -12 -10 -18 -25 -16 -32 3 -8 -3
-17 -13 -21 -26 -10 -81 -59 -81 -71 0 -6 -8 -11 -18 -11 -10 0 -28 -7 -41
-16 -22 -16 -23 -16 -17 3 6 17 1 22 -26 26 -47 8 -98 4 -99 -8 -1 -5 31 -27
72 -47 l74 -37 236 -1 c253 0 305 7 296 42 -4 15 -1 18 15 12 18 -5 68 28 68
46 0 15 -71 18 -97 5 -15 -8 -29 -12 -31 -10 -5 5 48 57 79 79 10 6 19 18 21
26 2 8 19 27 40 42 49 36 55 48 24 48 -14 0 -26 4 -26 8 0 17 13 20 36 10 21
-10 28 -8 55 18 27 25 28 29 12 36 -10 3 -13 7 -6 7 7 1 10 8 6 17 -5 14 -3
15 16 5 18 -10 25 -8 44 13 12 13 22 35 22 48 0 14 6 23 15 23 21 1 41 15 35
25 -3 5 12 6 32 4 56 -8 63 -12 57 -29 -9 -23 -1 -18 32 16 l29 32 -27 -18
c-38 -24 -35 -11 6 30 26 26 39 32 57 28 21 -6 22 -4 12 9 -11 13 -4 19 45 45
43 23 57 36 57 52 0 13 7 28 15 34 8 7 27 39 43 72 22 49 24 56 7 36 -11 -13
-20 -29 -20 -36 0 -7 -18 -26 -40 -43 -22 -16 -59 -52 -82 -81 -39 -48 -45
-52 -73 -46 -16 4 -34 6 -40 6 -5 -1 -29 -3 -51 -5 -57 -5 -84 -15 -122 -44
-18 -14 -34 -23 -36 -21 -9 9 21 37 61 58 23 11 61 39 83 60 37 35 40 42 30
61 -7 13 -8 25 -3 29 5 3 8 16 7 29 -1 25 6 28 24 10 18 -18 27 -1 14 27 -6
14 -20 25 -29 26 -12 0 -13 2 -5 6 7 3 22 -3 33 -13 20 -18 21 -18 35 1 21 28
18 48 -5 36 -15 -9 -18 -7 -17 7 0 9 -6 17 -14 18 -34 1 -60 16 -60 35 0 11 5
17 10 14 6 -4 5 5 -2 20 -7 15 -17 24 -25 21 -8 -3 -13 2 -13 15 0 11 9 23 22
28 17 6 19 9 7 17 -13 8 -18 10 -38 13 -12 1 -21 41 -9 41 5 0 8 10 6 23 -2
13 2 21 10 20 15 -4 15 2 0 30 -16 32 -40 47 -65 42 -13 -2 -26 1 -29 7 -5 7
-2 8 7 3 8 -5 10 -4 6 0 -20 22 -92 13 -83 -10 3 -9 0 -12 -10 -8 -8 3 -13 12
-10 19 3 8 1 14 -4 14 -6 0 -10 -8 -10 -19 0 -10 -9 -21 -20 -24 -11 -3 -20
-2 -20 3 0 16 -85 7 -118 -13 -33 -20 -34 -20 -24 -1 5 11 20 28 31 38 12 11
21 25 21 33 0 7 5 13 11 13 5 0 7 5 4 10 -9 15 -25 12 -25 -5z m130 -105 c0
-5 -4 -10 -9 -10 -6 0 -13 5 -16 10 -3 6 1 10 9 10 9 0 16 -4 16 -10z m-121
-70 c11 0 51 -84 51 -109 0 -16 -6 -21 -24 -21 -18 0 -29 10 -44 38 -13 26
-26 37 -41 36 -24 -1 -25 0 -10 29 15 28 30 38 47 32 8 -3 17 -5 21 -5z m-44
-90 c3 -5 2 -10 -4 -10 -5 0 -13 5 -16 10 -3 6 -2 10 4 10 5 0 13 -4 16 -10z
m215 -21 c0 -11 4 -18 9 -14 6 3 8 15 6 27 -3 14 -1 18 5 12 16 -16 21 -55 9
-73 -9 -13 -10 -12 -6 7 5 24 0 27 -22 13 -7 -5 -11 -13 -7 -19 3 -5 -1 -15
-9 -22 -13 -11 -14 -10 -9 4 3 9 0 23 -7 32 -10 12 -10 15 2 12 9 -2 14 6 14
24 -1 14 3 24 7 22 4 -3 8 -14 8 -25z m240 -118 c3 -2 -6 -1 -20 2 -15 4 -31
1 -41 -9 -16 -15 -17 -14 -12 5 8 31 38 32 73 2z m-130 -21 c0 -13 7 -20 19
-20 17 0 27 -16 37 -63 2 -10 0 -16 -5 -13 -5 4 -12 0 -15 -6 -3 -7 -3 -3 0 9
3 13 1 31 -5 40 -9 16 -10 16 -11 1 0 -9 -4 -18 -10 -20 -19 -6 5 -63 28 -66
16 -3 20 1 16 12 -3 9 -1 16 5 16 6 0 11 -3 12 -7 0 -5 2 -18 5 -30 5 -28 -11
-29 -53 -3 -40 24 -67 64 -59 87 6 15 8 15 16 3 8 -13 10 -13 10 1 0 8 -6 24
-14 34 -8 11 -12 25 -9 32 8 21 33 15 33 -7z m125 -30 c3 -5 1 -10 -4 -10 -6
0 -11 5 -11 10 0 6 2 10 4 10 3 0 8 -4 11 -10z m-498 -172 c-3 -8 -6 -5 -6 6
-1 11 2 17 5 13 3 -3 4 -12 1 -19z m33 -33 c7 -9 8 -15 2 -15 -5 0 -12 7 -16
15 -3 8 -4 15 -2 15 2 0 9 -7 16 -15z m350 -54 c0 -12 -20 -25 -27 -18 -7 7 6
27 18 27 5 0 9 -4 9 -9z m-357 -96 c15 -19 23 -35 17 -35 -12 0 -59 50 -60 63
0 16 16 5 43 -28z m300 -40 c-18 -13 -33 -11 -33 4 0 5 11 9 25 9 23 0 24 -2
8 -13z m-69 -30 c-30 -30 -39 -31 -41 -4 -2 16 1 18 11 10 10 -9 15 -8 20 4 3
8 12 15 20 15 11 0 8 -7 -10 -25z m-199 -15 c10 -11 29 -20 42 -20 14 0 23 -6
23 -15 0 -8 7 -15 15 -15 8 0 15 -7 15 -15 0 -13 -6 -12 -37 4 -40 20 -104 81
-86 81 5 0 18 -9 28 -20z m135 10 c0 -8 -52 -21 -59 -15 -1 2 0 8 3 13 7 11
56 13 56 2z m-123 -87 c-9 -9 -20 -13 -24 -9 -4 4 -1 11 7 16 25 16 35 11 17
-7z m-24 -37 c4 -10 1 -13 -9 -9 -15 6 -19 23 -5 23 5 0 11 -7 14 -14z m-317
-75 c-9 -16 -16 -37 -16 -46 0 -8 -4 -15 -9 -15 -5 0 -13 -9 -16 -20 -5 -15
-15 -20 -42 -20 -35 0 -36 0 -18 20 10 11 27 20 37 20 10 0 23 10 28 23 6 12
14 29 19 37 5 8 13 24 16 35 4 11 9 15 12 8 2 -6 -3 -25 -11 -42z"/>
<path d="M850 1230 c0 -5 7 -10 15 -10 8 0 15 5 15 10 0 6 -7 10 -15 10 -8 0
-15 -4 -15 -10z"/>
<path d="M2705 1163 c4 -10 9 -34 11 -53 3 -19 12 -41 22 -49 12 -9 14 -15 5
-18 -17 -6 -16 -34 1 -67 l13 -26 7 40 c3 22 2 49 -3 59 -6 10 -8 21 -5 24 3
3 3 23 -1 45 -5 29 -13 42 -32 51 -23 10 -25 10 -18 -6z"/>
<path d="M1270 1124 c0 -17 22 -14 28 4 2 7 -3 12 -12 12 -9 0 -16 -7 -16 -16z"/>
<path d="M1318 1123 c7 -3 16 -2 19 1 4 3 -2 6 -13 5 -11 0 -14 -3 -6 -6z"/>
<path d="M1240 1110 c-8 -5 -15 -13 -16 -17 0 -4 -3 -15 -6 -23 -4 -8 -8 -24
-11 -35 -3 -11 -8 -27 -11 -35 -5 -12 1 -16 21 -18 25 -1 26 0 11 11 -14 11
-15 17 -4 38 9 18 20 24 43 24 23 0 31 4 30 16 -1 18 -28 22 -39 5 -4 -6 -10
-7 -15 -3 -4 5 -1 12 6 16 7 5 12 14 10 20 -3 7 -9 7 -19 1z"/>
<path d="M2784 1100 c3 -27 65 -134 73 -126 3 3 -13 38 -35 78 -26 46 -40 64
-38 48z"/>
<path d="M1020 1085 c-7 -8 -18 -15 -24 -15 -6 0 -17 -14 -23 -30 -8 -20 -16
-28 -26 -24 -10 3 -18 -2 -22 -15 -3 -12 -11 -18 -17 -15 -7 5 -9 0 -5 -12 15
-49 18 -69 10 -56 -7 9 -12 6 -21 -13 -9 -19 -9 -25 1 -25 9 0 9 -2 0 -8 -7
-4 -9 -12 -5 -17 9 -13 55 -18 47 -5 -3 6 -2 10 3 10 11 0 26 47 23 73 -1 9 2
17 7 17 6 0 13 11 16 24 3 13 21 47 40 75 21 31 30 51 22 51 -8 0 -19 -7 -26
-15z"/>
<path d="M2396 1085 c-3 -8 -1 -15 4 -15 13 0 22 18 11 24 -5 3 -11 -1 -15 -9z"/>
<path d="M2690 1006 c0 -9 5 -16 10 -16 6 0 10 4 10 9 0 6 -4 13 -10 16 -5 3
-10 -1 -10 -9z"/>
<path d="M2700 965 c0 -8 5 -15 10 -15 6 0 10 7 10 15 0 8 -4 15 -10 15 -5 0
-10 -7 -10 -15z"/>
<path d="M1460 949 c0 -5 -4 -7 -10 -4 -13 8 -13 -31 1 -56 6 -12 17 -18 24
-15 8 3 17 0 21 -6 5 -7 2 -8 -6 -3 -9 5 -11 4 -6 -4 4 -6 12 -9 17 -5 5 3 6
10 3 16 -5 7 -1 9 9 5 13 -5 17 -1 17 16 0 16 -3 18 -9 8 -12 -18 -34 -3 -28
19 2 9 -4 22 -14 29 -13 7 -19 8 -19 0z"/>
<path d="M2591 946 c-9 -10 -9 -16 -1 -21 6 -4 12 -5 13 -4 2 2 9 12 16 22 11
14 11 17 -2 17 -8 0 -20 -6 -26 -14z"/>
<path d="M765 941 c-23 -5 -31 -12 -33 -34 -2 -19 1 -27 12 -27 18 0 26 -12
36 -56 6 -24 4 -39 -6 -48 -7 -8 -10 -16 -7 -20 14 -14 29 -4 40 25 10 25 17
30 33 26 17 -4 20 0 21 26 0 18 3 50 5 72 l4 40 -38 1 c-20 1 -50 -1 -67 -5z"/>
<path d="M2632 934 c-13 -14 -9 -34 8 -34 12 0 22 32 13 41 -4 4 -14 1 -21 -7z"/>
<path d="M2707 934 c-4 -4 -7 -16 -7 -26 0 -10 -9 -23 -20 -30 -23 -15 -27
-30 -5 -22 8 4 15 1 15 -5 0 -6 5 -11 11 -11 6 0 8 9 4 20 -4 14 -2 20 9 20
19 0 32 20 19 29 -6 3 -12 12 -14 19 -3 7 -8 10 -12 6z"/>
<path d="M2801 923 c11 -19 11 -27 1 -43 -17 -28 -16 -30 18 -30 17 0 30 4 30
9 0 5 3 16 6 25 4 10 -1 18 -12 22 -11 4 -28 14 -38 23 -18 15 -18 15 -5 -6z"/>
<path d="M1263 912 c1 -14 5 -18 11 -12 7 7 6 14 -1 21 -9 9 -12 7 -10 -9z"/>
<path d="M1565 870 c3 -5 10 -10 16 -10 5 0 9 5 9 10 0 6 -7 10 -16 10 -8 0
-12 -4 -9 -10z"/>
<path d="M2610 870 c0 -5 5 -10 10 -10 6 0 10 5 10 10 0 6 -4 10 -10 10 -5 0
-10 -4 -10 -10z"/>
<path d="M1055 862 c4 -8 11 -26 15 -40 7 -22 8 -23 9 -6 1 11 -6 29 -15 40
-8 10 -12 13 -9 6z"/>
<path d="M1435 819 c3 -4 -1 -10 -7 -13 -7 -4 -3 -4 8 -2 18 3 21 0 16 -18 -3
-14 -1 -18 6 -11 6 6 12 19 14 30 2 14 -3 20 -19 21 -12 1 -20 -2 -18 -7z"/>
<path d="M1543 787 c5 -36 3 -45 -14 -56 -19 -11 -20 -14 -5 -30 9 -10 13 -21
9 -24 -3 -4 -2 -7 4 -7 5 0 15 10 22 23 7 13 21 28 32 35 17 11 19 9 19 -18
l0 -30 27 17 c27 18 27 18 5 21 -26 4 -29 17 -6 30 22 12 11 29 -26 37 -16 4
-33 11 -36 17 -4 7 -2 8 4 4 7 -4 10 -2 7 6 -3 8 -15 14 -27 15 -19 2 -20 -2
-15 -40z"/>
<path d="M897 778 c19 -47 63 -118 73 -118 6 0 129 -91 182 -135 9 -7 18 -11
21 -9 7 8 88 -8 101 -20 14 -13 53 -36 61 -36 3 0 5 6 5 14 0 8 11 17 25 20
14 4 24 12 22 19 -1 6 5 10 13 8 39 -10 130 -7 173 6 27 8 46 17 43 20 -3 3
-1 14 5 25 11 21 13 22 -56 -22 -39 -24 -60 -24 -83 0 -17 18 -21 19 -32 6
-10 -13 -14 -13 -26 -1 -8 7 -14 19 -14 26 0 12 -15 3 -15 -9 -4 -44 -45 -73
-45 -31 0 12 -4 17 -11 13 -7 -4 -7 1 1 16 6 12 9 24 6 28 -3 3 -6 2 -6 -2 0
-4 -10 2 -22 14 -25 23 -40 26 -32 6 8 -20 -35 -25 -63 -8 -19 11 -23 11 -32
-5 -8 -14 -11 -15 -12 -3 -1 8 -1 20 0 27 1 6 -3 14 -9 18 -5 3 -10 1 -10 -5
0 -6 -5 -8 -11 -4 -6 3 -15 0 -20 -7 -7 -11 -9 -10 -9 4 0 9 5 17 12 17 9 0 9
3 0 12 -10 10 -14 10 -20 1 -6 -9 -12 -7 -25 7 -11 13 -29 20 -53 20 -52 0
-72 15 -100 76 -13 30 -31 54 -39 54 -13 0 -12 -6 2 -42z"/>
<path d="M2522 797 c-24 -26 -29 -49 -9 -41 10 4 41 64 33 64 -1 0 -12 -10
-24 -23z"/>
<path d="M1687 746 c-4 -10 -1 -13 9 -9 15 6 19 23 5 23 -5 0 -11 -7 -14 -14z"/>
<path d="M1730 750 c8 -5 20 -10 25 -10 6 0 3 5 -5 10 -8 5 -19 10 -25 10 -5
0 -3 -5 5 -10z"/>
<path d="M1345 740 c-3 -5 -1 -10 4 -10 6 0 11 5 11 10 0 6 -2 10 -4 10 -3 0
-8 -4 -11 -10z"/>
<path d="M2465 740 c-7 -12 2 -30 16 -30 5 0 9 9 9 20 0 21 -15 27 -25 10z"/>
<path d="M1247 640 c3 -11 9 -17 15 -14 5 3 4 12 -3 20 -16 19 -18 18 -12 -6z"/>
<path d="M1016 587 c3 -10 9 -15 12 -12 3 3 0 11 -7 18 -10 9 -11 8 -5 -6z"/>
<path d="M1655 580 c3 -5 8 -10 11 -10 2 0 4 5 4 10 0 6 -5 10 -11 10 -5 0 -7
-4 -4 -10z"/>
<path d="M1435 570 c3 -5 8 -10 11 -10 2 0 4 5 4 10 0 6 -5 10 -11 10 -5 0 -7
-4 -4 -10z"/>
<path d="M1010 557 c0 -4 9 -16 20 -27 11 -11 20 -16 20 -12 0 5 -9 17 -20 27
-11 10 -20 15 -20 12z"/>
<path d="M2118 548 c-21 -6 -38 -14 -38 -19 0 -5 3 -9 8 -9 4 0 21 -14 39 -30
18 -17 36 -30 40 -30 14 1 53 38 53 50 0 7 -9 9 -22 6 -13 -3 -17 -3 -10 0 10
5 9 10 -4 25 -9 10 -20 19 -23 18 -3 -1 -23 -6 -43 -11z m57 -8 c3 -5 2 -10
-4 -10 -5 0 -13 5 -16 10 -3 6 -2 10 4 10 5 0 13 -4 16 -10z"/>
<path d="M1089 506 c32 -32 56 -29 27 3 -13 15 -14 20 -4 23 7 3 -2 5 -20 5
l-33 0 30 -31z"/>
<path d="M0 244 l0 -244 50 0 50 0 -27 55 -27 55 32 30 c18 17 40 30 48 30 23
0 16 20 -11 30 -14 5 -25 16 -25 24 0 31 30 130 45 146 22 25 18 40 -14 51
-22 8 -31 18 -33 37 -3 24 -7 27 -45 29 l-43 1 0 -244z"/>
<path d="M1430 475 c0 -8 4 -15 9 -15 5 0 14 7 21 15 10 13 9 15 -9 15 -12 0
-21 -6 -21 -15z"/>
<path d="M1562 470 c-12 -10 -18 -21 -14 -24 5 -3 20 6 32 19 28 29 15 33 -18
5z"/>
<path d="M1089 446 c14 -15 26 -26 28 -26 9 0 -24 40 -37 45 -8 4 -4 -5 9 -19z"/>
<path d="M1275 460 l-30 -6 35 -22 c42 -26 39 -26 78 -6 41 20 40 25 -2 18
-23 -3 -37 -1 -43 8 -5 9 -18 12 -38 8z"/>
<path d="M1180 420 c22 -20 37 -27 44 -20 6 6 21 10 36 10 22 1 23 2 7 11 -10
6 -25 8 -32 5 -8 -3 -17 0 -21 6 -5 7 -2 8 6 3 9 -5 11 -4 6 3 -4 7 -24 12
-44 12 l-37 -1 35 -29z"/>
<path d="M2400 415 c-13 -14 -20 -28 -16 -32 6 -6 56 39 56 52 0 12 -18 3 -40
-20z"/>
<path d="M1010 420 c0 -5 -7 -10 -15 -10 -17 0 -20 -16 -5 -25 6 -3 10 -2 10
3 0 5 11 7 25 4 30 -5 33 8 5 26 -12 7 -20 8 -20 2z"/>
<path d="M1397 414 l-29 -16 34 -17 c31 -17 34 -17 63 0 38 23 45 41 13 37
-12 -2 -28 -7 -35 -11 -6 -4 -15 -2 -19 4 -4 8 -3 9 4 5 7 -4 12 -2 12 3 0 14
-9 13 -43 -5z"/>
<path d="M1561 374 c-13 -13 -20 -24 -14 -24 5 0 20 11 33 25 30 32 13 31 -19
-1z"/>
<path d="M1184 351 c29 -30 56 -41 56 -22 0 10 -34 34 -65 45 -16 6 -14 1 9
-23z"/>
<path d="M1266 372 c-5 -8 63 -47 69 -40 1 2 6 13 9 26 6 17 3 22 -11 22 -15
0 -16 -2 -3 -10 12 -8 11 -10 -7 -10 -12 0 -25 5 -28 10 -8 12 -22 13 -29 2z"/>
<path d="M996 357 c3 -10 9 -15 12 -12 3 3 0 11 -7 18 -10 9 -11 8 -5 -6z"/>
<path d="M1370 349 c0 -5 5 -7 10 -4 6 3 10 8 10 11 0 2 -4 4 -10 4 -5 0 -10
-5 -10 -11z"/>
<path d="M1474 319 c-4 -7 -23 -9 -53 -5 l-46 6 33 -20 c31 -19 33 -19 63 -1
17 10 26 22 21 25 -6 4 -14 1 -18 -5z"/>
<path d="M2264 315 c-18 -14 -18 -14 9 -15 17 0 27 5 27 15 0 19 -11 19 -36 0z"/>
<path d="M1210 275 c12 -13 27 -22 31 -19 10 6 -27 44 -43 44 -6 0 -1 -11 12
-25z"/>
<path d="M1283 275 c30 -26 52 -32 62 -15 4 6 11 8 16 5 5 -4 14 -3 21 1 7 5
-11 13 -42 20 -80 19 -89 17 -57 -11z"/>
<path d="M1550 280 c-8 -5 -12 -12 -9 -15 4 -3 12 1 19 10 14 17 11 19 -10 5z"/>
<path d="M2189 251 c-13 -11 -21 -23 -16 -27 10 -10 57 16 57 33 0 18 -14 16
-41 -6z"/>
<path d="M1424 241 c3 -4 -6 -6 -19 -3 -34 6 -31 -13 4 -28 24 -9 34 -9 60 4
37 20 40 30 6 24 -13 -3 -22 -1 -19 3 3 5 -4 9 -16 9 -12 0 -19 -4 -16 -9z"/>
<path d="M1220 222 c0 -12 19 -26 26 -19 2 2 -2 10 -11 17 -9 8 -15 8 -15 2z"/>
<path d="M1285 205 c32 -26 47 -29 80 -15 18 7 16 10 -17 24 -21 9 -50 16 -65
16 l-28 0 30 -25z"/>
<path d="M1557 210 c-19 -12 -25 -20 -17 -25 7 -4 23 4 38 19 30 30 20 33 -21
6z"/>
<path d="M854 185 c-21 -17 -24 -24 -13 -25 22 0 65 35 53 43 -6 3 -23 -5 -40
-18z"/>
<path d="M2112 184 c-46 -32 -13 -48 36 -17 26 17 26 17 13 0 -18 -23 -6 -34
15 -13 18 19 18 19 -13 35 -27 14 -24 14 -51 -5z"/>
<path d="M1382 161 c-10 -6 -5 -13 20 -28 33 -19 33 -19 66 0 25 15 30 22 20
28 -17 11 -89 11 -106 0z"/>
<path d="M1287 138 c21 -21 103 -36 103 -19 0 12 -69 41 -98 41 l-26 0 21 -22z"/>
<path d="M778 136 c-15 -8 -29 -12 -32 -8 -3 3 -6 0 -6 -6 0 -7 -3 -11 -7 -10
-8 2 -114 -46 -191 -85 l-43 -22 47 -3 c40 -3 56 3 126 45 105 64 183 129 106
89z"/>
<path d="M1540 109 c0 -5 5 -7 10 -4 6 3 10 8 10 11 0 2 -4 4 -10 4 -5 0 -10
-5 -10 -11z"/>
<path d="M2440 103 c31 -13 33 -16 17 -28 -9 -7 -17 -16 -17 -20 0 -4 6 -2 14
4 10 9 16 8 26 -4 7 -8 16 -12 21 -9 15 9 -21 52 -53 63 -44 16 -49 12 -8 -6z"/>
<path d="M1164 52 c17 -33 44 -58 53 -49 6 7 -47 75 -60 76 -4 1 -1 -12 7 -27z"/>
<path d="M2426 18 c-9 -5 -21 -6 -26 -3 -6 3 -10 1 -10 -4 0 -12 45 -13 74 -2
19 7 19 8 -1 13 -11 3 -28 1 -37 -4z"/>
<path d="M690 10 c-9 -6 -10 -10 -3 -10 6 0 15 5 18 10 8 12 4 12 -15 0z"/>
</g>
</svg>
